{
	"asset":{
		"generator":"Khronos glTF Blender I/O v4.5.47",
		"version":"2.0"
	},
	"scene":0,
	"scenes":[
		{
			"name":"Scene",
			"nodes":[
				0,
				1,
				2
			]
		}
	],
	"nodes":[
		{
			"mesh":0,
			"name":"Cube"
		},
		{
			"mesh":1,
			"name":"Cube.001",
			"scale":[
				0.5234545469284058,
				0.06925374269485474,
				0.8877537846565247
			],
			"translation":[
				0.4665014445781708,
				0,
				0
			]
		},
		{
			"mesh":2,
			"name":"Cube.002",
			"scale":[
				0.022514499723911285,
				0.8893136382102966,
				0.8893136382102966
			],
			"translation":[
				0.9586871862411499,
				0.09778952598571777,
				0.8893213868141174
			]
		}
	],
	"materials":[
		{
			"doubleSided":true,
			"name":"Material",
			"pbrMetallicRoughness":{
				"baseColorTexture":{
					"index":0
				},
				"metallicFactor":0
			}
		},
		{
			"doubleSided":true,
			"name":"Material.001",
			"pbrMetallicRoughness":{
				"baseColorTexture":{
					"index":1
				},
				"metallicFactor":0
			}
		},
		{
			"doubleSided":true,
			"name":"Material.003",
			"pbrMetallicRoughness":{
				"baseColorFactor":[
					0,
					0,
					0,
					1
				],
				"metallicFactor":0
			}
		},
		{
			"doubleSided":true,
			"name":"Material.004",
			"pbrMetallicRoughness":{
				"baseColorTexture":{
					"index":2
				},
				"metallicFactor":0
			}
		}
	],
	"meshes":[
		{
			"name":"Cube",
			"primitives":[
				{
					"attributes":{
						"POSITION":0,
						"NORMAL":1,
						"TEXCOORD_0":2,
						"TANGENT":3
					},
					"indices":4,
					"material":0
				}
			]
		},
		{
			"name":"Cube.001",
			"primitives":[
				{
					"attributes":{
						"POSITION":5,
						"NORMAL":6,
						"TEXCOORD_0":7,
						"TANGENT":8
					},
					"indices":9,
					"material":1
				}
			]
		},
		{
			"name":"Cube.002",
			"primitives":[
				{
					"attributes":{
						"POSITION":10,
						"NORMAL":11,
						"TEXCOORD_0":12,
						"TANGENT":13
					},
					"indices":14,
					"material":2
				},
				{
					"attributes":{
						"POSITION":15,
						"NORMAL":16,
						"TEXCOORD_0":17,
						"TANGENT":18
					},
					"indices":19,
					"material":3
				}
			]
		}
	],
	"textures":[
		{
			"sampler":0,
			"source":0
		},
		{
			"sampler":0,
			"source":1
		},
		{
			"sampler":0,
			"source":2
		}
	],
	"images":[
		{
			"mimeType":"image/png",
			"name":"botiquin_armario_.png",
			"uri":"../../texturas/botiquin_armario_.png"
		},
		{
			"mimeType":"image/png",
			"name":"repiza.png",
			"uri":"../../texturas/repiza.png"
		},
		{
			"mimeType":"image/png",
			"name":"puerta_btiquin.png",
			"uri":"../../texturas/puerta_btiquin.png"
		}
	],
	"accessors":[
		{
			"bufferView":0,
			"componentType":5126,
			"count":48,
			"max":[
				1,
				1,
				1
			],
			"min":[
				0,
				-1,
				-1
			],
			"type":"VEC3"
		},
		{
			"bufferView":1,
			"componentType":5126,
			"count":48,
			"type":"VEC3"
		},
		{
			"bufferView":2,
			"componentType":5126,
			"count":48,
			"type":"VEC2"
		},
		{
			"bufferView":3,
			"componentType":5126,
			"count":48,
			"type":"VEC4"
		},
		{
			"bufferView":4,
			"componentType":5123,
			"count":84,
			"type":"SCALAR"
		},
		{
			"bufferView":5,
			"componentType":5126,
			"count":24,
			"max":[
				0.7951232194900513,
				1,
				1
			],
			"min":[
				-0.735724925994873,
				-1,
				-1
			],
			"type":"VEC3"
		},
		{
			"bufferView":6,
			"componentType":5126,
			"count":24,
			"type":"VEC3"
		},
		{
			"bufferView":7,
			"componentType":5126,
			"count":24,
			"type":"VEC2"
		},
		{
			"bufferView":8,
			"componentType":5126,
			"count":24,
			"type":"VEC4"
		},
		{
			"bufferView":9,
			"componentType":5123,
			"count":36,
			"type":"SCALAR"
		},
		{
			"bufferView":10,
			"componentType":5126,
			"count":16,
			"max":[
				1.548553466796875,
				0.890039324760437,
				-8.702278137207031e-06
			],
			"min":[
				-0.451446533203125,
				-1.109960675239563,
				-2.0000085830688477
			],
			"type":"VEC3"
		},
		{
			"bufferView":11,
			"componentType":5126,
			"count":16,
			"type":"VEC3"
		},
		{
			"bufferView":12,
			"componentType":5126,
			"count":16,
			"type":"VEC2"
		},
		{
			"bufferView":13,
			"componentType":5126,
			"count":16,
			"type":"VEC4"
		},
		{
			"bufferView":14,
			"componentType":5123,
			"count":24,
			"type":"SCALAR"
		},
		{
			"bufferView":15,
			"componentType":5126,
			"count":8,
			"max":[
				1.548553466796875,
				0.890039324760437,
				-8.702278137207031e-06
			],
			"min":[
				-0.451446533203125,
				-1.109960675239563,
				-2.0000085830688477
			],
			"type":"VEC3"
		},
		{
			"bufferView":16,
			"componentType":5126,
			"count":8,
			"type":"VEC3"
		},
		{
			"bufferView":17,
			"componentType":5126,
			"count":8,
			"type":"VEC2"
		},
		{
			"bufferView":18,
			"componentType":5126,
			"count":8,
			"type":"VEC4"
		},
		{
			"bufferView":19,
			"componentType":5123,
			"count":12,
			"type":"SCALAR"
		}
	],
	"bufferViews":[
		{
			"buffer":0,
			"byteLength":576,
			"byteOffset":0,
			"target":34962
		},
		{
			"buffer":0,
			"byteLength":576,
			"byteOffset":576,
			"target":34962
		},
		{
			"buffer":0,
			"byteLength":384,
			"byteOffset":1152,
			"target":34962
		},
		{
			"buffer":0,
			"byteLength":768,
			"byteOffset":1536,
			"target":34962
		},
		{
			"buffer":0,
			"byteLength":168,
			"byteOffset":2304,
			"target":34963
		},
		{
			"buffer":0,
			"byteLength":288,
			"byteOffset":2472,
			"target":34962
		},
		{
			"buffer":0,
			"byteLength":288,
			"byteOffset":2760,
			"target":34962
		},
		{
			"buffer":0,
			"byteLength":192,
			"byteOffset":3048,
			"target":34962
		},
		{
			"buffer":0,
			"byteLength":384,
			"byteOffset":3240,
			"target":34962
		},
		{
			"buffer":0,
			"byteLength":72,
			"byteOffset":3624,
			"target":34963
		},
		{
			"buffer":0,
			"byteLength":192,
			"byteOffset":3696,
			"target":34962
		},
		{
			"buffer":0,
			"byteLength":192,
			"byteOffset":3888,
			"target":34962
		},
		{
			"buffer":0,
			"byteLength":128,
			"byteOffset":4080,
			"target":34962
		},
		{
			"buffer":0,
			"byteLength":256,
			"byteOffset":4208,
			"target":34962
		},
		{
			"buffer":0,
			"byteLength":48,
			"byteOffset":4464,
			"target":34963
		},
		{
			"buffer":0,
			"byteLength":96,
			"byteOffset":4512,
			"target":34962
		},
		{
			"buffer":0,
			"byteLength":96,
			"byteOffset":4608,
			"target":34962
		},
		{
			"buffer":0,
			"byteLength":64,
			"byteOffset":4704,
			"target":34962
		},
		{
			"buffer":0,
			"byteLength":128,
			"byteOffset":4768,
			"target":34962
		},
		{
			"buffer":0,
			"byteLength":24,
			"byteOffset":4896,
			"target":34963
		}
	],
	"samplers":[
		{
			"magFilter":9728,
			"minFilter":9984
		}
	],
	"buffers":[
		{
			"byteLength":4920,
			"uri":"botiquin_stateria-5742c1745a05f5a5b81a7be79540f4fd.bin"
		}
	]
}
