{
	"asset":{
		"generator":"Khronos glTF Blender I/O v4.4.56",
		"version":"2.0"
	},
	"extensionsUsed":[
		"KHR_materials_transmission",
		"KHR_materials_ior"
	],
	"scene":0,
	"scenes":[
		{
			"extras":{
				"blosm":{
					"defaultLevels":[
						{
							"levels":4,
							"weight":10
						},
						{
							"levels":5,
							"weight":40
						},
						{
							"levels":6,
							"weight":10
						}
					]
				},
				"sb_state":{
					"action_preview":null,
					"action_preview_enabled":0
				}
			},
			"name":"Scene",
			"nodes":[
				0,
				1,
				2,
				3
			]
		}
	],
	"nodes":[
		{
			"mesh":0,
			"name":"Cube",
			"translation":[
				-10,
				3,
				-15.499998092651367
			]
		},
		{
			"mesh":1,
			"name":"Cube.001",
			"scale":[
				1.0498701333999634,
				1.0498701333999634,
				1.0498701333999634
			],
			"translation":[
				-10,
				8.741692543029785,
				-15.499998092651367
			]
		},
		{
			"mesh":2,
			"name":"Cubo",
			"scale":[
				1,
				1.100000023841858,
				3.076228618621826
			],
			"translation":[
				-1.342508316040039,
				3.4466044902801514,
				-16.20487403869629
			]
		},
		{
			"extras":{
				"sb_props":{
					"animation":{}
				}
			},
			"mesh":3,
			"name":"Plano",
			"rotation":[
				0,
				0,
				-0.7071068286895752,
				0.7071068286895752
			],
			"scale":[
				1,
				1,
				2.8369405269622803
			],
			"translation":[
				-2.2873713970184326,
				3.457430124282837,
				-16.18596649169922
			]
		}
	],
	"materials":[
		{
			"doubleSided":true,
			"name":"Material",
			"pbrMetallicRoughness":{
				"baseColorTexture":{
					"index":0
				},
				"metallicFactor":0
			}
		},
		{
			"doubleSided":true,
			"name":"Material.002",
			"pbrMetallicRoughness":{
				"baseColorTexture":{
					"index":1
				},
				"metallicFactor":0
			}
		},
		{
			"doubleSided":true,
			"name":"Material.001",
			"pbrMetallicRoughness":{
				"baseColorTexture":{
					"index":2
				},
				"metallicFactor":0
			}
		},
		{
			"doubleSided":true,
			"name":"Material.003",
			"pbrMetallicRoughness":{
				"baseColorTexture":{
					"index":3
				},
				"metallicFactor":0
			}
		},
		{
			"alphaMode":"BLEND",
			"doubleSided":true,
			"extensions":{
				"KHR_materials_transmission":{
					"transmissionFactor":1
				},
				"KHR_materials_ior":{
					"ior":40
				}
			},
			"name":"Material.004",
			"pbrMetallicRoughness":{
				"baseColorFactor":[
					1,
					1,
					1,
					0.5
				],
				"baseColorTexture":{
					"index":4
				},
				"metallicFactor":0,
				"roughnessFactor":0.5
			}
		}
	],
	"meshes":[
		{
			"name":"Cube",
			"primitives":[
				{
					"attributes":{
						"POSITION":0,
						"NORMAL":1,
						"TEXCOORD_0":2,
						"TANGENT":3
					},
					"indices":4,
					"material":0
				},
				{
					"attributes":{
						"POSITION":5,
						"NORMAL":6,
						"TEXCOORD_0":7,
						"TANGENT":8
					},
					"indices":9,
					"material":1
				}
			]
		},
		{
			"name":"Cube.001",
			"primitives":[
				{
					"attributes":{
						"POSITION":10,
						"NORMAL":11,
						"TEXCOORD_0":12,
						"TANGENT":13
					},
					"indices":14,
					"material":2
				}
			]
		},
		{
			"name":"Cubo",
			"primitives":[
				{
					"attributes":{
						"POSITION":15,
						"NORMAL":16,
						"TEXCOORD_0":17
					},
					"indices":18,
					"material":3
				}
			]
		},
		{
			"name":"Plano.001",
			"primitives":[
				{
					"attributes":{
						"POSITION":19,
						"NORMAL":20,
						"TEXCOORD_0":21,
						"TANGENT":22
					},
					"indices":23,
					"material":4
				}
			]
		}
	],
	"textures":[
		{
			"sampler":0,
			"source":0
		},
		{
			"sampler":0,
			"source":1
		},
		{
			"sampler":0,
			"source":2
		},
		{
			"sampler":0,
			"source":3
		},
		{
			"sampler":0,
			"source":4
		}
	],
	"images":[
		{
			"mimeType":"image/png",
			"name":"cuerpo_caba\u00f1a.png",
			"uri":"../../texturas/cuerpo_caba%C3%B1a.png"
		},
		{
			"mimeType":"image/png",
			"name":"piso caba\u00f1a.png",
			"uri":"../../texturas/piso%20caba%C3%B1a.png"
		},
		{
			"mimeType":"image/png",
			"name":"techo_caba\u00f1a.png",
			"uri":"../../texturas/techo_caba%C3%B1a.png"
		},
		{
			"mimeType":"image/png",
			"name":"ventana.png",
			"uri":"../../texturas/ventana.png"
		},
		{
			"mimeType":"image/png",
			"name":"vidrio.png",
			"uri":"../../texturas/vidrio.png"
		}
	],
	"accessors":[
		{
			"bufferView":0,
			"componentType":5126,
			"count":252,
			"max":[
				7.892235279083252,
				2.869903564453125,
				11.838351249694824
			],
			"min":[
				-7.892234802246094,
				-2.869903802871704,
				-11.838354110717773
			],
			"type":"VEC3"
		},
		{
			"bufferView":1,
			"componentType":5126,
			"count":252,
			"type":"VEC3"
		},
		{
			"bufferView":2,
			"componentType":5126,
			"count":252,
			"type":"VEC2"
		},
		{
			"bufferView":3,
			"componentType":5126,
			"count":252,
			"type":"VEC4"
		},
		{
			"bufferView":4,
			"componentType":5123,
			"count":702,
			"type":"SCALAR"
		},
		{
			"bufferView":5,
			"componentType":5126,
			"count":12,
			"max":[
				7.533918857574463,
				-2.863811492919922,
				11.480034828186035
			],
			"min":[
				-7.533918380737305,
				-2.863811492919922,
				-11.480037689208984
			],
			"type":"VEC3"
		},
		{
			"bufferView":6,
			"componentType":5126,
			"count":12,
			"type":"VEC3"
		},
		{
			"bufferView":7,
			"componentType":5126,
			"count":12,
			"type":"VEC2"
		},
		{
			"bufferView":8,
			"componentType":5126,
			"count":12,
			"type":"VEC4"
		},
		{
			"bufferView":9,
			"componentType":5123,
			"count":30,
			"type":"SCALAR"
		},
		{
			"bufferView":10,
			"componentType":5126,
			"count":24,
			"max":[
				7.892235279083252,
				-1.8371357917785645,
				11.838351249694824
			],
			"min":[
				-7.892234802246094,
				-2.869903802871704,
				-11.838354110717773
			],
			"type":"VEC3"
		},
		{
			"bufferView":11,
			"componentType":5126,
			"count":24,
			"type":"VEC3"
		},
		{
			"bufferView":12,
			"componentType":5126,
			"count":24,
			"type":"VEC2"
		},
		{
			"bufferView":13,
			"componentType":5126,
			"count":24,
			"type":"VEC4"
		},
		{
			"bufferView":14,
			"componentType":5123,
			"count":36,
			"type":"SCALAR"
		},
		{
			"bufferView":15,
			"componentType":5126,
			"count":364,
			"max":[
				-0.9000000357627869,
				1,
				1
			],
			"min":[
				-1,
				-1,
				-1
			],
			"type":"VEC3"
		},
		{
			"bufferView":16,
			"componentType":5126,
			"count":364,
			"type":"VEC3"
		},
		{
			"bufferView":17,
			"componentType":5126,
			"count":364,
			"type":"VEC2"
		},
		{
			"bufferView":18,
			"componentType":5123,
			"count":876,
			"type":"SCALAR"
		},
		{
			"bufferView":19,
			"componentType":5126,
			"count":15,
			"max":[
				1,
				0,
				1
			],
			"min":[
				-1,
				0,
				-1
			],
			"type":"VEC3"
		},
		{
			"bufferView":20,
			"componentType":5126,
			"count":15,
			"type":"VEC3"
		},
		{
			"bufferView":21,
			"componentType":5126,
			"count":15,
			"type":"VEC2"
		},
		{
			"bufferView":22,
			"componentType":5126,
			"count":15,
			"type":"VEC4"
		},
		{
			"bufferView":23,
			"componentType":5123,
			"count":48,
			"type":"SCALAR"
		}
	],
	"bufferViews":[
		{
			"buffer":0,
			"byteLength":3024,
			"byteOffset":0,
			"target":34962
		},
		{
			"buffer":0,
			"byteLength":3024,
			"byteOffset":3024,
			"target":34962
		},
		{
			"buffer":0,
			"byteLength":2016,
			"byteOffset":6048,
			"target":34962
		},
		{
			"buffer":0,
			"byteLength":4032,
			"byteOffset":8064,
			"target":34962
		},
		{
			"buffer":0,
			"byteLength":1404,
			"byteOffset":12096,
			"target":34963
		},
		{
			"buffer":0,
			"byteLength":144,
			"byteOffset":13500,
			"target":34962
		},
		{
			"buffer":0,
			"byteLength":144,
			"byteOffset":13644,
			"target":34962
		},
		{
			"buffer":0,
			"byteLength":96,
			"byteOffset":13788,
			"target":34962
		},
		{
			"buffer":0,
			"byteLength":192,
			"byteOffset":13884,
			"target":34962
		},
		{
			"buffer":0,
			"byteLength":60,
			"byteOffset":14076,
			"target":34963
		},
		{
			"buffer":0,
			"byteLength":288,
			"byteOffset":14136,
			"target":34962
		},
		{
			"buffer":0,
			"byteLength":288,
			"byteOffset":14424,
			"target":34962
		},
		{
			"buffer":0,
			"byteLength":192,
			"byteOffset":14712,
			"target":34962
		},
		{
			"buffer":0,
			"byteLength":384,
			"byteOffset":14904,
			"target":34962
		},
		{
			"buffer":0,
			"byteLength":72,
			"byteOffset":15288,
			"target":34963
		},
		{
			"buffer":0,
			"byteLength":4368,
			"byteOffset":15360,
			"target":34962
		},
		{
			"buffer":0,
			"byteLength":4368,
			"byteOffset":19728,
			"target":34962
		},
		{
			"buffer":0,
			"byteLength":2912,
			"byteOffset":24096,
			"target":34962
		},
		{
			"buffer":0,
			"byteLength":1752,
			"byteOffset":27008,
			"target":34963
		},
		{
			"buffer":0,
			"byteLength":180,
			"byteOffset":28760,
			"target":34962
		},
		{
			"buffer":0,
			"byteLength":180,
			"byteOffset":28940,
			"target":34962
		},
		{
			"buffer":0,
			"byteLength":120,
			"byteOffset":29120,
			"target":34962
		},
		{
			"buffer":0,
			"byteLength":240,
			"byteOffset":29240,
			"target":34962
		},
		{
			"buffer":0,
			"byteLength":96,
			"byteOffset":29480,
			"target":34963
		}
	],
	"samplers":[
		{
			"magFilter":9728,
			"minFilter":9984
		}
	],
	"buffers":[
		{
			"byteLength":29576,
			"uri":"caba%C3%B1a-570bc8ff97d03703301227f6e84682a0.bin"
		}
	]
}
