{
	"asset":{
		"generator":"Khronos glTF Blender I/O v4.5.47",
		"version":"2.0"
	},
	"scene":0,
	"scenes":[
		{
			"name":"Scene",
			"nodes":[
				0,
				1
			]
		}
	],
	"nodes":[
		{
			"mesh":0,
			"name":"Cube",
			"scale":[
				1,
				0.17026612162590027,
				2.0859692096710205
			],
			"translation":[
				0.3834168314933777,
				0,
				0
			]
		},
		{
			"mesh":1,
			"name":"Cube.001",
			"scale":[
				1,
				0.17374417185783386,
				2.0786266326904297
			],
			"translation":[
				0.3806529641151428,
				0.3478381037712097,
				0
			]
		}
	],
	"materials":[
		{
			"doubleSided":true,
			"name":"Material.001",
			"pbrMetallicRoughness":{
				"baseColorTexture":{
					"index":0
				},
				"metallicFactor":0
			}
		},
		{
			"doubleSided":true,
			"name":"Material.002",
			"pbrMetallicRoughness":{
				"baseColorFactor":[
					0,
					0,
					0,
					1
				],
				"metallicFactor":0
			}
		},
		{
			"doubleSided":true,
			"name":"Material.003",
			"pbrMetallicRoughness":{
				"baseColorTexture":{
					"index":1
				},
				"metallicFactor":0
			}
		},
		{
			"doubleSided":true,
			"name":"Material.004",
			"pbrMetallicRoughness":{
				"baseColorTexture":{
					"index":2
				},
				"metallicFactor":0
			}
		}
	],
	"meshes":[
		{
			"name":"Cube",
			"primitives":[
				{
					"attributes":{
						"POSITION":0,
						"NORMAL":1,
						"TEXCOORD_0":2,
						"TANGENT":3
					},
					"indices":4,
					"material":0
				},
				{
					"attributes":{
						"POSITION":5,
						"NORMAL":6,
						"TEXCOORD_0":7,
						"TANGENT":8
					},
					"indices":9,
					"material":1
				},
				{
					"attributes":{
						"POSITION":10,
						"NORMAL":11,
						"TEXCOORD_0":12,
						"TANGENT":13
					},
					"indices":14,
					"material":2
				}
			]
		},
		{
			"name":"Cube.001",
			"primitives":[
				{
					"attributes":{
						"POSITION":15,
						"NORMAL":16,
						"TEXCOORD_0":17,
						"TANGENT":18
					},
					"indices":19,
					"material":3
				}
			]
		}
	],
	"textures":[
		{
			"sampler":0,
			"source":0
		},
		{
			"sampler":0,
			"source":1
		},
		{
			"sampler":0,
			"source":2
		}
	],
	"images":[
		{
			"mimeType":"image/png",
			"name":"base_cama.png",
			"uri":"../../texturas/base_cama.png"
		},
		{
			"mimeType":"image/png",
			"name":"espaldar.png",
			"uri":"../../texturas/espaldar.png"
		},
		{
			"mimeType":"image/png",
			"name":"cama.png",
			"uri":"../../texturas/cama.png"
		}
	],
	"accessors":[
		{
			"bufferView":0,
			"componentType":5126,
			"count":54,
			"max":[
				1,
				1,
				1.0314624309539795
			],
			"min":[
				-1,
				-2.1746318340301514,
				-1
			],
			"type":"VEC3"
		},
		{
			"bufferView":1,
			"componentType":5126,
			"count":54,
			"type":"VEC3"
		},
		{
			"bufferView":2,
			"componentType":5126,
			"count":54,
			"type":"VEC2"
		},
		{
			"bufferView":3,
			"componentType":5126,
			"count":54,
			"type":"VEC4"
		},
		{
			"bufferView":4,
			"componentType":5123,
			"count":144,
			"type":"SCALAR"
		},
		{
			"bufferView":5,
			"componentType":5126,
			"count":92,
			"max":[
				1,
				1,
				1.0314624309539795
			],
			"min":[
				-1,
				-2.1746318340301514,
				-1
			],
			"type":"VEC3"
		},
		{
			"bufferView":6,
			"componentType":5126,
			"count":92,
			"type":"VEC3"
		},
		{
			"bufferView":7,
			"componentType":5126,
			"count":92,
			"type":"VEC2"
		},
		{
			"bufferView":8,
			"componentType":5126,
			"count":92,
			"type":"VEC4"
		},
		{
			"bufferView":9,
			"componentType":5123,
			"count":186,
			"type":"SCALAR"
		},
		{
			"bufferView":10,
			"componentType":5126,
			"count":56,
			"max":[
				1,
				6.69504976272583,
				1.0314624309539795
			],
			"min":[
				-1,
				1,
				1
			],
			"type":"VEC3"
		},
		{
			"bufferView":11,
			"componentType":5126,
			"count":56,
			"type":"VEC3"
		},
		{
			"bufferView":12,
			"componentType":5126,
			"count":56,
			"type":"VEC2"
		},
		{
			"bufferView":13,
			"componentType":5126,
			"count":56,
			"type":"VEC4"
		},
		{
			"bufferView":14,
			"componentType":5123,
			"count":114,
			"type":"SCALAR"
		},
		{
			"bufferView":15,
			"componentType":5126,
			"count":24,
			"max":[
				1,
				1,
				1
			],
			"min":[
				-1,
				-1,
				-1
			],
			"type":"VEC3"
		},
		{
			"bufferView":16,
			"componentType":5126,
			"count":24,
			"type":"VEC3"
		},
		{
			"bufferView":17,
			"componentType":5126,
			"count":24,
			"type":"VEC2"
		},
		{
			"bufferView":18,
			"componentType":5126,
			"count":24,
			"type":"VEC4"
		},
		{
			"bufferView":19,
			"componentType":5123,
			"count":36,
			"type":"SCALAR"
		}
	],
	"bufferViews":[
		{
			"buffer":0,
			"byteLength":648,
			"byteOffset":0,
			"target":34962
		},
		{
			"buffer":0,
			"byteLength":648,
			"byteOffset":648,
			"target":34962
		},
		{
			"buffer":0,
			"byteLength":432,
			"byteOffset":1296,
			"target":34962
		},
		{
			"buffer":0,
			"byteLength":864,
			"byteOffset":1728,
			"target":34962
		},
		{
			"buffer":0,
			"byteLength":288,
			"byteOffset":2592,
			"target":34963
		},
		{
			"buffer":0,
			"byteLength":1104,
			"byteOffset":2880,
			"target":34962
		},
		{
			"buffer":0,
			"byteLength":1104,
			"byteOffset":3984,
			"target":34962
		},
		{
			"buffer":0,
			"byteLength":736,
			"byteOffset":5088,
			"target":34962
		},
		{
			"buffer":0,
			"byteLength":1472,
			"byteOffset":5824,
			"target":34962
		},
		{
			"buffer":0,
			"byteLength":372,
			"byteOffset":7296,
			"target":34963
		},
		{
			"buffer":0,
			"byteLength":672,
			"byteOffset":7668,
			"target":34962
		},
		{
			"buffer":0,
			"byteLength":672,
			"byteOffset":8340,
			"target":34962
		},
		{
			"buffer":0,
			"byteLength":448,
			"byteOffset":9012,
			"target":34962
		},
		{
			"buffer":0,
			"byteLength":896,
			"byteOffset":9460,
			"target":34962
		},
		{
			"buffer":0,
			"byteLength":228,
			"byteOffset":10356,
			"target":34963
		},
		{
			"buffer":0,
			"byteLength":288,
			"byteOffset":10584,
			"target":34962
		},
		{
			"buffer":0,
			"byteLength":288,
			"byteOffset":10872,
			"target":34962
		},
		{
			"buffer":0,
			"byteLength":192,
			"byteOffset":11160,
			"target":34962
		},
		{
			"buffer":0,
			"byteLength":384,
			"byteOffset":11352,
			"target":34962
		},
		{
			"buffer":0,
			"byteLength":72,
			"byteOffset":11736,
			"target":34963
		}
	],
	"samplers":[
		{
			"magFilter":9728,
			"minFilter":9984
		}
	],
	"buffers":[
		{
			"byteLength":11808,
			"uri":"cama-c7d000bd7df861c2e33ead26f72fcad0.bin"
		}
	]
}
