{
	"asset":{
		"generator":"Khronos glTF Blender I/O v4.5.47",
		"version":"2.0"
	},
	"scene":0,
	"scenes":[
		{
			"name":"Scene",
			"nodes":[
				8
			]
		}
	],
	"nodes":[
		{
			"name":"Bone",
			"rotation":[
				-0.06300510466098785,
				-1.189724514460977e-07,
				7.510795541065818e-09,
				0.9980131983757019
			],
			"translation":[
				2.634695188341113e-16,
				-1.0419385433197021,
				0.011028101667761803
			]
		},
		{
			"name":"Bone.001",
			"rotation":[
				1.9410681773024407e-07,
				0.07846952229738235,
				0.9969165325164795,
				1.5278571297017152e-08
			],
			"scale":[
				1,
				0.9999997019767761,
				0.9999999403953552
			],
			"translation":[
				2.634695188341113e-16,
				-1.0419385433197021,
				0.011028101667761803
			]
		},
		{
			"mesh":0,
			"name":"Cube",
			"skin":0
		},
		{
			"mesh":1,
			"name":"Cube.001",
			"skin":0
		},
		{
			"mesh":2,
			"name":"Cylinder",
			"skin":0
		},
		{
			"mesh":3,
			"name":"Cylinder.001",
			"skin":0
		},
		{
			"mesh":4,
			"name":"Sphere",
			"skin":0
		},
		{
			"mesh":5,
			"name":"Sphere.001",
			"skin":0
		},
		{
			"children":[
				2,
				3,
				4,
				5,
				6,
				7,
				0,
				1
			],
			"name":"Armature",
			"rotation":[
				0.7933533787727356,
				0,
				0,
				0.6087614297866821
			],
			"translation":[
				0,
				0.1205788403749466,
				1.098607063293457
			]
		}
	],
	"animations":[
		{
			"channels":[
				{
					"sampler":0,
					"target":{
						"node":0,
						"path":"translation"
					}
				},
				{
					"sampler":1,
					"target":{
						"node":0,
						"path":"rotation"
					}
				},
				{
					"sampler":2,
					"target":{
						"node":0,
						"path":"scale"
					}
				},
				{
					"sampler":3,
					"target":{
						"node":1,
						"path":"translation"
					}
				},
				{
					"sampler":4,
					"target":{
						"node":1,
						"path":"rotation"
					}
				},
				{
					"sampler":5,
					"target":{
						"node":1,
						"path":"scale"
					}
				}
			],
			"name":"reload",
			"samplers":[
				{
					"input":37,
					"interpolation":"STEP",
					"output":38
				},
				{
					"input":37,
					"interpolation":"STEP",
					"output":39
				},
				{
					"input":37,
					"interpolation":"STEP",
					"output":40
				},
				{
					"input":37,
					"interpolation":"LINEAR",
					"output":41
				},
				{
					"input":42,
					"interpolation":"LINEAR",
					"output":43
				},
				{
					"input":37,
					"interpolation":"STEP",
					"output":44
				}
			]
		}
	],
	"materials":[
		{
			"doubleSided":true,
			"name":"Material",
			"pbrMetallicRoughness":{
				"baseColorTexture":{
					"index":0
				},
				"metallicFactor":0
			}
		},
		{
			"doubleSided":true,
			"name":"Material.003",
			"pbrMetallicRoughness":{
				"baseColorTexture":{
					"index":1
				},
				"metallicFactor":0
			}
		},
		{
			"doubleSided":true,
			"name":"Material.001",
			"pbrMetallicRoughness":{
				"baseColorTexture":{
					"index":2
				},
				"metallicFactor":0
			}
		},
		{
			"doubleSided":true,
			"name":"Material.002",
			"pbrMetallicRoughness":{
				"baseColorTexture":{
					"index":3
				},
				"metallicFactor":0
			}
		},
		{
			"doubleSided":true,
			"name":"Material.005",
			"pbrMetallicRoughness":{
				"baseColorTexture":{
					"index":4
				},
				"metallicFactor":0
			}
		},
		{
			"doubleSided":true,
			"name":"Material.004",
			"pbrMetallicRoughness":{
				"baseColorTexture":{
					"index":5
				},
				"metallicFactor":0
			}
		}
	],
	"meshes":[
		{
			"name":"Cube",
			"primitives":[
				{
					"attributes":{
						"POSITION":0,
						"NORMAL":1,
						"TEXCOORD_0":2,
						"JOINTS_0":3,
						"WEIGHTS_0":4
					},
					"indices":5,
					"material":0
				}
			]
		},
		{
			"name":"Cube.001",
			"primitives":[
				{
					"attributes":{
						"POSITION":7,
						"NORMAL":8,
						"TEXCOORD_0":9,
						"TANGENT":10,
						"JOINTS_0":11,
						"WEIGHTS_0":12
					},
					"indices":13,
					"material":1
				}
			]
		},
		{
			"name":"Cylinder",
			"primitives":[
				{
					"attributes":{
						"POSITION":14,
						"NORMAL":15,
						"TEXCOORD_0":16,
						"JOINTS_0":17,
						"WEIGHTS_0":18
					},
					"indices":19,
					"material":2
				}
			]
		},
		{
			"name":"Cylinder.001",
			"primitives":[
				{
					"attributes":{
						"POSITION":20,
						"NORMAL":21,
						"TEXCOORD_0":22,
						"JOINTS_0":23,
						"WEIGHTS_0":24
					},
					"indices":19,
					"material":3
				}
			]
		},
		{
			"name":"Sphere",
			"primitives":[
				{
					"attributes":{
						"POSITION":25,
						"NORMAL":26,
						"TEXCOORD_0":27,
						"JOINTS_0":28,
						"WEIGHTS_0":29
					},
					"indices":30,
					"material":4
				}
			]
		},
		{
			"name":"Sphere.001",
			"primitives":[
				{
					"attributes":{
						"POSITION":31,
						"NORMAL":32,
						"TEXCOORD_0":33,
						"JOINTS_0":34,
						"WEIGHTS_0":35
					},
					"indices":36,
					"material":5
				}
			]
		}
	],
	"textures":[
		{
			"sampler":0,
			"source":0
		},
		{
			"sampler":0,
			"source":1
		},
		{
			"sampler":0,
			"source":2
		},
		{
			"sampler":0,
			"source":2
		},
		{
			"sampler":0,
			"source":3
		},
		{
			"sampler":0,
			"source":4
		}
	],
	"images":[
		{
			"mimeType":"image/png",
			"name":"Culata.png",
			"uri":"../../texturas/Culata.png"
		},
		{
			"mimeType":"image/png",
			"name":"psadera.png",
			"uri":"../../texturas/psadera.png"
		},
		{
			"mimeType":"image/png",
			"name":"Ca\u00f1on-Recovered.png",
			"uri":"../../texturas/Ca%C3%B1on-Recovered.png"
		},
		{
			"mimeType":"image/png",
			"name":"relder.png",
			"uri":"../../texturas/relder.png"
		},
		{
			"mimeType":"image/png",
			"name":"relizq.png",
			"uri":"../../texturas/relizq.png"
		}
	],
	"skins":[
		{
			"inverseBindMatrices":6,
			"joints":[
				0,
				1
			],
			"name":"Armature"
		}
	],
	"accessors":[
		{
			"bufferView":0,
			"componentType":5126,
			"count":508,
			"max":[
				0.03567517176270485,
				0.5351858735084534,
				2.0973262786865234
			],
			"min":[
				-0.03567517176270485,
				-0.21830444037914276,
				0.015906158834695816
			],
			"type":"VEC3"
		},
		{
			"bufferView":1,
			"componentType":5126,
			"count":508,
			"type":"VEC3"
		},
		{
			"bufferView":2,
			"componentType":5126,
			"count":508,
			"type":"VEC2"
		},
		{
			"bufferView":3,
			"componentType":5121,
			"count":508,
			"type":"VEC4"
		},
		{
			"bufferView":4,
			"componentType":5126,
			"count":508,
			"type":"VEC4"
		},
		{
			"bufferView":5,
			"componentType":5123,
			"count":1044,
			"type":"SCALAR"
		},
		{
			"bufferView":6,
			"componentType":5126,
			"count":2,
			"type":"MAT4"
		},
		{
			"bufferView":7,
			"componentType":5126,
			"count":72,
			"max":[
				0.09271848201751709,
				0.4905620515346527,
				0.017569525167346
			],
			"min":[
				-0.09271848201751709,
				0.3576185405254364,
				-0.8062504529953003
			],
			"type":"VEC3"
		},
		{
			"bufferView":8,
			"componentType":5126,
			"count":72,
			"type":"VEC3"
		},
		{
			"bufferView":9,
			"componentType":5126,
			"count":72,
			"type":"VEC2"
		},
		{
			"bufferView":10,
			"componentType":5126,
			"count":72,
			"type":"VEC4"
		},
		{
			"bufferView":11,
			"componentType":5121,
			"count":72,
			"type":"VEC4"
		},
		{
			"bufferView":12,
			"componentType":5126,
			"count":72,
			"type":"VEC4"
		},
		{
			"bufferView":13,
			"componentType":5123,
			"count":108,
			"type":"SCALAR"
		},
		{
			"bufferView":14,
			"componentType":5126,
			"count":192,
			"max":[
				0.08632370829582214,
				0.5433028340339661,
				0.306907057762146
			],
			"min":[
				-0.000135030597448349,
				0.4568440616130829,
				-2.6500799655914307
			],
			"type":"VEC3"
		},
		{
			"bufferView":15,
			"componentType":5126,
			"count":192,
			"type":"VEC3"
		},
		{
			"bufferView":16,
			"componentType":5126,
			"count":192,
			"type":"VEC2"
		},
		{
			"bufferView":17,
			"componentType":5121,
			"count":192,
			"type":"VEC4"
		},
		{
			"bufferView":18,
			"componentType":5126,
			"count":192,
			"type":"VEC4"
		},
		{
			"bufferView":19,
			"componentType":5123,
			"count":372,
			"type":"SCALAR"
		},
		{
			"bufferView":20,
			"componentType":5126,
			"count":192,
			"max":[
				-0.000645902007818222,
				0.5433028340339661,
				0.306907057762146
			],
			"min":[
				-0.08710464090108871,
				0.4568440616130829,
				-2.6500799655914307
			],
			"type":"VEC3"
		},
		{
			"bufferView":21,
			"componentType":5126,
			"count":192,
			"type":"VEC3"
		},
		{
			"bufferView":22,
			"componentType":5126,
			"count":192,
			"type":"VEC2"
		},
		{
			"bufferView":23,
			"componentType":5121,
			"count":192,
			"type":"VEC4"
		},
		{
			"bufferView":24,
			"componentType":5126,
			"count":192,
			"type":"VEC4"
		},
		{
			"bufferView":25,
			"componentType":5126,
			"count":1017,
			"max":[
				0.08698514103889465,
				0.5436036586761475,
				0.3566525876522064
			],
			"min":[
				-0.012986411340534687,
				0.45437949895858765,
				0.306666761636734
			],
			"type":"VEC3"
		},
		{
			"bufferView":26,
			"componentType":5126,
			"count":1017,
			"type":"VEC3"
		},
		{
			"bufferView":27,
			"componentType":5126,
			"count":1017,
			"type":"VEC2"
		},
		{
			"bufferView":28,
			"componentType":5121,
			"count":1017,
			"type":"VEC4"
		},
		{
			"bufferView":29,
			"componentType":5126,
			"count":1017,
			"type":"VEC4"
		},
		{
			"bufferView":30,
			"componentType":5123,
			"count":1509,
			"type":"SCALAR"
		},
		{
			"bufferView":31,
			"componentType":5126,
			"count":1017,
			"max":[
				0.012986443936824799,
				0.5436036586761475,
				0.3566525876522064
			],
			"min":[
				-0.08698511123657227,
				0.45437949895858765,
				0.306666761636734
			],
			"type":"VEC3"
		},
		{
			"bufferView":32,
			"componentType":5126,
			"count":1017,
			"type":"VEC3"
		},
		{
			"bufferView":33,
			"componentType":5126,
			"count":1017,
			"type":"VEC2"
		},
		{
			"bufferView":34,
			"componentType":5121,
			"count":1017,
			"type":"VEC4"
		},
		{
			"bufferView":35,
			"componentType":5126,
			"count":1017,
			"type":"VEC4"
		},
		{
			"bufferView":36,
			"componentType":5123,
			"count":1509,
			"type":"SCALAR"
		},
		{
			"bufferView":37,
			"componentType":5126,
			"count":2,
			"max":[
				0.125
			],
			"min":[
				0.041666666666666664
			],
			"type":"SCALAR"
		},
		{
			"bufferView":38,
			"componentType":5126,
			"count":2,
			"type":"VEC3"
		},
		{
			"bufferView":39,
			"componentType":5126,
			"count":2,
			"type":"VEC4"
		},
		{
			"bufferView":40,
			"componentType":5126,
			"count":2,
			"type":"VEC3"
		},
		{
			"bufferView":41,
			"componentType":5126,
			"count":2,
			"type":"VEC3"
		},
		{
			"bufferView":42,
			"componentType":5126,
			"count":3,
			"max":[
				0.125
			],
			"min":[
				0.041666666666666664
			],
			"type":"SCALAR"
		},
		{
			"bufferView":43,
			"componentType":5126,
			"count":3,
			"type":"VEC4"
		},
		{
			"bufferView":44,
			"componentType":5126,
			"count":2,
			"type":"VEC3"
		}
	],
	"bufferViews":[
		{
			"buffer":0,
			"byteLength":6096,
			"byteOffset":0,
			"target":34962
		},
		{
			"buffer":0,
			"byteLength":6096,
			"byteOffset":6096,
			"target":34962
		},
		{
			"buffer":0,
			"byteLength":4064,
			"byteOffset":12192,
			"target":34962
		},
		{
			"buffer":0,
			"byteLength":2032,
			"byteOffset":16256,
			"target":34962
		},
		{
			"buffer":0,
			"byteLength":8128,
			"byteOffset":18288,
			"target":34962
		},
		{
			"buffer":0,
			"byteLength":2088,
			"byteOffset":26416,
			"target":34963
		},
		{
			"buffer":0,
			"byteLength":128,
			"byteOffset":28504
		},
		{
			"buffer":0,
			"byteLength":864,
			"byteOffset":28632,
			"target":34962
		},
		{
			"buffer":0,
			"byteLength":864,
			"byteOffset":29496,
			"target":34962
		},
		{
			"buffer":0,
			"byteLength":576,
			"byteOffset":30360,
			"target":34962
		},
		{
			"buffer":0,
			"byteLength":1152,
			"byteOffset":30936,
			"target":34962
		},
		{
			"buffer":0,
			"byteLength":288,
			"byteOffset":32088,
			"target":34962
		},
		{
			"buffer":0,
			"byteLength":1152,
			"byteOffset":32376,
			"target":34962
		},
		{
			"buffer":0,
			"byteLength":216,
			"byteOffset":33528,
			"target":34963
		},
		{
			"buffer":0,
			"byteLength":2304,
			"byteOffset":33744,
			"target":34962
		},
		{
			"buffer":0,
			"byteLength":2304,
			"byteOffset":36048,
			"target":34962
		},
		{
			"buffer":0,
			"byteLength":1536,
			"byteOffset":38352,
			"target":34962
		},
		{
			"buffer":0,
			"byteLength":768,
			"byteOffset":39888,
			"target":34962
		},
		{
			"buffer":0,
			"byteLength":3072,
			"byteOffset":40656,
			"target":34962
		},
		{
			"buffer":0,
			"byteLength":744,
			"byteOffset":43728,
			"target":34963
		},
		{
			"buffer":0,
			"byteLength":2304,
			"byteOffset":44472,
			"target":34962
		},
		{
			"buffer":0,
			"byteLength":2304,
			"byteOffset":46776,
			"target":34962
		},
		{
			"buffer":0,
			"byteLength":1536,
			"byteOffset":49080,
			"target":34962
		},
		{
			"buffer":0,
			"byteLength":768,
			"byteOffset":50616,
			"target":34962
		},
		{
			"buffer":0,
			"byteLength":3072,
			"byteOffset":51384,
			"target":34962
		},
		{
			"buffer":0,
			"byteLength":12204,
			"byteOffset":54456,
			"target":34962
		},
		{
			"buffer":0,
			"byteLength":12204,
			"byteOffset":66660,
			"target":34962
		},
		{
			"buffer":0,
			"byteLength":8136,
			"byteOffset":78864,
			"target":34962
		},
		{
			"buffer":0,
			"byteLength":4068,
			"byteOffset":87000,
			"target":34962
		},
		{
			"buffer":0,
			"byteLength":16272,
			"byteOffset":91068,
			"target":34962
		},
		{
			"buffer":0,
			"byteLength":3018,
			"byteOffset":107340,
			"target":34963
		},
		{
			"buffer":0,
			"byteLength":12204,
			"byteOffset":110360,
			"target":34962
		},
		{
			"buffer":0,
			"byteLength":12204,
			"byteOffset":122564,
			"target":34962
		},
		{
			"buffer":0,
			"byteLength":8136,
			"byteOffset":134768,
			"target":34962
		},
		{
			"buffer":0,
			"byteLength":4068,
			"byteOffset":142904,
			"target":34962
		},
		{
			"buffer":0,
			"byteLength":16272,
			"byteOffset":146972,
			"target":34962
		},
		{
			"buffer":0,
			"byteLength":3018,
			"byteOffset":163244,
			"target":34963
		},
		{
			"buffer":0,
			"byteLength":8,
			"byteOffset":166264
		},
		{
			"buffer":0,
			"byteLength":24,
			"byteOffset":166272
		},
		{
			"buffer":0,
			"byteLength":32,
			"byteOffset":166296
		},
		{
			"buffer":0,
			"byteLength":24,
			"byteOffset":166328
		},
		{
			"buffer":0,
			"byteLength":24,
			"byteOffset":166352
		},
		{
			"buffer":0,
			"byteLength":12,
			"byteOffset":166376
		},
		{
			"buffer":0,
			"byteLength":48,
			"byteOffset":166388
		},
		{
			"buffer":0,
			"byteLength":24,
			"byteOffset":166436
		}
	],
	"samplers":[
		{
			"magFilter":9728,
			"minFilter":9984
		}
	],
	"buffers":[
		{
			"byteLength":166460,
			"uri":"doble%20ca%C3%B1on-91d69ab41b0a4f6389ea9e09cea8f830.bin"
		}
	]
}
