{
	"asset":{
		"generator":"Khronos glTF Blender I/O v4.5.48",
		"version":"2.0"
	},
	"scene":0,
	"scenes":[
		{
			"name":"Scene",
			"nodes":[
				0,
				1,
				2,
				3,
				4,
				5,
				6,
				7,
				8,
				9,
				10,
				11,
				12
			]
		}
	],
	"nodes":[
		{
			"mesh":0,
			"name":"Cube"
		},
		{
			"mesh":1,
			"name":"Cube.002",
			"scale":[
				8.246868133544922,
				0.048661112785339355,
				3.6529505252838135
			],
			"translation":[
				-2.5552070140838623,
				2.1397085189819336,
				-0.017695054411888123
			]
		},
		{
			"mesh":2,
			"name":"Cube.003",
			"scale":[
				0.06793726235628128,
				1.4616758823394775,
				1.8045845031738281
			],
			"translation":[
				-10.849453926086426,
				0.6384584903717041,
				1.8108489513397217
			]
		},
		{
			"mesh":3,
			"name":"Cube.005",
			"scale":[
				1.8870638608932495,
				0.05222801864147186,
				1.7987158298492432
			],
			"translation":[
				-12.80324935913086,
				2.085151195526123,
				1.8243765830993652
			]
		},
		{
			"mesh":4,
			"name":"Cube.001",
			"scale":[
				18.76808738708496,
				0.05175648257136345,
				1.659876823425293
			],
			"translation":[
				-13.01138687133789,
				2.1498258113861084,
				-5.389090061187744
			]
		},
		{
			"mesh":5,
			"name":"Cube.004",
			"scale":[
				1.883523941040039,
				1,
				1
			],
			"translation":[
				-29.808032989501953,
				-1.8110167980194092,
				-2.770310640335083
			]
		},
		{
			"mesh":6,
			"name":"Cube.006",
			"translation":[
				-31.79462432861328,
				0.6945972442626953,
				-2.7838802337646484
			]
		},
		{
			"mesh":7,
			"name":"Cube.007",
			"rotation":[
				0,
				-1,
				0,
				1.6292068494294654e-07
			],
			"translation":[
				-27.823284149169922,
				0.6945972442626953,
				7.3132004737854
			]
		},
		{
			"mesh":8,
			"name":"Cube.008",
			"scale":[
				1.8607014417648315,
				0.1481696367263794,
				2.033907175064087
			],
			"translation":[
				-29.780624389648438,
				-0.5337127447128296,
				6.258795738220215
			]
		},
		{
			"mesh":9,
			"name":"Cube.009",
			"scale":[
				1.8607014417648315,
				0.1481696367263794,
				2.033907175064087
			],
			"translation":[
				-29.780624389648438,
				-0.5337127447128296,
				2.383765697479248
			]
		},
		{
			"mesh":10,
			"name":"Cube.010",
			"rotation":[
				0,
				0,
				-1,
				0
			],
			"scale":[
				-1.85270094871521,
				-1,
				-0.05118203163146973
			],
			"translation":[
				-29.841392517089844,
				-3.274813175201416,
				8.179701805114746
			]
		},
		{
			"mesh":11,
			"name":"Cube.011",
			"translation":[
				-26.92205810546875,
				-5.287818431854248,
				6.705447196960449
			]
		},
		{
			"mesh":12,
			"name":"Cube.012",
			"scale":[
				6.279664993286133,
				0.10000002384185791,
				9.763140678405762
			],
			"translation":[
				-21.466524124145508,
				2.091384172439575,
				6.271215438842773
			]
		}
	],
	"materials":[
		{
			"doubleSided":true,
			"name":"Material",
			"pbrMetallicRoughness":{
				"baseColorFactor":[
					0.800000011920929,
					0.800000011920929,
					0.800000011920929,
					1
				],
				"metallicFactor":0,
				"roughnessFactor":0.5
			}
		},
		{
			"doubleSided":true,
			"name":"Material.001",
			"pbrMetallicRoughness":{
				"baseColorTexture":{
					"index":0
				},
				"metallicFactor":0
			}
		},
		{
			"doubleSided":true,
			"name":"Material.002",
			"pbrMetallicRoughness":{
				"baseColorFactor":[
					0,
					0,
					0,
					1
				],
				"metallicFactor":0
			}
		},
		{
			"doubleSided":true,
			"name":"Material.003",
			"pbrMetallicRoughness":{
				"baseColorTexture":{
					"index":1
				},
				"metallicFactor":0
			}
		},
		{
			"doubleSided":true,
			"name":"Material.005",
			"pbrMetallicRoughness":{
				"baseColorTexture":{
					"index":2
				},
				"metallicFactor":0
			}
		},
		{
			"doubleSided":true,
			"name":"Material.006",
			"pbrMetallicRoughness":{
				"baseColorTexture":{
					"index":3
				},
				"metallicFactor":0
			}
		},
		{
			"doubleSided":true,
			"name":"Material.007",
			"pbrMetallicRoughness":{
				"baseColorTexture":{
					"index":4
				},
				"metallicFactor":0
			}
		},
		{
			"doubleSided":true,
			"name":"Material.013",
			"pbrMetallicRoughness":{
				"baseColorTexture":{
					"index":5
				},
				"metallicFactor":0
			}
		},
		{
			"doubleSided":true,
			"name":"Material.014",
			"pbrMetallicRoughness":{
				"baseColorTexture":{
					"index":6
				},
				"metallicFactor":0
			}
		},
		{
			"doubleSided":true,
			"name":"Material.004",
			"pbrMetallicRoughness":{
				"baseColorTexture":{
					"index":7
				},
				"metallicFactor":0
			}
		},
		{
			"doubleSided":true,
			"name":"Material.018",
			"pbrMetallicRoughness":{
				"baseColorTexture":{
					"index":8
				},
				"metallicFactor":0
			}
		},
		{
			"doubleSided":true,
			"name":"Material.008",
			"pbrMetallicRoughness":{
				"baseColorTexture":{
					"index":9
				},
				"metallicFactor":0
			}
		},
		{
			"doubleSided":true,
			"name":"Material.009",
			"pbrMetallicRoughness":{
				"baseColorTexture":{
					"index":10
				},
				"metallicFactor":0
			}
		},
		{
			"doubleSided":true,
			"name":"Material.010",
			"pbrMetallicRoughness":{
				"baseColorFactor":[
					0.800000011920929,
					0.800000011920929,
					0.800000011920929,
					1
				],
				"metallicFactor":0,
				"roughnessFactor":0.5
			}
		},
		{
			"doubleSided":true,
			"name":"Material.011",
			"pbrMetallicRoughness":{
				"baseColorFactor":[
					0,
					0,
					0,
					1
				],
				"metallicFactor":0
			}
		},
		{
			"doubleSided":true,
			"name":"Material.012",
			"pbrMetallicRoughness":{
				"baseColorTexture":{
					"index":11
				},
				"metallicFactor":0
			}
		},
		{
			"doubleSided":true,
			"name":"Material.017",
			"pbrMetallicRoughness":{
				"baseColorTexture":{
					"index":12
				},
				"metallicFactor":0
			}
		},
		{
			"doubleSided":true,
			"name":"Material.019",
			"pbrMetallicRoughness":{
				"baseColorTexture":{
					"index":13
				},
				"metallicFactor":0
			}
		},
		{
			"doubleSided":true,
			"name":"Material.020",
			"pbrMetallicRoughness":{
				"baseColorFactor":[
					0.800000011920929,
					0.800000011920929,
					0.800000011920929,
					1
				],
				"metallicFactor":0,
				"roughnessFactor":0.5
			}
		},
		{
			"doubleSided":true,
			"name":"Material.022",
			"pbrMetallicRoughness":{
				"baseColorTexture":{
					"index":14
				},
				"metallicFactor":0
			}
		},
		{
			"doubleSided":true,
			"name":"Material.015",
			"pbrMetallicRoughness":{
				"baseColorTexture":{
					"index":15
				},
				"metallicFactor":0
			}
		},
		{
			"doubleSided":true,
			"name":"Material.016",
			"pbrMetallicRoughness":{
				"baseColorTexture":{
					"index":16
				},
				"metallicFactor":0
			}
		},
		{
			"doubleSided":true,
			"name":"Material.023",
			"pbrMetallicRoughness":{
				"baseColorFactor":[
					0.800000011920929,
					0.800000011920929,
					0.800000011920929,
					1
				],
				"metallicFactor":0,
				"roughnessFactor":0.5
			}
		},
		{
			"doubleSided":true,
			"name":"Material.024",
			"pbrMetallicRoughness":{
				"baseColorFactor":[
					0,
					0,
					0,
					1
				],
				"metallicFactor":0
			}
		},
		{
			"doubleSided":true,
			"name":"Material.025",
			"pbrMetallicRoughness":{
				"baseColorTexture":{
					"index":17
				},
				"metallicFactor":0
			}
		},
		{
			"doubleSided":true,
			"name":"Material.026",
			"pbrMetallicRoughness":{
				"baseColorFactor":[
					0.800000011920929,
					0.800000011920929,
					0.800000011920929,
					1
				],
				"metallicFactor":0,
				"roughnessFactor":0.5
			}
		},
		{
			"doubleSided":true,
			"name":"Material.027",
			"pbrMetallicRoughness":{
				"baseColorFactor":[
					0,
					0,
					0,
					1
				],
				"metallicFactor":0
			}
		},
		{
			"doubleSided":true,
			"name":"Material.028",
			"pbrMetallicRoughness":{
				"baseColorTexture":{
					"index":18
				},
				"metallicFactor":0
			}
		},
		{
			"doubleSided":true,
			"name":"Material.037",
			"pbrMetallicRoughness":{
				"baseColorTexture":{
					"index":19
				},
				"metallicFactor":0
			}
		},
		{
			"doubleSided":true,
			"name":"Material.029",
			"pbrMetallicRoughness":{
				"baseColorFactor":[
					0.800000011920929,
					0.800000011920929,
					0.800000011920929,
					1
				],
				"metallicFactor":0,
				"roughnessFactor":0.5
			}
		},
		{
			"doubleSided":true,
			"name":"Material.030",
			"pbrMetallicRoughness":{
				"baseColorTexture":{
					"index":20
				},
				"metallicFactor":0
			}
		},
		{
			"doubleSided":true,
			"name":"Material.033",
			"pbrMetallicRoughness":{
				"baseColorFactor":[
					0.800000011920929,
					0.800000011920929,
					0.800000011920929,
					1
				],
				"metallicFactor":0,
				"roughnessFactor":0.5
			}
		},
		{
			"doubleSided":true,
			"name":"Material.034",
			"pbrMetallicRoughness":{
				"baseColorTexture":{
					"index":21
				},
				"metallicFactor":0
			}
		},
		{
			"doubleSided":true,
			"name":"Material.035",
			"pbrMetallicRoughness":{
				"baseColorFactor":[
					0.800000011920929,
					0.800000011920929,
					0.800000011920929,
					1
				],
				"metallicFactor":0,
				"roughnessFactor":0.5
			}
		},
		{
			"doubleSided":true,
			"name":"Material.036",
			"pbrMetallicRoughness":{
				"baseColorTexture":{
					"index":22
				},
				"metallicFactor":0
			}
		},
		{
			"doubleSided":true,
			"name":"Material.031",
			"pbrMetallicRoughness":{
				"metallicFactor":0
			}
		},
		{
			"doubleSided":true,
			"name":"Material.032",
			"pbrMetallicRoughness":{
				"baseColorTexture":{
					"index":23
				},
				"metallicFactor":0
			}
		},
		{
			"doubleSided":true,
			"name":"Material.045",
			"pbrMetallicRoughness":{
				"baseColorFactor":[
					0,
					0,
					0,
					1
				],
				"metallicFactor":0
			}
		},
		{
			"doubleSided":true,
			"name":"Material.041",
			"pbrMetallicRoughness":{
				"baseColorFactor":[
					0.800000011920929,
					0.800000011920929,
					0.800000011920929,
					1
				],
				"metallicFactor":0,
				"roughnessFactor":0.5
			}
		},
		{
			"doubleSided":true,
			"name":"Material.039",
			"pbrMetallicRoughness":{
				"baseColorFactor":[
					0.800000011920929,
					0.800000011920929,
					0.800000011920929,
					1
				],
				"metallicFactor":0,
				"roughnessFactor":0.5
			}
		},
		{
			"doubleSided":true,
			"name":"Material.040",
			"pbrMetallicRoughness":{
				"baseColorTexture":{
					"index":24
				},
				"metallicFactor":0
			}
		}
	],
	"meshes":[
		{
			"name":"Cube",
			"primitives":[
				{
					"attributes":{
						"POSITION":0,
						"NORMAL":1,
						"TEXCOORD_0":2
					},
					"indices":3,
					"material":0
				},
				{
					"attributes":{
						"POSITION":4,
						"NORMAL":5,
						"TEXCOORD_0":6
					},
					"indices":7,
					"material":1
				},
				{
					"attributes":{
						"POSITION":8,
						"NORMAL":9,
						"TEXCOORD_0":10
					},
					"indices":11,
					"material":2
				},
				{
					"attributes":{
						"POSITION":12,
						"NORMAL":13,
						"TEXCOORD_0":14
					},
					"indices":15,
					"material":3
				},
				{
					"attributes":{
						"POSITION":16,
						"NORMAL":17,
						"TEXCOORD_0":18
					},
					"indices":19,
					"material":4
				},
				{
					"attributes":{
						"POSITION":20,
						"NORMAL":21,
						"TEXCOORD_0":22
					},
					"indices":23,
					"material":5
				},
				{
					"attributes":{
						"POSITION":24,
						"NORMAL":25,
						"TEXCOORD_0":26
					},
					"indices":27,
					"material":6
				},
				{
					"attributes":{
						"POSITION":28,
						"NORMAL":29,
						"TEXCOORD_0":30
					},
					"indices":31,
					"material":7
				},
				{
					"attributes":{
						"POSITION":32,
						"NORMAL":33,
						"TEXCOORD_0":34
					},
					"indices":35,
					"material":8
				},
				{
					"attributes":{
						"POSITION":36,
						"NORMAL":37,
						"TEXCOORD_0":38
					},
					"indices":39,
					"material":9
				},
				{
					"attributes":{
						"POSITION":40,
						"NORMAL":41,
						"TEXCOORD_0":42
					},
					"indices":43,
					"material":10
				}
			]
		},
		{
			"name":"Cube.002",
			"primitives":[
				{
					"attributes":{
						"POSITION":44,
						"NORMAL":45,
						"TEXCOORD_0":46,
						"TANGENT":47
					},
					"indices":48,
					"material":11
				}
			]
		},
		{
			"name":"Cube.003",
			"primitives":[
				{
					"attributes":{
						"POSITION":49,
						"NORMAL":50,
						"TEXCOORD_0":51
					},
					"indices":52,
					"material":12
				},
				{
					"attributes":{
						"POSITION":53,
						"NORMAL":54,
						"TEXCOORD_0":55
					},
					"indices":56,
					"material":13
				},
				{
					"attributes":{
						"POSITION":57,
						"NORMAL":58,
						"TEXCOORD_0":59
					},
					"indices":60,
					"material":14
				},
				{
					"attributes":{
						"POSITION":61,
						"NORMAL":62,
						"TEXCOORD_0":63
					},
					"indices":64,
					"material":15
				}
			]
		},
		{
			"name":"Cube.005",
			"primitives":[
				{
					"attributes":{
						"POSITION":65,
						"NORMAL":66,
						"TEXCOORD_0":67,
						"TANGENT":68
					},
					"indices":48,
					"material":16
				}
			]
		},
		{
			"name":"Cube.001",
			"primitives":[
				{
					"attributes":{
						"POSITION":69,
						"NORMAL":70,
						"TEXCOORD_0":71,
						"TANGENT":72
					},
					"indices":48,
					"material":17
				}
			]
		},
		{
			"name":"Cube.004",
			"primitives":[
				{
					"attributes":{
						"POSITION":73,
						"NORMAL":74,
						"TEXCOORD_0":75
					},
					"indices":76,
					"material":18
				},
				{
					"attributes":{
						"POSITION":77,
						"NORMAL":78,
						"TEXCOORD_0":79
					},
					"indices":80,
					"material":19
				},
				{
					"attributes":{
						"POSITION":81,
						"NORMAL":82,
						"TEXCOORD_0":83
					},
					"indices":84,
					"material":20
				},
				{
					"attributes":{
						"POSITION":85,
						"NORMAL":86,
						"TEXCOORD_0":87
					},
					"indices":88,
					"material":21
				}
			]
		},
		{
			"name":"Cube.006",
			"primitives":[
				{
					"attributes":{
						"POSITION":89,
						"NORMAL":90,
						"TEXCOORD_0":91,
						"TANGENT":92
					},
					"indices":93,
					"material":22
				},
				{
					"attributes":{
						"POSITION":94,
						"NORMAL":95,
						"TEXCOORD_0":96,
						"TANGENT":97
					},
					"indices":98,
					"material":23
				},
				{
					"attributes":{
						"POSITION":99,
						"NORMAL":100,
						"TEXCOORD_0":101,
						"TANGENT":102
					},
					"indices":98,
					"material":24
				}
			]
		},
		{
			"name":"Cube.007",
			"primitives":[
				{
					"attributes":{
						"POSITION":103,
						"NORMAL":104,
						"TEXCOORD_0":105,
						"TANGENT":106
					},
					"indices":107,
					"material":25
				},
				{
					"attributes":{
						"POSITION":108,
						"NORMAL":109,
						"TEXCOORD_0":110,
						"TANGENT":111
					},
					"indices":112,
					"material":26
				},
				{
					"attributes":{
						"POSITION":113,
						"NORMAL":114,
						"TEXCOORD_0":115,
						"TANGENT":116
					},
					"indices":117,
					"material":27
				},
				{
					"attributes":{
						"POSITION":118,
						"NORMAL":119,
						"TEXCOORD_0":120,
						"TANGENT":121
					},
					"indices":122,
					"material":28
				}
			]
		},
		{
			"name":"Cube.008",
			"primitives":[
				{
					"attributes":{
						"POSITION":123,
						"NORMAL":124,
						"TEXCOORD_0":125,
						"TANGENT":126
					},
					"indices":127,
					"material":29
				},
				{
					"attributes":{
						"POSITION":128,
						"NORMAL":129,
						"TEXCOORD_0":130,
						"TANGENT":131
					},
					"indices":132,
					"material":30
				}
			]
		},
		{
			"name":"Cube.010",
			"primitives":[
				{
					"attributes":{
						"POSITION":133,
						"NORMAL":134,
						"TEXCOORD_0":135,
						"TANGENT":136
					},
					"indices":127,
					"material":31
				},
				{
					"attributes":{
						"POSITION":137,
						"NORMAL":138,
						"TEXCOORD_0":139,
						"TANGENT":140
					},
					"indices":132,
					"material":32
				}
			]
		},
		{
			"name":"Cube.009",
			"primitives":[
				{
					"attributes":{
						"POSITION":141,
						"NORMAL":142,
						"TEXCOORD_0":143,
						"TANGENT":144
					},
					"indices":145,
					"material":33
				},
				{
					"attributes":{
						"POSITION":146,
						"NORMAL":147,
						"TEXCOORD_0":148,
						"TANGENT":149
					},
					"indices":98,
					"material":34
				}
			]
		},
		{
			"name":"Cube.011",
			"primitives":[
				{
					"attributes":{
						"POSITION":150,
						"NORMAL":151,
						"TEXCOORD_0":152
					},
					"indices":153,
					"material":35
				},
				{
					"attributes":{
						"POSITION":154,
						"NORMAL":155,
						"TEXCOORD_0":156
					},
					"indices":157,
					"material":36
				},
				{
					"attributes":{
						"POSITION":158,
						"NORMAL":159,
						"TEXCOORD_0":160
					},
					"indices":161,
					"material":37
				},
				{
					"attributes":{
						"POSITION":162,
						"NORMAL":163,
						"TEXCOORD_0":164
					},
					"indices":165,
					"material":38
				}
			]
		},
		{
			"name":"Cube.012",
			"primitives":[
				{
					"attributes":{
						"POSITION":166,
						"NORMAL":167,
						"TEXCOORD_0":168,
						"TANGENT":169
					},
					"indices":170,
					"material":39
				},
				{
					"attributes":{
						"POSITION":171,
						"NORMAL":172,
						"TEXCOORD_0":173,
						"TANGENT":174
					},
					"indices":175,
					"material":40
				}
			]
		}
	],
	"textures":[
		{
			"sampler":0,
			"source":0
		},
		{
			"sampler":0,
			"source":1
		},
		{
			"sampler":0,
			"source":2
		},
		{
			"sampler":0,
			"source":3
		},
		{
			"sampler":0,
			"source":4
		},
		{
			"sampler":0,
			"source":5
		},
		{
			"sampler":0,
			"source":6
		},
		{
			"sampler":0,
			"source":7
		},
		{
			"sampler":0,
			"source":8
		},
		{
			"sampler":0,
			"source":9
		},
		{
			"sampler":0,
			"source":3
		},
		{
			"sampler":1,
			"source":5
		},
		{
			"sampler":0,
			"source":10
		},
		{
			"sampler":0,
			"source":11
		},
		{
			"sampler":0,
			"source":12
		},
		{
			"sampler":0,
			"source":13
		},
		{
			"sampler":0,
			"source":14
		},
		{
			"sampler":0,
			"source":8
		},
		{
			"sampler":0,
			"source":15
		},
		{
			"sampler":0,
			"source":16
		},
		{
			"sampler":0,
			"source":11
		},
		{
			"sampler":0,
			"source":17
		},
		{
			"sampler":0,
			"source":8
		},
		{
			"sampler":0,
			"source":18
		},
		{
			"sampler":1,
			"source":19
		}
	],
	"images":[
		{
			"mimeType":"image/png",
			"name":"tepiz001.png",
			"uri":"../../texturas/tepiz001.png"
		},
		{
			"mimeType":"image/png",
			"name":"Piso_alfombra.png",
			"uri":"../../texturas/Piso_alfombra.png"
		},
		{
			"mimeType":"image/png",
			"name":"muro.png",
			"uri":"../../texturas/muro.png"
		},
		{
			"mimeType":"image/png",
			"name":"MUROS_dormitorio.png",
			"uri":"../../texturas/MUROS_dormitorio.png"
		},
		{
			"mimeType":"image/png",
			"name":"piso_dormitorio.png",
			"uri":"../../texturas/piso_dormitorio.png"
		},
		{
			"mimeType":"image/png",
			"name":"muro_1.png",
			"uri":"../../texturas/muro_1.png"
		},
		{
			"mimeType":"image/png",
			"name":"piso alcantarilla.png",
			"uri":"../../texturas/piso%20alcantarilla.png"
		},
		{
			"mimeType":"image/png",
			"name":"piso_pasadiso.png",
			"uri":"../../texturas/piso_pasadiso.png"
		},
		{
			"mimeType":"image/png",
			"name":"muros_pasadisopng.png",
			"uri":"../../texturas/muros_pasadisopng.png"
		},
		{
			"mimeType":"image/png",
			"name":"techo.png",
			"uri":"../../texturas/techo.png"
		},
		{
			"mimeType":"image/png",
			"name":"techo_alcantarrilla.png",
			"uri":"../../texturas/techo_alcantarrilla.png"
		},
		{
			"mimeType":"image/png",
			"name":"techo_pasadizo.png",
			"uri":"../../texturas/techo_pasadizo.png"
		},
		{
			"mimeType":"image/png",
			"name":"piso_abajo.png",
			"uri":"../../texturas/piso_abajo.png"
		},
		{
			"mimeType":"image/png",
			"name":"escaleras.png",
			"uri":"../../texturas/escaleras.png"
		},
		{
			"mimeType":"image/png",
			"name":"escaleras_complemento.png",
			"uri":"../../texturas/escaleras_complemento.png"
		},
		{
			"mimeType":"image/png",
			"name":"muros_pasadisopng.png.001",
			"uri":"../../texturas/muros_pasadisopng.png"
		},
		{
			"mimeType":"image/png",
			"name":"muro_recepcion.png",
			"uri":"../../texturas/muro_recepcion.png"
		},
		{
			"mimeType":"image/png",
			"name":"techo_pasadizo.png.002",
			"uri":"../../texturas/techo_pasadizo.png"
		},
		{
			"mimeType":"image/png",
			"name":"piso_recepccion.png",
			"uri":"../../texturas/piso_recepccion.png"
		},
		{
			"mimeType":"image/png",
			"name":"techo_recepccion.png",
			"uri":"../../texturas/techo_recepccion.png"
		}
	],
	"accessors":[
		{
			"bufferView":0,
			"componentType":5126,
			"count":442,
			"max":[
				5.900000095367432,
				2.0999999046325684,
				3.7700002193450928
			],
			"min":[
				-31.899999618530273,
				-1,
				-7.178091526031494
			],
			"type":"VEC3"
		},
		{
			"bufferView":1,
			"componentType":5126,
			"count":442,
			"type":"VEC3"
		},
		{
			"bufferView":2,
			"componentType":5126,
			"count":442,
			"type":"VEC2"
		},
		{
			"bufferView":3,
			"componentType":5123,
			"count":1575,
			"type":"SCALAR"
		},
		{
			"bufferView":4,
			"componentType":5126,
			"count":76,
			"max":[
				5.709677219390869,
				2.0999999046325684,
				3.6205523014068604
			],
			"min":[
				-5.769493103027344,
				-0.8000000715255737,
				-3.593705177307129
			],
			"type":"VEC3"
		},
		{
			"bufferView":5,
			"componentType":5126,
			"count":76,
			"type":"VEC3"
		},
		{
			"bufferView":6,
			"componentType":5126,
			"count":76,
			"type":"VEC2"
		},
		{
			"bufferView":7,
			"componentType":5123,
			"count":240,
			"type":"SCALAR"
		},
		{
			"bufferView":8,
			"componentType":5126,
			"count":40,
			"max":[
				-3.004377841949463,
				2.0999999046325684,
				2.006362199783325
			],
			"min":[
				-27.899999618530273,
				-1,
				-3.7700002193450928
			],
			"type":"VEC3"
		},
		{
			"bufferView":9,
			"componentType":5126,
			"count":40,
			"type":"VEC3"
		},
		{
			"bufferView":10,
			"componentType":5126,
			"count":40,
			"type":"VEC2"
		},
		{
			"bufferView":11,
			"componentType":5123,
			"count":66,
			"type":"SCALAR"
		},
		{
			"bufferView":12,
			"componentType":5126,
			"count":36,
			"max":[
				5.709677219390869,
				-0.8000000715255737,
				3.6205523014068604
			],
			"min":[
				-5.769493103027344,
				-0.8000000715255737,
				-3.593705177307129
			],
			"type":"VEC3"
		},
		{
			"bufferView":13,
			"componentType":5126,
			"count":36,
			"type":"VEC3"
		},
		{
			"bufferView":14,
			"componentType":5126,
			"count":36,
			"type":"VEC2"
		},
		{
			"bufferView":15,
			"componentType":5123,
			"count":132,
			"type":"SCALAR"
		},
		{
			"bufferView":16,
			"componentType":5126,
			"count":38,
			"max":[
				2.2892069816589355,
				0.6590268611907959,
				3.6205523014068604
			],
			"min":[
				1.9091547727584839,
				-0.8000000715255737,
				-3.593705177307129
			],
			"type":"VEC3"
		},
		{
			"bufferView":17,
			"componentType":5126,
			"count":38,
			"type":"VEC3"
		},
		{
			"bufferView":18,
			"componentType":5126,
			"count":38,
			"type":"VEC2"
		},
		{
			"bufferView":19,
			"componentType":5123,
			"count":66,
			"type":"SCALAR"
		},
		{
			"bufferView":20,
			"componentType":5126,
			"count":36,
			"max":[
				-5.900000095367432,
				2.0999999046325684,
				3.6205523014068604
			],
			"min":[
				-10.779773712158203,
				-0.8000000715255737,
				-3.593705177307129
			],
			"type":"VEC3"
		},
		{
			"bufferView":21,
			"componentType":5126,
			"count":36,
			"type":"VEC3"
		},
		{
			"bufferView":22,
			"componentType":5126,
			"count":36,
			"type":"VEC2"
		},
		{
			"bufferView":23,
			"componentType":5123,
			"count":90,
			"type":"SCALAR"
		},
		{
			"bufferView":24,
			"componentType":5126,
			"count":12,
			"max":[
				-5.900000095367432,
				-0.8000000715255737,
				3.6205523014068604
			],
			"min":[
				-10.779773712158203,
				-0.8000000715255737,
				-3.593705177307129
			],
			"type":"VEC3"
		},
		{
			"bufferView":25,
			"componentType":5126,
			"count":12,
			"type":"VEC3"
		},
		{
			"bufferView":26,
			"componentType":5126,
			"count":12,
			"type":"VEC2"
		},
		{
			"bufferView":27,
			"componentType":5123,
			"count":30,
			"type":"SCALAR"
		},
		{
			"bufferView":28,
			"componentType":5126,
			"count":22,
			"max":[
				-10.779773712158203,
				2.0999999046325684,
				3.6205523014068604
			],
			"min":[
				-14.699999809265137,
				-0.8000000715255737,
				0.013423442840576172
			],
			"type":"VEC3"
		},
		{
			"bufferView":29,
			"componentType":5126,
			"count":22,
			"type":"VEC3"
		},
		{
			"bufferView":30,
			"componentType":5126,
			"count":22,
			"type":"VEC2"
		},
		{
			"bufferView":31,
			"componentType":5123,
			"count":51,
			"type":"SCALAR"
		},
		{
			"bufferView":32,
			"componentType":5126,
			"count":13,
			"max":[
				-10.779773712158203,
				-0.8000000715255737,
				3.6205523014068604
			],
			"min":[
				-14.699999809265137,
				-0.8000000715255737,
				0.013423681259155273
			],
			"type":"VEC3"
		},
		{
			"bufferView":33,
			"componentType":5126,
			"count":13,
			"type":"VEC3"
		},
		{
			"bufferView":34,
			"componentType":5126,
			"count":13,
			"type":"VEC2"
		},
		{
			"bufferView":35,
			"componentType":5123,
			"count":36,
			"type":"SCALAR"
		},
		{
			"bufferView":36,
			"componentType":5126,
			"count":22,
			"max":[
				5.709677219390869,
				-0.8000000715255737,
				-3.7700002193450928
			],
			"min":[
				-31.69999885559082,
				-0.8000000715255737,
				-7.007687091827393
			],
			"type":"VEC3"
		},
		{
			"bufferView":37,
			"componentType":5126,
			"count":22,
			"type":"VEC3"
		},
		{
			"bufferView":38,
			"componentType":5126,
			"count":22,
			"type":"VEC2"
		},
		{
			"bufferView":39,
			"componentType":5123,
			"count":60,
			"type":"SCALAR"
		},
		{
			"bufferView":40,
			"componentType":5126,
			"count":78,
			"max":[
				5.709677219390869,
				2.0999999046325684,
				-3.7700002193450928
			],
			"min":[
				-31.899999618530273,
				-0.8000000715255737,
				-7.178091526031494
			],
			"type":"VEC3"
		},
		{
			"bufferView":41,
			"componentType":5126,
			"count":78,
			"type":"VEC3"
		},
		{
			"bufferView":42,
			"componentType":5126,
			"count":78,
			"type":"VEC2"
		},
		{
			"bufferView":43,
			"componentType":5123,
			"count":198,
			"type":"SCALAR"
		},
		{
			"bufferView":44,
			"componentType":5126,
			"count":24,
			"max":[
				1,
				1,
				1
			],
			"min":[
				-1,
				-1,
				-1
			],
			"type":"VEC3"
		},
		{
			"bufferView":45,
			"componentType":5126,
			"count":24,
			"type":"VEC3"
		},
		{
			"bufferView":46,
			"componentType":5126,
			"count":24,
			"type":"VEC2"
		},
		{
			"bufferView":47,
			"componentType":5126,
			"count":24,
			"type":"VEC4"
		},
		{
			"bufferView":48,
			"componentType":5123,
			"count":36,
			"type":"SCALAR"
		},
		{
			"bufferView":49,
			"componentType":5126,
			"count":47,
			"max":[
				1.2640727758407593,
				1,
				1
			],
			"min":[
				-1,
				-1,
				-1
			],
			"type":"VEC3"
		},
		{
			"bufferView":50,
			"componentType":5126,
			"count":47,
			"type":"VEC3"
		},
		{
			"bufferView":51,
			"componentType":5126,
			"count":47,
			"type":"VEC2"
		},
		{
			"bufferView":52,
			"componentType":5123,
			"count":126,
			"type":"SCALAR"
		},
		{
			"bufferView":53,
			"componentType":5126,
			"count":45,
			"max":[
				1,
				1,
				1
			],
			"min":[
				-1,
				-1,
				-1
			],
			"type":"VEC3"
		},
		{
			"bufferView":54,
			"componentType":5126,
			"count":45,
			"type":"VEC3"
		},
		{
			"bufferView":55,
			"componentType":5126,
			"count":45,
			"type":"VEC2"
		},
		{
			"bufferView":56,
			"componentType":5123,
			"count":144,
			"type":"SCALAR"
		},
		{
			"bufferView":57,
			"componentType":5126,
			"count":56,
			"max":[
				1.2640727758407593,
				0.6592156887054443,
				0.5077914595603943
			],
			"min":[
				-1,
				-1,
				-0.5282148122787476
			],
			"type":"VEC3"
		},
		{
			"bufferView":58,
			"componentType":5126,
			"count":56,
			"type":"VEC3"
		},
		{
			"bufferView":59,
			"componentType":5126,
			"count":56,
			"type":"VEC2"
		},
		{
			"bufferView":60,
			"componentType":5123,
			"count":84,
			"type":"SCALAR"
		},
		{
			"bufferView":61,
			"componentType":5126,
			"count":32,
			"max":[
				-0.7359272241592407,
				1,
				1
			],
			"min":[
				-1,
				-1,
				-1
			],
			"type":"VEC3"
		},
		{
			"bufferView":62,
			"componentType":5126,
			"count":32,
			"type":"VEC3"
		},
		{
			"bufferView":63,
			"componentType":5126,
			"count":32,
			"type":"VEC2"
		},
		{
			"bufferView":64,
			"componentType":5123,
			"count":78,
			"type":"SCALAR"
		},
		{
			"bufferView":65,
			"componentType":5126,
			"count":24,
			"max":[
				1,
				1,
				1
			],
			"min":[
				-1,
				-1,
				-1
			],
			"type":"VEC3"
		},
		{
			"bufferView":66,
			"componentType":5126,
			"count":24,
			"type":"VEC3"
		},
		{
			"bufferView":67,
			"componentType":5126,
			"count":24,
			"type":"VEC2"
		},
		{
			"bufferView":68,
			"componentType":5126,
			"count":24,
			"type":"VEC4"
		},
		{
			"bufferView":69,
			"componentType":5126,
			"count":24,
			"max":[
				1,
				1,
				1
			],
			"min":[
				-1,
				-1,
				-1
			],
			"type":"VEC3"
		},
		{
			"bufferView":70,
			"componentType":5126,
			"count":24,
			"type":"VEC3"
		},
		{
			"bufferView":71,
			"componentType":5126,
			"count":24,
			"type":"VEC2"
		},
		{
			"bufferView":72,
			"componentType":5126,
			"count":24,
			"type":"VEC4"
		},
		{
			"bufferView":73,
			"componentType":5126,
			"count":101,
			"max":[
				1,
				1,
				10.899999618530273
			],
			"min":[
				-1,
				-4,
				-1
			],
			"type":"VEC3"
		},
		{
			"bufferView":74,
			"componentType":5126,
			"count":101,
			"type":"VEC3"
		},
		{
			"bufferView":75,
			"componentType":5126,
			"count":101,
			"type":"VEC2"
		},
		{
			"bufferView":76,
			"componentType":5123,
			"count":261,
			"type":"SCALAR"
		},
		{
			"bufferView":77,
			"componentType":5126,
			"count":4,
			"max":[
				1,
				-2.467186450958252,
				10.899999618530273
			],
			"min":[
				-1,
				-2.467186450958252,
				7.900000095367432
			],
			"type":"VEC3"
		},
		{
			"bufferView":78,
			"componentType":5126,
			"count":4,
			"type":"VEC3"
		},
		{
			"bufferView":79,
			"componentType":5126,
			"count":4,
			"type":"VEC2"
		},
		{
			"bufferView":80,
			"componentType":5123,
			"count":6,
			"type":"SCALAR"
		},
		{
			"bufferView":81,
			"componentType":5126,
			"count":40,
			"max":[
				1,
				1,
				7.900000095367432
			],
			"min":[
				-1,
				-2.467186450958252,
				-1
			],
			"type":"VEC3"
		},
		{
			"bufferView":82,
			"componentType":5126,
			"count":40,
			"type":"VEC3"
		},
		{
			"bufferView":83,
			"componentType":5126,
			"count":40,
			"type":"VEC2"
		},
		{
			"bufferView":84,
			"componentType":5123,
			"count":60,
			"type":"SCALAR"
		},
		{
			"bufferView":85,
			"componentType":5126,
			"count":36,
			"max":[
				1,
				1,
				7.010000228881836
			],
			"min":[
				-1,
				-2.467186450958252,
				-0.11000007390975952
			],
			"type":"VEC3"
		},
		{
			"bufferView":86,
			"componentType":5126,
			"count":36,
			"type":"VEC3"
		},
		{
			"bufferView":87,
			"componentType":5126,
			"count":36,
			"type":"VEC2"
		},
		{
			"bufferView":88,
			"componentType":5123,
			"count":54,
			"type":"SCALAR"
		},
		{
			"bufferView":89,
			"componentType":5126,
			"count":16,
			"max":[
				0.0945047065615654,
				1.391139268875122,
				10.908987045288086
			],
			"min":[
				-0.09449779987335205,
				-6.482207298278809,
				-1
			],
			"type":"VEC3"
		},
		{
			"bufferView":90,
			"componentType":5126,
			"count":16,
			"type":"VEC3"
		},
		{
			"bufferView":91,
			"componentType":5126,
			"count":16,
			"type":"VEC2"
		},
		{
			"bufferView":92,
			"componentType":5126,
			"count":16,
			"type":"VEC4"
		},
		{
			"bufferView":93,
			"componentType":5123,
			"count":24,
			"type":"SCALAR"
		},
		{
			"bufferView":94,
			"componentType":5126,
			"count":4,
			"max":[
				0.0945047065615654,
				1.391139268875122,
				10.908987045288086
			],
			"min":[
				-0.09449779987335205,
				-6.482207298278809,
				10.908987045288086
			],
			"type":"VEC3"
		},
		{
			"bufferView":95,
			"componentType":5126,
			"count":4,
			"type":"VEC3"
		},
		{
			"bufferView":96,
			"componentType":5126,
			"count":4,
			"type":"VEC2"
		},
		{
			"bufferView":97,
			"componentType":5126,
			"count":4,
			"type":"VEC4"
		},
		{
			"bufferView":98,
			"componentType":5123,
			"count":6,
			"type":"SCALAR"
		},
		{
			"bufferView":99,
			"componentType":5126,
			"count":4,
			"max":[
				0.0945047065615654,
				1.391139268875122,
				10.908987045288086
			],
			"min":[
				0.0945047065615654,
				-6.482207298278809,
				-1
			],
			"type":"VEC3"
		},
		{
			"bufferView":100,
			"componentType":5126,
			"count":4,
			"type":"VEC3"
		},
		{
			"bufferView":101,
			"componentType":5126,
			"count":4,
			"type":"VEC2"
		},
		{
			"bufferView":102,
			"componentType":5126,
			"count":4,
			"type":"VEC4"
		},
		{
			"bufferView":103,
			"componentType":5126,
			"count":16,
			"max":[
				0.0945047065615654,
				1.391139268875122,
				10.908987045288086
			],
			"min":[
				-0.0944991335272789,
				-6.482207298278809,
				-0.7882199287414551
			],
			"type":"VEC3"
		},
		{
			"bufferView":104,
			"componentType":5126,
			"count":16,
			"type":"VEC3"
		},
		{
			"bufferView":105,
			"componentType":5126,
			"count":16,
			"type":"VEC2"
		},
		{
			"bufferView":106,
			"componentType":5126,
			"count":16,
			"type":"VEC4"
		},
		{
			"bufferView":107,
			"componentType":5123,
			"count":30,
			"type":"SCALAR"
		},
		{
			"bufferView":108,
			"componentType":5126,
			"count":18,
			"max":[
				0.0945047065615654,
				1.391139268875122,
				10.908987045288086
			],
			"min":[
				-0.0944991335272789,
				-6.482207298278809,
				-0.7882199287414551
			],
			"type":"VEC3"
		},
		{
			"bufferView":109,
			"componentType":5126,
			"count":18,
			"type":"VEC3"
		},
		{
			"bufferView":110,
			"componentType":5126,
			"count":18,
			"type":"VEC2"
		},
		{
			"bufferView":111,
			"componentType":5126,
			"count":18,
			"type":"VEC4"
		},
		{
			"bufferView":112,
			"componentType":5123,
			"count":30,
			"type":"SCALAR"
		},
		{
			"bufferView":113,
			"componentType":5126,
			"count":14,
			"max":[
				0.0945047065615654,
				1.391139268875122,
				10.908987045288086
			],
			"min":[
				0.09450337290763855,
				-6.482207298278809,
				-0.7882199287414551
			],
			"type":"VEC3"
		},
		{
			"bufferView":114,
			"componentType":5126,
			"count":14,
			"type":"VEC3"
		},
		{
			"bufferView":115,
			"componentType":5126,
			"count":14,
			"type":"VEC2"
		},
		{
			"bufferView":116,
			"componentType":5126,
			"count":14,
			"type":"VEC4"
		},
		{
			"bufferView":117,
			"componentType":5123,
			"count":24,
			"type":"SCALAR"
		},
		{
			"bufferView":118,
			"componentType":5126,
			"count":10,
			"max":[
				-0.09449779987335205,
				1.391139268875122,
				10.908987045288086
			],
			"min":[
				-0.0944991335272789,
				-6.482207298278809,
				-0.7882199287414551
			],
			"type":"VEC3"
		},
		{
			"bufferView":119,
			"componentType":5126,
			"count":10,
			"type":"VEC3"
		},
		{
			"bufferView":120,
			"componentType":5126,
			"count":10,
			"type":"VEC2"
		},
		{
			"bufferView":121,
			"componentType":5126,
			"count":10,
			"type":"VEC4"
		},
		{
			"bufferView":122,
			"componentType":5123,
			"count":24,
			"type":"SCALAR"
		},
		{
			"bufferView":123,
			"componentType":5126,
			"count":20,
			"max":[
				1,
				1,
				0.9051552414894104
			],
			"min":[
				-1.0247585773468018,
				-1,
				-1
			],
			"type":"VEC3"
		},
		{
			"bufferView":124,
			"componentType":5126,
			"count":20,
			"type":"VEC3"
		},
		{
			"bufferView":125,
			"componentType":5126,
			"count":20,
			"type":"VEC2"
		},
		{
			"bufferView":126,
			"componentType":5126,
			"count":20,
			"type":"VEC4"
		},
		{
			"bufferView":127,
			"componentType":5123,
			"count":30,
			"type":"SCALAR"
		},
		{
			"bufferView":128,
			"componentType":5126,
			"count":4,
			"max":[
				1,
				-1,
				0.9051552414894104
			],
			"min":[
				-1.0247585773468018,
				-1,
				-1
			],
			"type":"VEC3"
		},
		{
			"bufferView":129,
			"componentType":5126,
			"count":4,
			"type":"VEC3"
		},
		{
			"bufferView":130,
			"componentType":5126,
			"count":4,
			"type":"VEC2"
		},
		{
			"bufferView":131,
			"componentType":5126,
			"count":4,
			"type":"VEC4"
		},
		{
			"bufferView":132,
			"componentType":5123,
			"count":6,
			"type":"SCALAR"
		},
		{
			"bufferView":133,
			"componentType":5126,
			"count":20,
			"max":[
				1,
				19.76711654663086,
				0.9051552414894104
			],
			"min":[
				-1.0247585773468018,
				-1,
				-3.0087075233459473
			],
			"type":"VEC3"
		},
		{
			"bufferView":134,
			"componentType":5126,
			"count":20,
			"type":"VEC3"
		},
		{
			"bufferView":135,
			"componentType":5126,
			"count":20,
			"type":"VEC2"
		},
		{
			"bufferView":136,
			"componentType":5126,
			"count":20,
			"type":"VEC4"
		},
		{
			"bufferView":137,
			"componentType":5126,
			"count":4,
			"max":[
				1,
				17.76711654663086,
				0.9051552414894104
			],
			"min":[
				-1.0247585773468018,
				-1,
				-3.0087075233459473
			],
			"type":"VEC3"
		},
		{
			"bufferView":138,
			"componentType":5126,
			"count":4,
			"type":"VEC3"
		},
		{
			"bufferView":139,
			"componentType":5126,
			"count":4,
			"type":"VEC2"
		},
		{
			"bufferView":140,
			"componentType":5126,
			"count":4,
			"type":"VEC4"
		},
		{
			"bufferView":141,
			"componentType":5126,
			"count":20,
			"max":[
				1.0347074270248413,
				2.604743003845215,
				1
			],
			"min":[
				-1,
				-1,
				-1
			],
			"type":"VEC3"
		},
		{
			"bufferView":142,
			"componentType":5126,
			"count":20,
			"type":"VEC3"
		},
		{
			"bufferView":143,
			"componentType":5126,
			"count":20,
			"type":"VEC2"
		},
		{
			"bufferView":144,
			"componentType":5126,
			"count":20,
			"type":"VEC4"
		},
		{
			"bufferView":145,
			"componentType":5123,
			"count":30,
			"type":"SCALAR"
		},
		{
			"bufferView":146,
			"componentType":5126,
			"count":4,
			"max":[
				1.0347074270248413,
				2.604743003845215,
				1
			],
			"min":[
				-1,
				-1,
				1
			],
			"type":"VEC3"
		},
		{
			"bufferView":147,
			"componentType":5126,
			"count":4,
			"type":"VEC3"
		},
		{
			"bufferView":148,
			"componentType":5126,
			"count":4,
			"type":"VEC2"
		},
		{
			"bufferView":149,
			"componentType":5126,
			"count":4,
			"type":"VEC4"
		},
		{
			"bufferView":150,
			"componentType":5126,
			"count":222,
			"max":[
				26,
				7.393091201782227,
				9.523675918579102
			],
			"min":[
				-1,
				0.8999999761581421,
				-10.444781303405762
			],
			"type":"VEC3"
		},
		{
			"bufferView":151,
			"componentType":5126,
			"count":222,
			"type":"VEC3"
		},
		{
			"bufferView":152,
			"componentType":5126,
			"count":222,
			"type":"VEC2"
		},
		{
			"bufferView":153,
			"componentType":5123,
			"count":753,
			"type":"SCALAR"
		},
		{
			"bufferView":154,
			"componentType":5126,
			"count":39,
			"max":[
				25.77530860900879,
				1,
				9.331727981567383
			],
			"min":[
				-1,
				1,
				-10.140119552612305
			],
			"type":"VEC3"
		},
		{
			"bufferView":155,
			"componentType":5126,
			"count":39,
			"type":"VEC3"
		},
		{
			"bufferView":156,
			"componentType":5126,
			"count":39,
			"type":"VEC2"
		},
		{
			"bufferView":157,
			"componentType":5123,
			"count":132,
			"type":"SCALAR"
		},
		{
			"bufferView":158,
			"componentType":5126,
			"count":16,
			"max":[
				-0.8100857138633728,
				4.605825901031494,
				9.331727981567383
			],
			"min":[
				-1,
				1,
				1.4365196228027344
			],
			"type":"VEC3"
		},
		{
			"bufferView":159,
			"componentType":5126,
			"count":16,
			"type":"VEC3"
		},
		{
			"bufferView":160,
			"componentType":5126,
			"count":16,
			"type":"VEC2"
		},
		{
			"bufferView":161,
			"componentType":5123,
			"count":24,
			"type":"SCALAR"
		},
		{
			"bufferView":162,
			"componentType":5126,
			"count":59,
			"max":[
				25.77530860900879,
				7.393091201782227,
				9.331727981567383
			],
			"min":[
				-0.8100857138633728,
				1,
				-10.140119552612305
			],
			"type":"VEC3"
		},
		{
			"bufferView":163,
			"componentType":5126,
			"count":59,
			"type":"VEC3"
		},
		{
			"bufferView":164,
			"componentType":5126,
			"count":59,
			"type":"VEC2"
		},
		{
			"bufferView":165,
			"componentType":5123,
			"count":159,
			"type":"SCALAR"
		},
		{
			"bufferView":166,
			"componentType":5126,
			"count":38,
			"max":[
				3.2694029808044434,
				1,
				1
			],
			"min":[
				-1,
				-1,
				-1
			],
			"type":"VEC3"
		},
		{
			"bufferView":167,
			"componentType":5126,
			"count":38,
			"type":"VEC3"
		},
		{
			"bufferView":168,
			"componentType":5126,
			"count":38,
			"type":"VEC2"
		},
		{
			"bufferView":169,
			"componentType":5126,
			"count":38,
			"type":"VEC4"
		},
		{
			"bufferView":170,
			"componentType":5123,
			"count":66,
			"type":"SCALAR"
		},
		{
			"bufferView":171,
			"componentType":5126,
			"count":8,
			"max":[
				3.2694029808044434,
				-1,
				1
			],
			"min":[
				-1,
				-1,
				-1
			],
			"type":"VEC3"
		},
		{
			"bufferView":172,
			"componentType":5126,
			"count":8,
			"type":"VEC3"
		},
		{
			"bufferView":173,
			"componentType":5126,
			"count":8,
			"type":"VEC2"
		},
		{
			"bufferView":174,
			"componentType":5126,
			"count":8,
			"type":"VEC4"
		},
		{
			"bufferView":175,
			"componentType":5123,
			"count":18,
			"type":"SCALAR"
		}
	],
	"bufferViews":[
		{
			"buffer":0,
			"byteLength":5304,
			"byteOffset":0,
			"target":34962
		},
		{
			"buffer":0,
			"byteLength":5304,
			"byteOffset":5304,
			"target":34962
		},
		{
			"buffer":0,
			"byteLength":3536,
			"byteOffset":10608,
			"target":34962
		},
		{
			"buffer":0,
			"byteLength":3150,
			"byteOffset":14144,
			"target":34963
		},
		{
			"buffer":0,
			"byteLength":912,
			"byteOffset":17296,
			"target":34962
		},
		{
			"buffer":0,
			"byteLength":912,
			"byteOffset":18208,
			"target":34962
		},
		{
			"buffer":0,
			"byteLength":608,
			"byteOffset":19120,
			"target":34962
		},
		{
			"buffer":0,
			"byteLength":480,
			"byteOffset":19728,
			"target":34963
		},
		{
			"buffer":0,
			"byteLength":480,
			"byteOffset":20208,
			"target":34962
		},
		{
			"buffer":0,
			"byteLength":480,
			"byteOffset":20688,
			"target":34962
		},
		{
			"buffer":0,
			"byteLength":320,
			"byteOffset":21168,
			"target":34962
		},
		{
			"buffer":0,
			"byteLength":132,
			"byteOffset":21488,
			"target":34963
		},
		{
			"buffer":0,
			"byteLength":432,
			"byteOffset":21620,
			"target":34962
		},
		{
			"buffer":0,
			"byteLength":432,
			"byteOffset":22052,
			"target":34962
		},
		{
			"buffer":0,
			"byteLength":288,
			"byteOffset":22484,
			"target":34962
		},
		{
			"buffer":0,
			"byteLength":264,
			"byteOffset":22772,
			"target":34963
		},
		{
			"buffer":0,
			"byteLength":456,
			"byteOffset":23036,
			"target":34962
		},
		{
			"buffer":0,
			"byteLength":456,
			"byteOffset":23492,
			"target":34962
		},
		{
			"buffer":0,
			"byteLength":304,
			"byteOffset":23948,
			"target":34962
		},
		{
			"buffer":0,
			"byteLength":132,
			"byteOffset":24252,
			"target":34963
		},
		{
			"buffer":0,
			"byteLength":432,
			"byteOffset":24384,
			"target":34962
		},
		{
			"buffer":0,
			"byteLength":432,
			"byteOffset":24816,
			"target":34962
		},
		{
			"buffer":0,
			"byteLength":288,
			"byteOffset":25248,
			"target":34962
		},
		{
			"buffer":0,
			"byteLength":180,
			"byteOffset":25536,
			"target":34963
		},
		{
			"buffer":0,
			"byteLength":144,
			"byteOffset":25716,
			"target":34962
		},
		{
			"buffer":0,
			"byteLength":144,
			"byteOffset":25860,
			"target":34962
		},
		{
			"buffer":0,
			"byteLength":96,
			"byteOffset":26004,
			"target":34962
		},
		{
			"buffer":0,
			"byteLength":60,
			"byteOffset":26100,
			"target":34963
		},
		{
			"buffer":0,
			"byteLength":264,
			"byteOffset":26160,
			"target":34962
		},
		{
			"buffer":0,
			"byteLength":264,
			"byteOffset":26424,
			"target":34962
		},
		{
			"buffer":0,
			"byteLength":176,
			"byteOffset":26688,
			"target":34962
		},
		{
			"buffer":0,
			"byteLength":102,
			"byteOffset":26864,
			"target":34963
		},
		{
			"buffer":0,
			"byteLength":156,
			"byteOffset":26968,
			"target":34962
		},
		{
			"buffer":0,
			"byteLength":156,
			"byteOffset":27124,
			"target":34962
		},
		{
			"buffer":0,
			"byteLength":104,
			"byteOffset":27280,
			"target":34962
		},
		{
			"buffer":0,
			"byteLength":72,
			"byteOffset":27384,
			"target":34963
		},
		{
			"buffer":0,
			"byteLength":264,
			"byteOffset":27456,
			"target":34962
		},
		{
			"buffer":0,
			"byteLength":264,
			"byteOffset":27720,
			"target":34962
		},
		{
			"buffer":0,
			"byteLength":176,
			"byteOffset":27984,
			"target":34962
		},
		{
			"buffer":0,
			"byteLength":120,
			"byteOffset":28160,
			"target":34963
		},
		{
			"buffer":0,
			"byteLength":936,
			"byteOffset":28280,
			"target":34962
		},
		{
			"buffer":0,
			"byteLength":936,
			"byteOffset":29216,
			"target":34962
		},
		{
			"buffer":0,
			"byteLength":624,
			"byteOffset":30152,
			"target":34962
		},
		{
			"buffer":0,
			"byteLength":396,
			"byteOffset":30776,
			"target":34963
		},
		{
			"buffer":0,
			"byteLength":288,
			"byteOffset":31172,
			"target":34962
		},
		{
			"buffer":0,
			"byteLength":288,
			"byteOffset":31460,
			"target":34962
		},
		{
			"buffer":0,
			"byteLength":192,
			"byteOffset":31748,
			"target":34962
		},
		{
			"buffer":0,
			"byteLength":384,
			"byteOffset":31940,
			"target":34962
		},
		{
			"buffer":0,
			"byteLength":72,
			"byteOffset":32324,
			"target":34963
		},
		{
			"buffer":0,
			"byteLength":564,
			"byteOffset":32396,
			"target":34962
		},
		{
			"buffer":0,
			"byteLength":564,
			"byteOffset":32960,
			"target":34962
		},
		{
			"buffer":0,
			"byteLength":376,
			"byteOffset":33524,
			"target":34962
		},
		{
			"buffer":0,
			"byteLength":252,
			"byteOffset":33900,
			"target":34963
		},
		{
			"buffer":0,
			"byteLength":540,
			"byteOffset":34152,
			"target":34962
		},
		{
			"buffer":0,
			"byteLength":540,
			"byteOffset":34692,
			"target":34962
		},
		{
			"buffer":0,
			"byteLength":360,
			"byteOffset":35232,
			"target":34962
		},
		{
			"buffer":0,
			"byteLength":288,
			"byteOffset":35592,
			"target":34963
		},
		{
			"buffer":0,
			"byteLength":672,
			"byteOffset":35880,
			"target":34962
		},
		{
			"buffer":0,
			"byteLength":672,
			"byteOffset":36552,
			"target":34962
		},
		{
			"buffer":0,
			"byteLength":448,
			"byteOffset":37224,
			"target":34962
		},
		{
			"buffer":0,
			"byteLength":168,
			"byteOffset":37672,
			"target":34963
		},
		{
			"buffer":0,
			"byteLength":384,
			"byteOffset":37840,
			"target":34962
		},
		{
			"buffer":0,
			"byteLength":384,
			"byteOffset":38224,
			"target":34962
		},
		{
			"buffer":0,
			"byteLength":256,
			"byteOffset":38608,
			"target":34962
		},
		{
			"buffer":0,
			"byteLength":156,
			"byteOffset":38864,
			"target":34963
		},
		{
			"buffer":0,
			"byteLength":288,
			"byteOffset":39020,
			"target":34962
		},
		{
			"buffer":0,
			"byteLength":288,
			"byteOffset":39308,
			"target":34962
		},
		{
			"buffer":0,
			"byteLength":192,
			"byteOffset":39596,
			"target":34962
		},
		{
			"buffer":0,
			"byteLength":384,
			"byteOffset":39788,
			"target":34962
		},
		{
			"buffer":0,
			"byteLength":288,
			"byteOffset":40172,
			"target":34962
		},
		{
			"buffer":0,
			"byteLength":288,
			"byteOffset":40460,
			"target":34962
		},
		{
			"buffer":0,
			"byteLength":192,
			"byteOffset":40748,
			"target":34962
		},
		{
			"buffer":0,
			"byteLength":384,
			"byteOffset":40940,
			"target":34962
		},
		{
			"buffer":0,
			"byteLength":1212,
			"byteOffset":41324,
			"target":34962
		},
		{
			"buffer":0,
			"byteLength":1212,
			"byteOffset":42536,
			"target":34962
		},
		{
			"buffer":0,
			"byteLength":808,
			"byteOffset":43748,
			"target":34962
		},
		{
			"buffer":0,
			"byteLength":522,
			"byteOffset":44556,
			"target":34963
		},
		{
			"buffer":0,
			"byteLength":48,
			"byteOffset":45080,
			"target":34962
		},
		{
			"buffer":0,
			"byteLength":48,
			"byteOffset":45128,
			"target":34962
		},
		{
			"buffer":0,
			"byteLength":32,
			"byteOffset":45176,
			"target":34962
		},
		{
			"buffer":0,
			"byteLength":12,
			"byteOffset":45208,
			"target":34963
		},
		{
			"buffer":0,
			"byteLength":480,
			"byteOffset":45220,
			"target":34962
		},
		{
			"buffer":0,
			"byteLength":480,
			"byteOffset":45700,
			"target":34962
		},
		{
			"buffer":0,
			"byteLength":320,
			"byteOffset":46180,
			"target":34962
		},
		{
			"buffer":0,
			"byteLength":120,
			"byteOffset":46500,
			"target":34963
		},
		{
			"buffer":0,
			"byteLength":432,
			"byteOffset":46620,
			"target":34962
		},
		{
			"buffer":0,
			"byteLength":432,
			"byteOffset":47052,
			"target":34962
		},
		{
			"buffer":0,
			"byteLength":288,
			"byteOffset":47484,
			"target":34962
		},
		{
			"buffer":0,
			"byteLength":108,
			"byteOffset":47772,
			"target":34963
		},
		{
			"buffer":0,
			"byteLength":192,
			"byteOffset":47880,
			"target":34962
		},
		{
			"buffer":0,
			"byteLength":192,
			"byteOffset":48072,
			"target":34962
		},
		{
			"buffer":0,
			"byteLength":128,
			"byteOffset":48264,
			"target":34962
		},
		{
			"buffer":0,
			"byteLength":256,
			"byteOffset":48392,
			"target":34962
		},
		{
			"buffer":0,
			"byteLength":48,
			"byteOffset":48648,
			"target":34963
		},
		{
			"buffer":0,
			"byteLength":48,
			"byteOffset":48696,
			"target":34962
		},
		{
			"buffer":0,
			"byteLength":48,
			"byteOffset":48744,
			"target":34962
		},
		{
			"buffer":0,
			"byteLength":32,
			"byteOffset":48792,
			"target":34962
		},
		{
			"buffer":0,
			"byteLength":64,
			"byteOffset":48824,
			"target":34962
		},
		{
			"buffer":0,
			"byteLength":12,
			"byteOffset":48888,
			"target":34963
		},
		{
			"buffer":0,
			"byteLength":48,
			"byteOffset":48900,
			"target":34962
		},
		{
			"buffer":0,
			"byteLength":48,
			"byteOffset":48948,
			"target":34962
		},
		{
			"buffer":0,
			"byteLength":32,
			"byteOffset":48996,
			"target":34962
		},
		{
			"buffer":0,
			"byteLength":64,
			"byteOffset":49028,
			"target":34962
		},
		{
			"buffer":0,
			"byteLength":192,
			"byteOffset":49092,
			"target":34962
		},
		{
			"buffer":0,
			"byteLength":192,
			"byteOffset":49284,
			"target":34962
		},
		{
			"buffer":0,
			"byteLength":128,
			"byteOffset":49476,
			"target":34962
		},
		{
			"buffer":0,
			"byteLength":256,
			"byteOffset":49604,
			"target":34962
		},
		{
			"buffer":0,
			"byteLength":60,
			"byteOffset":49860,
			"target":34963
		},
		{
			"buffer":0,
			"byteLength":216,
			"byteOffset":49920,
			"target":34962
		},
		{
			"buffer":0,
			"byteLength":216,
			"byteOffset":50136,
			"target":34962
		},
		{
			"buffer":0,
			"byteLength":144,
			"byteOffset":50352,
			"target":34962
		},
		{
			"buffer":0,
			"byteLength":288,
			"byteOffset":50496,
			"target":34962
		},
		{
			"buffer":0,
			"byteLength":60,
			"byteOffset":50784,
			"target":34963
		},
		{
			"buffer":0,
			"byteLength":168,
			"byteOffset":50844,
			"target":34962
		},
		{
			"buffer":0,
			"byteLength":168,
			"byteOffset":51012,
			"target":34962
		},
		{
			"buffer":0,
			"byteLength":112,
			"byteOffset":51180,
			"target":34962
		},
		{
			"buffer":0,
			"byteLength":224,
			"byteOffset":51292,
			"target":34962
		},
		{
			"buffer":0,
			"byteLength":48,
			"byteOffset":51516,
			"target":34963
		},
		{
			"buffer":0,
			"byteLength":120,
			"byteOffset":51564,
			"target":34962
		},
		{
			"buffer":0,
			"byteLength":120,
			"byteOffset":51684,
			"target":34962
		},
		{
			"buffer":0,
			"byteLength":80,
			"byteOffset":51804,
			"target":34962
		},
		{
			"buffer":0,
			"byteLength":160,
			"byteOffset":51884,
			"target":34962
		},
		{
			"buffer":0,
			"byteLength":48,
			"byteOffset":52044,
			"target":34963
		},
		{
			"buffer":0,
			"byteLength":240,
			"byteOffset":52092,
			"target":34962
		},
		{
			"buffer":0,
			"byteLength":240,
			"byteOffset":52332,
			"target":34962
		},
		{
			"buffer":0,
			"byteLength":160,
			"byteOffset":52572,
			"target":34962
		},
		{
			"buffer":0,
			"byteLength":320,
			"byteOffset":52732,
			"target":34962
		},
		{
			"buffer":0,
			"byteLength":60,
			"byteOffset":53052,
			"target":34963
		},
		{
			"buffer":0,
			"byteLength":48,
			"byteOffset":53112,
			"target":34962
		},
		{
			"buffer":0,
			"byteLength":48,
			"byteOffset":53160,
			"target":34962
		},
		{
			"buffer":0,
			"byteLength":32,
			"byteOffset":53208,
			"target":34962
		},
		{
			"buffer":0,
			"byteLength":64,
			"byteOffset":53240,
			"target":34962
		},
		{
			"buffer":0,
			"byteLength":12,
			"byteOffset":53304,
			"target":34963
		},
		{
			"buffer":0,
			"byteLength":240,
			"byteOffset":53316,
			"target":34962
		},
		{
			"buffer":0,
			"byteLength":240,
			"byteOffset":53556,
			"target":34962
		},
		{
			"buffer":0,
			"byteLength":160,
			"byteOffset":53796,
			"target":34962
		},
		{
			"buffer":0,
			"byteLength":320,
			"byteOffset":53956,
			"target":34962
		},
		{
			"buffer":0,
			"byteLength":48,
			"byteOffset":54276,
			"target":34962
		},
		{
			"buffer":0,
			"byteLength":48,
			"byteOffset":54324,
			"target":34962
		},
		{
			"buffer":0,
			"byteLength":32,
			"byteOffset":54372,
			"target":34962
		},
		{
			"buffer":0,
			"byteLength":64,
			"byteOffset":54404,
			"target":34962
		},
		{
			"buffer":0,
			"byteLength":240,
			"byteOffset":54468,
			"target":34962
		},
		{
			"buffer":0,
			"byteLength":240,
			"byteOffset":54708,
			"target":34962
		},
		{
			"buffer":0,
			"byteLength":160,
			"byteOffset":54948,
			"target":34962
		},
		{
			"buffer":0,
			"byteLength":320,
			"byteOffset":55108,
			"target":34962
		},
		{
			"buffer":0,
			"byteLength":60,
			"byteOffset":55428,
			"target":34963
		},
		{
			"buffer":0,
			"byteLength":48,
			"byteOffset":55488,
			"target":34962
		},
		{
			"buffer":0,
			"byteLength":48,
			"byteOffset":55536,
			"target":34962
		},
		{
			"buffer":0,
			"byteLength":32,
			"byteOffset":55584,
			"target":34962
		},
		{
			"buffer":0,
			"byteLength":64,
			"byteOffset":55616,
			"target":34962
		},
		{
			"buffer":0,
			"byteLength":2664,
			"byteOffset":55680,
			"target":34962
		},
		{
			"buffer":0,
			"byteLength":2664,
			"byteOffset":58344,
			"target":34962
		},
		{
			"buffer":0,
			"byteLength":1776,
			"byteOffset":61008,
			"target":34962
		},
		{
			"buffer":0,
			"byteLength":1506,
			"byteOffset":62784,
			"target":34963
		},
		{
			"buffer":0,
			"byteLength":468,
			"byteOffset":64292,
			"target":34962
		},
		{
			"buffer":0,
			"byteLength":468,
			"byteOffset":64760,
			"target":34962
		},
		{
			"buffer":0,
			"byteLength":312,
			"byteOffset":65228,
			"target":34962
		},
		{
			"buffer":0,
			"byteLength":264,
			"byteOffset":65540,
			"target":34963
		},
		{
			"buffer":0,
			"byteLength":192,
			"byteOffset":65804,
			"target":34962
		},
		{
			"buffer":0,
			"byteLength":192,
			"byteOffset":65996,
			"target":34962
		},
		{
			"buffer":0,
			"byteLength":128,
			"byteOffset":66188,
			"target":34962
		},
		{
			"buffer":0,
			"byteLength":48,
			"byteOffset":66316,
			"target":34963
		},
		{
			"buffer":0,
			"byteLength":708,
			"byteOffset":66364,
			"target":34962
		},
		{
			"buffer":0,
			"byteLength":708,
			"byteOffset":67072,
			"target":34962
		},
		{
			"buffer":0,
			"byteLength":472,
			"byteOffset":67780,
			"target":34962
		},
		{
			"buffer":0,
			"byteLength":318,
			"byteOffset":68252,
			"target":34963
		},
		{
			"buffer":0,
			"byteLength":456,
			"byteOffset":68572,
			"target":34962
		},
		{
			"buffer":0,
			"byteLength":456,
			"byteOffset":69028,
			"target":34962
		},
		{
			"buffer":0,
			"byteLength":304,
			"byteOffset":69484,
			"target":34962
		},
		{
			"buffer":0,
			"byteLength":608,
			"byteOffset":69788,
			"target":34962
		},
		{
			"buffer":0,
			"byteLength":132,
			"byteOffset":70396,
			"target":34963
		},
		{
			"buffer":0,
			"byteLength":96,
			"byteOffset":70528,
			"target":34962
		},
		{
			"buffer":0,
			"byteLength":96,
			"byteOffset":70624,
			"target":34962
		},
		{
			"buffer":0,
			"byteLength":64,
			"byteOffset":70720,
			"target":34962
		},
		{
			"buffer":0,
			"byteLength":128,
			"byteOffset":70784,
			"target":34962
		},
		{
			"buffer":0,
			"byteLength":36,
			"byteOffset":70912,
			"target":34963
		}
	],
	"samplers":[
		{
			"magFilter":9728,
			"minFilter":9984
		},
		{
			"magFilter":9729,
			"minFilter":9987
		}
	],
	"buffers":[
		{
			"byteLength":70948,
			"uri":"Dormitorio_viejo-c52c8127cbfa1e2e228fa516e4bf128f.bin"
		}
	]
}
