{
	"asset":{
		"generator":"Khronos glTF Blender I/O v4.5.47",
		"version":"2.0"
	},
	"scene":0,
	"scenes":[
		{
			"name":"Scene",
			"nodes":[
				0,
				1,
				2
			]
		}
	],
	"nodes":[
		{
			"mesh":0,
			"name":"Cube",
			"translation":[
				0,
				0.5,
				0.6000000238418579
			]
		},
		{
			"mesh":1,
			"name":"Cube.001",
			"scale":[
				0.4217478632926941,
				1.0622055530548096,
				0.020259300246834755
			],
			"translation":[
				0.9394066333770752,
				0.9706375598907471,
				0.22389496862888336
			]
		},
		{
			"mesh":2,
			"name":"Cube.002",
			"scale":[
				0.4217478632926941,
				1.0622055530548096,
				0.020259300246834755
			],
			"translation":[
				-0.9342261552810669,
				0.9622207880020142,
				0.2188408523797989
			]
		}
	],
	"materials":[
		{
			"doubleSided":true,
			"name":"Material",
			"pbrMetallicRoughness":{
				"baseColorTexture":{
					"index":0
				},
				"metallicFactor":0
			}
		},
		{
			"doubleSided":true,
			"name":"Material.001",
			"pbrMetallicRoughness":{
				"baseColorTexture":{
					"index":1
				},
				"metallicFactor":0
			}
		},
		{
			"doubleSided":true,
			"name":"Material.002",
			"pbrMetallicRoughness":{
				"baseColorTexture":{
					"index":2
				},
				"metallicFactor":0
			}
		},
		{
			"doubleSided":true,
			"name":"Material.003",
			"pbrMetallicRoughness":{
				"baseColorFactor":[
					0,
					0,
					0,
					1
				],
				"metallicFactor":0
			}
		},
		{
			"doubleSided":true,
			"name":"Material.004",
			"pbrMetallicRoughness":{
				"baseColorTexture":{
					"index":3
				},
				"metallicFactor":0
			}
		},
		{
			"doubleSided":true,
			"name":"Material.005",
			"pbrMetallicRoughness":{
				"baseColorFactor":[
					0,
					0,
					0,
					1
				],
				"metallicFactor":0
			}
		}
	],
	"meshes":[
		{
			"name":"Cube",
			"primitives":[
				{
					"attributes":{
						"POSITION":0,
						"NORMAL":1,
						"TEXCOORD_0":2,
						"TANGENT":3
					},
					"indices":4,
					"material":0
				},
				{
					"attributes":{
						"POSITION":5,
						"NORMAL":6,
						"TEXCOORD_0":7,
						"TANGENT":8
					},
					"indices":9,
					"material":1
				}
			]
		},
		{
			"name":"Cube.001",
			"primitives":[
				{
					"attributes":{
						"POSITION":10,
						"NORMAL":11,
						"TEXCOORD_0":12,
						"TANGENT":13
					},
					"indices":14,
					"material":2
				},
				{
					"attributes":{
						"POSITION":15,
						"NORMAL":16,
						"TEXCOORD_0":17,
						"TANGENT":18
					},
					"indices":19,
					"material":3
				}
			]
		},
		{
			"name":"Cube.002",
			"primitives":[
				{
					"attributes":{
						"POSITION":20,
						"NORMAL":21,
						"TEXCOORD_0":22,
						"TANGENT":23
					},
					"indices":14,
					"material":4
				},
				{
					"attributes":{
						"POSITION":24,
						"NORMAL":25,
						"TEXCOORD_0":26,
						"TANGENT":27
					},
					"indices":19,
					"material":5
				}
			]
		}
	],
	"textures":[
		{
			"sampler":0,
			"source":0
		},
		{
			"sampler":0,
			"source":1
		},
		{
			"sampler":0,
			"source":2
		},
		{
			"sampler":0,
			"source":2
		}
	],
	"images":[
		{
			"mimeType":"image/png",
			"name":"estante_de_armas_exterior.png",
			"uri":"../../texturas/estante_de_armas_exterior.png"
		},
		{
			"mimeType":"image/png",
			"name":"estante_de_armas_interior.png",
			"uri":"../../texturas/estante_de_armas_interior.png"
		},
		{
			"mimeType":"image/png",
			"name":"puertas.png",
			"uri":"../../texturas/puertas.png"
		}
	],
	"accessors":[
		{
			"bufferView":0,
			"componentType":5126,
			"count":36,
			"max":[
				1,
				1.5,
				0.3999999761581421
			],
			"min":[
				-1,
				-1.5,
				-0.3999999761581421
			],
			"type":"VEC3"
		},
		{
			"bufferView":1,
			"componentType":5126,
			"count":36,
			"type":"VEC3"
		},
		{
			"bufferView":2,
			"componentType":5126,
			"count":36,
			"type":"VEC2"
		},
		{
			"bufferView":3,
			"componentType":5126,
			"count":36,
			"type":"VEC4"
		},
		{
			"bufferView":4,
			"componentType":5123,
			"count":78,
			"type":"SCALAR"
		},
		{
			"bufferView":5,
			"componentType":5126,
			"count":20,
			"max":[
				0.9364267587661743,
				1.4364267587661743,
				0.30000001192092896
			],
			"min":[
				-0.9364267587661743,
				-0.6864267587661743,
				-0.3999999761581421
			],
			"type":"VEC3"
		},
		{
			"bufferView":6,
			"componentType":5126,
			"count":20,
			"type":"VEC3"
		},
		{
			"bufferView":7,
			"componentType":5126,
			"count":20,
			"type":"VEC2"
		},
		{
			"bufferView":8,
			"componentType":5126,
			"count":20,
			"type":"VEC4"
		},
		{
			"bufferView":9,
			"componentType":5123,
			"count":30,
			"type":"SCALAR"
		},
		{
			"bufferView":10,
			"componentType":5126,
			"count":8,
			"max":[
				-0.00011968612670898438,
				0.9053479433059692,
				1.113652229309082
			],
			"min":[
				-2.1983642578125,
				-1.0946520566940308,
				-0.886347770690918
			],
			"type":"VEC3"
		},
		{
			"bufferView":11,
			"componentType":5126,
			"count":8,
			"type":"VEC3"
		},
		{
			"bufferView":12,
			"componentType":5126,
			"count":8,
			"type":"VEC2"
		},
		{
			"bufferView":13,
			"componentType":5126,
			"count":8,
			"type":"VEC4"
		},
		{
			"bufferView":14,
			"componentType":5123,
			"count":12,
			"type":"SCALAR"
		},
		{
			"bufferView":15,
			"componentType":5126,
			"count":16,
			"max":[
				-0.00011968612670898438,
				0.9053479433059692,
				1.113652229309082
			],
			"min":[
				-2.1983642578125,
				-1.0946520566940308,
				-0.886347770690918
			],
			"type":"VEC3"
		},
		{
			"bufferView":16,
			"componentType":5126,
			"count":16,
			"type":"VEC3"
		},
		{
			"bufferView":17,
			"componentType":5126,
			"count":16,
			"type":"VEC2"
		},
		{
			"bufferView":18,
			"componentType":5126,
			"count":16,
			"type":"VEC4"
		},
		{
			"bufferView":19,
			"componentType":5123,
			"count":24,
			"type":"SCALAR"
		},
		{
			"bufferView":20,
			"componentType":5126,
			"count":8,
			"max":[
				2.237140655517578,
				0.9132718443870544,
				1.363123893737793
			],
			"min":[
				3.2067298889160156e-05,
				-1.0867280960083008,
				-0.636876106262207
			],
			"type":"VEC3"
		},
		{
			"bufferView":21,
			"componentType":5126,
			"count":8,
			"type":"VEC3"
		},
		{
			"bufferView":22,
			"componentType":5126,
			"count":8,
			"type":"VEC2"
		},
		{
			"bufferView":23,
			"componentType":5126,
			"count":8,
			"type":"VEC4"
		},
		{
			"bufferView":24,
			"componentType":5126,
			"count":16,
			"max":[
				2.237140655517578,
				0.9132718443870544,
				1.363123893737793
			],
			"min":[
				3.2067298889160156e-05,
				-1.0867280960083008,
				-0.636876106262207
			],
			"type":"VEC3"
		},
		{
			"bufferView":25,
			"componentType":5126,
			"count":16,
			"type":"VEC3"
		},
		{
			"bufferView":26,
			"componentType":5126,
			"count":16,
			"type":"VEC2"
		},
		{
			"bufferView":27,
			"componentType":5126,
			"count":16,
			"type":"VEC4"
		}
	],
	"bufferViews":[
		{
			"buffer":0,
			"byteLength":432,
			"byteOffset":0,
			"target":34962
		},
		{
			"buffer":0,
			"byteLength":432,
			"byteOffset":432,
			"target":34962
		},
		{
			"buffer":0,
			"byteLength":288,
			"byteOffset":864,
			"target":34962
		},
		{
			"buffer":0,
			"byteLength":576,
			"byteOffset":1152,
			"target":34962
		},
		{
			"buffer":0,
			"byteLength":156,
			"byteOffset":1728,
			"target":34963
		},
		{
			"buffer":0,
			"byteLength":240,
			"byteOffset":1884,
			"target":34962
		},
		{
			"buffer":0,
			"byteLength":240,
			"byteOffset":2124,
			"target":34962
		},
		{
			"buffer":0,
			"byteLength":160,
			"byteOffset":2364,
			"target":34962
		},
		{
			"buffer":0,
			"byteLength":320,
			"byteOffset":2524,
			"target":34962
		},
		{
			"buffer":0,
			"byteLength":60,
			"byteOffset":2844,
			"target":34963
		},
		{
			"buffer":0,
			"byteLength":96,
			"byteOffset":2904,
			"target":34962
		},
		{
			"buffer":0,
			"byteLength":96,
			"byteOffset":3000,
			"target":34962
		},
		{
			"buffer":0,
			"byteLength":64,
			"byteOffset":3096,
			"target":34962
		},
		{
			"buffer":0,
			"byteLength":128,
			"byteOffset":3160,
			"target":34962
		},
		{
			"buffer":0,
			"byteLength":24,
			"byteOffset":3288,
			"target":34963
		},
		{
			"buffer":0,
			"byteLength":192,
			"byteOffset":3312,
			"target":34962
		},
		{
			"buffer":0,
			"byteLength":192,
			"byteOffset":3504,
			"target":34962
		},
		{
			"buffer":0,
			"byteLength":128,
			"byteOffset":3696,
			"target":34962
		},
		{
			"buffer":0,
			"byteLength":256,
			"byteOffset":3824,
			"target":34962
		},
		{
			"buffer":0,
			"byteLength":48,
			"byteOffset":4080,
			"target":34963
		},
		{
			"buffer":0,
			"byteLength":96,
			"byteOffset":4128,
			"target":34962
		},
		{
			"buffer":0,
			"byteLength":96,
			"byteOffset":4224,
			"target":34962
		},
		{
			"buffer":0,
			"byteLength":64,
			"byteOffset":4320,
			"target":34962
		},
		{
			"buffer":0,
			"byteLength":128,
			"byteOffset":4384,
			"target":34962
		},
		{
			"buffer":0,
			"byteLength":192,
			"byteOffset":4512,
			"target":34962
		},
		{
			"buffer":0,
			"byteLength":192,
			"byteOffset":4704,
			"target":34962
		},
		{
			"buffer":0,
			"byteLength":128,
			"byteOffset":4896,
			"target":34962
		},
		{
			"buffer":0,
			"byteLength":256,
			"byteOffset":5024,
			"target":34962
		}
	],
	"samplers":[
		{
			"magFilter":9728,
			"minFilter":9984
		}
	],
	"buffers":[
		{
			"byteLength":5280,
			"uri":"estante_de_armas-aea5bf0528bddb16452abe5b071944b8.bin"
		}
	]
}
