{
	"asset":{
		"generator":"Khronos glTF Blender I/O v4.5.47",
		"version":"2.0"
	},
	"scene":0,
	"scenes":[
		{
			"name":"Scene",
			"nodes":[
				0,
				1,
				2,
				3,
				4,
				5
			]
		}
	],
	"nodes":[
		{
			"mesh":0,
			"name":"Cube",
			"scale":[
				0.281385600566864,
				0.02813856676220894,
				0.281385600566864
			]
		},
		{
			"mesh":1,
			"name":"Cube.001",
			"scale":[
				0.3810282051563263,
				0.038102827966213226,
				0.3810282051563263
			],
			"translation":[
				0,
				0.6257568597793579,
				0
			]
		},
		{
			"mesh":2,
			"name":"Plane",
			"rotation":[
				0.5,
				-0.5,
				0.5,
				0.5000000596046448
			],
			"scale":[
				0.26157891750335693,
				1,
				0.30000001192092896
			],
			"translation":[
				-0.2652987241744995,
				0.31670159101486206,
				0
			]
		},
		{
			"mesh":3,
			"name":"Plane.001",
			"rotation":[
				0.7071068286895752,
				0,
				0,
				0.7071068286895752
			],
			"scale":[
				0.26157891750335693,
				1,
				0.30000001192092896
			],
			"translation":[
				-0.015454620122909546,
				0.31670159101486206,
				0.2585849165916443
			]
		},
		{
			"mesh":4,
			"name":"Plane.002",
			"rotation":[
				0.5,
				-0.5,
				0.5,
				0.5000000596046448
			],
			"scale":[
				0.26157891750335693,
				1,
				0.30000001192092896
			],
			"translation":[
				0.26940619945526123,
				0.31670159101486206,
				0
			]
		},
		{
			"mesh":5,
			"name":"Plane.003",
			"rotation":[
				0.7071068286895752,
				0,
				0,
				0.7071068286895752
			],
			"scale":[
				0.26157891750335693,
				1,
				0.30000001192092896
			],
			"translation":[
				-0.015454620122909546,
				0.31670159101486206,
				-0.26216012239456177
			]
		}
	],
	"materials":[
		{
			"doubleSided":true,
			"name":"Material",
			"pbrMetallicRoughness":{
				"baseColorFactor":[
					0.1274368017911911,
					0.1274378001689911,
					0.12743772566318512,
					1
				],
				"roughnessFactor":0
			}
		},
		{
			"name":"Material.008"
		},
		{
			"doubleSided":true,
			"name":"Material.002",
			"pbrMetallicRoughness":{
				"baseColorFactor":[
					0.1274368017911911,
					0.1274378001689911,
					0.12743772566318512,
					1
				],
				"roughnessFactor":0
			}
		},
		{
			"name":"Material.007"
		},
		{
			"alphaMode":"BLEND",
			"doubleSided":true,
			"name":"Material.003",
			"pbrMetallicRoughness":{
				"baseColorFactor":[
					0.8001892566680908,
					0.5701456665992737,
					0,
					0.658730149269104
				],
				"roughnessFactor":0
			}
		},
		{
			"alphaMode":"BLEND",
			"doubleSided":true,
			"name":"Material.004",
			"pbrMetallicRoughness":{
				"baseColorFactor":[
					0.8001892566680908,
					0.5701456665992737,
					0,
					0.658730149269104
				],
				"roughnessFactor":0
			}
		},
		{
			"alphaMode":"BLEND",
			"doubleSided":true,
			"name":"Material.005",
			"pbrMetallicRoughness":{
				"baseColorFactor":[
					0.8001892566680908,
					0.5701456665992737,
					0,
					0.658730149269104
				],
				"roughnessFactor":0
			}
		},
		{
			"alphaMode":"BLEND",
			"doubleSided":true,
			"name":"Material.006",
			"pbrMetallicRoughness":{
				"baseColorFactor":[
					0.8001892566680908,
					0.5701456665992737,
					0,
					0.658730149269104
				],
				"roughnessFactor":0
			}
		}
	],
	"meshes":[
		{
			"name":"Cube",
			"primitives":[
				{
					"attributes":{
						"POSITION":0,
						"NORMAL":1,
						"TEXCOORD_0":2,
						"TANGENT":3
					},
					"indices":4,
					"material":0
				},
				{
					"attributes":{
						"POSITION":5,
						"NORMAL":6,
						"TEXCOORD_0":7,
						"TANGENT":8
					},
					"indices":9,
					"material":1
				}
			]
		},
		{
			"name":"Cube.001",
			"primitives":[
				{
					"attributes":{
						"POSITION":10,
						"NORMAL":11,
						"TEXCOORD_0":12,
						"TANGENT":13
					},
					"indices":14,
					"material":2
				},
				{
					"attributes":{
						"POSITION":15,
						"NORMAL":16,
						"TEXCOORD_0":17,
						"TANGENT":18
					},
					"indices":19,
					"material":3
				}
			]
		},
		{
			"name":"Plane",
			"primitives":[
				{
					"attributes":{
						"POSITION":20,
						"NORMAL":21,
						"TEXCOORD_0":22,
						"TANGENT":23
					},
					"indices":24,
					"material":4
				}
			]
		},
		{
			"name":"Plane.001",
			"primitives":[
				{
					"attributes":{
						"POSITION":25,
						"NORMAL":26,
						"TEXCOORD_0":27,
						"TANGENT":28
					},
					"indices":24,
					"material":5
				}
			]
		},
		{
			"name":"Plane.002",
			"primitives":[
				{
					"attributes":{
						"POSITION":29,
						"NORMAL":30,
						"TEXCOORD_0":31,
						"TANGENT":32
					},
					"indices":24,
					"material":6
				}
			]
		},
		{
			"name":"Plane.003",
			"primitives":[
				{
					"attributes":{
						"POSITION":33,
						"NORMAL":34,
						"TEXCOORD_0":35,
						"TANGENT":36
					},
					"indices":24,
					"material":7
				}
			]
		}
	],
	"accessors":[
		{
			"bufferView":0,
			"componentType":5126,
			"count":184,
			"max":[
				0.9769060015678406,
				22.29995346069336,
				0.9769060015678406
			],
			"min":[
				-0.9769060015678406,
				-0.9751775860786438,
				-0.9769060015678406
			],
			"type":"VEC3"
		},
		{
			"bufferView":1,
			"componentType":5126,
			"count":184,
			"type":"VEC3"
		},
		{
			"bufferView":2,
			"componentType":5126,
			"count":184,
			"type":"VEC2"
		},
		{
			"bufferView":3,
			"componentType":5126,
			"count":184,
			"type":"VEC4"
		},
		{
			"bufferView":4,
			"componentType":5123,
			"count":276,
			"type":"SCALAR"
		},
		{
			"bufferView":5,
			"componentType":5126,
			"count":152,
			"max":[
				1,
				22.323047637939453,
				1
			],
			"min":[
				-1,
				-1,
				-1
			],
			"type":"VEC3"
		},
		{
			"bufferView":6,
			"componentType":5126,
			"count":152,
			"type":"VEC3"
		},
		{
			"bufferView":7,
			"componentType":5126,
			"count":152,
			"type":"VEC2"
		},
		{
			"bufferView":8,
			"componentType":5126,
			"count":152,
			"type":"VEC4"
		},
		{
			"bufferView":9,
			"componentType":5123,
			"count":276,
			"type":"SCALAR"
		},
		{
			"bufferView":10,
			"componentType":5126,
			"count":24,
			"max":[
				0.8335928320884705,
				0.9747557044029236,
				0.8335928320884705
			],
			"min":[
				-0.8335928320884705,
				-0.9790366291999817,
				-0.8335928320884705
			],
			"type":"VEC3"
		},
		{
			"bufferView":11,
			"componentType":5126,
			"count":24,
			"type":"VEC3"
		},
		{
			"bufferView":12,
			"componentType":5126,
			"count":24,
			"type":"VEC2"
		},
		{
			"bufferView":13,
			"componentType":5126,
			"count":24,
			"type":"VEC4"
		},
		{
			"bufferView":14,
			"componentType":5123,
			"count":36,
			"type":"SCALAR"
		},
		{
			"bufferView":15,
			"componentType":5126,
			"count":24,
			"max":[
				0.8576816320419312,
				1,
				0.8576816320419312
			],
			"min":[
				-0.8576816320419312,
				-0.9999998807907104,
				-0.8576816320419312
			],
			"type":"VEC3"
		},
		{
			"bufferView":16,
			"componentType":5126,
			"count":24,
			"type":"VEC3"
		},
		{
			"bufferView":17,
			"componentType":5126,
			"count":24,
			"type":"VEC2"
		},
		{
			"bufferView":18,
			"componentType":5126,
			"count":24,
			"type":"VEC4"
		},
		{
			"bufferView":19,
			"componentType":5123,
			"count":36,
			"type":"SCALAR"
		},
		{
			"bufferView":20,
			"componentType":5126,
			"count":4,
			"max":[
				1,
				0,
				1
			],
			"min":[
				-1,
				0,
				-1
			],
			"type":"VEC3"
		},
		{
			"bufferView":21,
			"componentType":5126,
			"count":4,
			"type":"VEC3"
		},
		{
			"bufferView":22,
			"componentType":5126,
			"count":4,
			"type":"VEC2"
		},
		{
			"bufferView":23,
			"componentType":5126,
			"count":4,
			"type":"VEC4"
		},
		{
			"bufferView":24,
			"componentType":5123,
			"count":6,
			"type":"SCALAR"
		},
		{
			"bufferView":25,
			"componentType":5126,
			"count":4,
			"max":[
				1,
				0,
				1
			],
			"min":[
				-1,
				0,
				-1
			],
			"type":"VEC3"
		},
		{
			"bufferView":26,
			"componentType":5126,
			"count":4,
			"type":"VEC3"
		},
		{
			"bufferView":27,
			"componentType":5126,
			"count":4,
			"type":"VEC2"
		},
		{
			"bufferView":28,
			"componentType":5126,
			"count":4,
			"type":"VEC4"
		},
		{
			"bufferView":29,
			"componentType":5126,
			"count":4,
			"max":[
				1,
				0,
				1
			],
			"min":[
				-1,
				0,
				-1
			],
			"type":"VEC3"
		},
		{
			"bufferView":30,
			"componentType":5126,
			"count":4,
			"type":"VEC3"
		},
		{
			"bufferView":31,
			"componentType":5126,
			"count":4,
			"type":"VEC2"
		},
		{
			"bufferView":32,
			"componentType":5126,
			"count":4,
			"type":"VEC4"
		},
		{
			"bufferView":33,
			"componentType":5126,
			"count":4,
			"max":[
				1,
				0,
				1
			],
			"min":[
				-1,
				0,
				-1
			],
			"type":"VEC3"
		},
		{
			"bufferView":34,
			"componentType":5126,
			"count":4,
			"type":"VEC3"
		},
		{
			"bufferView":35,
			"componentType":5126,
			"count":4,
			"type":"VEC2"
		},
		{
			"bufferView":36,
			"componentType":5126,
			"count":4,
			"type":"VEC4"
		}
	],
	"bufferViews":[
		{
			"buffer":0,
			"byteLength":2208,
			"byteOffset":0,
			"target":34962
		},
		{
			"buffer":0,
			"byteLength":2208,
			"byteOffset":2208,
			"target":34962
		},
		{
			"buffer":0,
			"byteLength":1472,
			"byteOffset":4416,
			"target":34962
		},
		{
			"buffer":0,
			"byteLength":2944,
			"byteOffset":5888,
			"target":34962
		},
		{
			"buffer":0,
			"byteLength":552,
			"byteOffset":8832,
			"target":34963
		},
		{
			"buffer":0,
			"byteLength":1824,
			"byteOffset":9384,
			"target":34962
		},
		{
			"buffer":0,
			"byteLength":1824,
			"byteOffset":11208,
			"target":34962
		},
		{
			"buffer":0,
			"byteLength":1216,
			"byteOffset":13032,
			"target":34962
		},
		{
			"buffer":0,
			"byteLength":2432,
			"byteOffset":14248,
			"target":34962
		},
		{
			"buffer":0,
			"byteLength":552,
			"byteOffset":16680,
			"target":34963
		},
		{
			"buffer":0,
			"byteLength":288,
			"byteOffset":17232,
			"target":34962
		},
		{
			"buffer":0,
			"byteLength":288,
			"byteOffset":17520,
			"target":34962
		},
		{
			"buffer":0,
			"byteLength":192,
			"byteOffset":17808,
			"target":34962
		},
		{
			"buffer":0,
			"byteLength":384,
			"byteOffset":18000,
			"target":34962
		},
		{
			"buffer":0,
			"byteLength":72,
			"byteOffset":18384,
			"target":34963
		},
		{
			"buffer":0,
			"byteLength":288,
			"byteOffset":18456,
			"target":34962
		},
		{
			"buffer":0,
			"byteLength":288,
			"byteOffset":18744,
			"target":34962
		},
		{
			"buffer":0,
			"byteLength":192,
			"byteOffset":19032,
			"target":34962
		},
		{
			"buffer":0,
			"byteLength":384,
			"byteOffset":19224,
			"target":34962
		},
		{
			"buffer":0,
			"byteLength":72,
			"byteOffset":19608,
			"target":34963
		},
		{
			"buffer":0,
			"byteLength":48,
			"byteOffset":19680,
			"target":34962
		},
		{
			"buffer":0,
			"byteLength":48,
			"byteOffset":19728,
			"target":34962
		},
		{
			"buffer":0,
			"byteLength":32,
			"byteOffset":19776,
			"target":34962
		},
		{
			"buffer":0,
			"byteLength":64,
			"byteOffset":19808,
			"target":34962
		},
		{
			"buffer":0,
			"byteLength":12,
			"byteOffset":19872,
			"target":34963
		},
		{
			"buffer":0,
			"byteLength":48,
			"byteOffset":19884,
			"target":34962
		},
		{
			"buffer":0,
			"byteLength":48,
			"byteOffset":19932,
			"target":34962
		},
		{
			"buffer":0,
			"byteLength":32,
			"byteOffset":19980,
			"target":34962
		},
		{
			"buffer":0,
			"byteLength":64,
			"byteOffset":20012,
			"target":34962
		},
		{
			"buffer":0,
			"byteLength":48,
			"byteOffset":20076,
			"target":34962
		},
		{
			"buffer":0,
			"byteLength":48,
			"byteOffset":20124,
			"target":34962
		},
		{
			"buffer":0,
			"byteLength":32,
			"byteOffset":20172,
			"target":34962
		},
		{
			"buffer":0,
			"byteLength":64,
			"byteOffset":20204,
			"target":34962
		},
		{
			"buffer":0,
			"byteLength":48,
			"byteOffset":20268,
			"target":34962
		},
		{
			"buffer":0,
			"byteLength":48,
			"byteOffset":20316,
			"target":34962
		},
		{
			"buffer":0,
			"byteLength":32,
			"byteOffset":20364,
			"target":34962
		},
		{
			"buffer":0,
			"byteLength":64,
			"byteOffset":20396,
			"target":34962
		}
	],
	"buffers":[
		{
			"byteLength":20460,
			"uri":"farol-69f0f973fad969c0c0cd0ae94c311cb3.bin"
		}
	]
}
