{
	"asset":{
		"generator":"Khronos glTF Blender I/O v4.5.47",
		"version":"2.0"
	},
	"scene":0,
	"scenes":[
		{
			"name":"Scene",
			"nodes":[
				0,
				1,
				2
			]
		}
	],
	"nodes":[
		{
			"mesh":0,
			"name":"Cylinder",
			"scale":[
				0.21772897243499756,
				0.02388506755232811,
				0.21772897243499756
			]
		},
		{
			"mesh":1,
			"name":"Sphere",
			"scale":[
				0.10230708122253418,
				0.10230708122253418,
				0.10230708122253418
			],
			"translation":[
				0,
				-0.18127591907978058,
				0
			]
		},
		{
			"mesh":2,
			"name":"Cylinder.001",
			"scale":[
				0.03922952339053154,
				0.03922952339053154,
				0.03922952339053154
			],
			"translation":[
				0,
				-0.04732130840420723,
				0
			]
		}
	],
	"materials":[
		{
			"doubleSided":true,
			"name":"Material.001",
			"pbrMetallicRoughness":{
				"baseColorTexture":{
					"index":0
				},
				"metallicFactor":0
			}
		},
		{
			"alphaMode":"BLEND",
			"doubleSided":true,
			"name":"Material.002",
			"pbrMetallicRoughness":{
				"baseColorFactor":[
					0.800000011920929,
					0.800000011920929,
					0.800000011920929,
					0.2301587462425232
				],
				"metallicFactor":0.8095238208770752,
				"roughnessFactor":0.1507936418056488
			}
		},
		{
			"name":"Material.003"
		},
		{
			"doubleSided":true,
			"name":"Material.004",
			"pbrMetallicRoughness":{
				"baseColorFactor":[
					0,
					0,
					0,
					1
				],
				"roughnessFactor":0.206349179148674
			}
		}
	],
	"meshes":[
		{
			"name":"Cylinder.001",
			"primitives":[
				{
					"attributes":{
						"POSITION":0,
						"NORMAL":1,
						"TEXCOORD_0":2
					},
					"indices":3,
					"material":0
				}
			]
		},
		{
			"name":"Sphere",
			"primitives":[
				{
					"attributes":{
						"POSITION":4,
						"NORMAL":5,
						"TEXCOORD_0":6,
						"TANGENT":7
					},
					"indices":8,
					"material":1
				},
				{
					"attributes":{
						"POSITION":9,
						"NORMAL":10,
						"TEXCOORD_0":11,
						"TANGENT":12
					},
					"indices":13,
					"material":2
				}
			]
		},
		{
			"name":"Cylinder.002",
			"primitives":[
				{
					"attributes":{
						"POSITION":14,
						"NORMAL":15,
						"TEXCOORD_0":16
					},
					"indices":17,
					"material":3
				}
			]
		}
	],
	"textures":[
		{
			"sampler":0,
			"source":0
		}
	],
	"images":[
		{
			"mimeType":"image/png",
			"name":"Foco.png",
			"uri":"../../texturas/Foco.png"
		}
	],
	"accessors":[
		{
			"bufferView":0,
			"componentType":5126,
			"count":384,
			"max":[
				1,
				1,
				1
			],
			"min":[
				-1,
				-1.4814891815185547,
				-1
			],
			"type":"VEC3"
		},
		{
			"bufferView":1,
			"componentType":5126,
			"count":384,
			"type":"VEC3"
		},
		{
			"bufferView":2,
			"componentType":5126,
			"count":384,
			"type":"VEC2"
		},
		{
			"bufferView":3,
			"componentType":5123,
			"count":756,
			"type":"SCALAR"
		},
		{
			"bufferView":4,
			"componentType":5126,
			"count":527,
			"max":[
				0.959999680519104,
				1.2249755859375,
				0.9599993228912354
			],
			"min":[
				-0.9599990248680115,
				-0.9599999785423279,
				-0.9599999785423279
			],
			"type":"VEC3"
		},
		{
			"bufferView":5,
			"componentType":5126,
			"count":527,
			"type":"VEC3"
		},
		{
			"bufferView":6,
			"componentType":5126,
			"count":527,
			"type":"VEC2"
		},
		{
			"bufferView":7,
			"componentType":5126,
			"count":527,
			"type":"VEC4"
		},
		{
			"bufferView":8,
			"componentType":5123,
			"count":2784,
			"type":"SCALAR"
		},
		{
			"bufferView":9,
			"componentType":5126,
			"count":494,
			"max":[
				0.9999997019767761,
				1.2249755859375,
				0.9999993443489075
			],
			"min":[
				-0.9999990463256836,
				-1,
				-1
			],
			"type":"VEC3"
		},
		{
			"bufferView":10,
			"componentType":5126,
			"count":494,
			"type":"VEC3"
		},
		{
			"bufferView":11,
			"componentType":5126,
			"count":494,
			"type":"VEC2"
		},
		{
			"bufferView":12,
			"componentType":5126,
			"count":494,
			"type":"VEC4"
		},
		{
			"bufferView":13,
			"componentType":5123,
			"count":2592,
			"type":"SCALAR"
		},
		{
			"bufferView":14,
			"componentType":5126,
			"count":160,
			"max":[
				0.8877395391464233,
				0.318168580532074,
				0.887020468711853
			],
			"min":[
				-0.8883657455444336,
				-0.21535518765449524,
				-0.8890848159790039
			],
			"type":"VEC3"
		},
		{
			"bufferView":15,
			"componentType":5126,
			"count":160,
			"type":"VEC3"
		},
		{
			"bufferView":16,
			"componentType":5126,
			"count":160,
			"type":"VEC2"
		},
		{
			"bufferView":17,
			"componentType":5123,
			"count":282,
			"type":"SCALAR"
		}
	],
	"bufferViews":[
		{
			"buffer":0,
			"byteLength":4608,
			"byteOffset":0,
			"target":34962
		},
		{
			"buffer":0,
			"byteLength":4608,
			"byteOffset":4608,
			"target":34962
		},
		{
			"buffer":0,
			"byteLength":3072,
			"byteOffset":9216,
			"target":34962
		},
		{
			"buffer":0,
			"byteLength":1512,
			"byteOffset":12288,
			"target":34963
		},
		{
			"buffer":0,
			"byteLength":6324,
			"byteOffset":13800,
			"target":34962
		},
		{
			"buffer":0,
			"byteLength":6324,
			"byteOffset":20124,
			"target":34962
		},
		{
			"buffer":0,
			"byteLength":4216,
			"byteOffset":26448,
			"target":34962
		},
		{
			"buffer":0,
			"byteLength":8432,
			"byteOffset":30664,
			"target":34962
		},
		{
			"buffer":0,
			"byteLength":5568,
			"byteOffset":39096,
			"target":34963
		},
		{
			"buffer":0,
			"byteLength":5928,
			"byteOffset":44664,
			"target":34962
		},
		{
			"buffer":0,
			"byteLength":5928,
			"byteOffset":50592,
			"target":34962
		},
		{
			"buffer":0,
			"byteLength":3952,
			"byteOffset":56520,
			"target":34962
		},
		{
			"buffer":0,
			"byteLength":7904,
			"byteOffset":60472,
			"target":34962
		},
		{
			"buffer":0,
			"byteLength":5184,
			"byteOffset":68376,
			"target":34963
		},
		{
			"buffer":0,
			"byteLength":1920,
			"byteOffset":73560,
			"target":34962
		},
		{
			"buffer":0,
			"byteLength":1920,
			"byteOffset":75480,
			"target":34962
		},
		{
			"buffer":0,
			"byteLength":1280,
			"byteOffset":77400,
			"target":34962
		},
		{
			"buffer":0,
			"byteLength":564,
			"byteOffset":78680,
			"target":34963
		}
	],
	"samplers":[
		{
			"magFilter":9728,
			"minFilter":9984
		}
	],
	"buffers":[
		{
			"byteLength":79244,
			"uri":"Foco-62d71895b37f2cb7e493d2e10409d400.bin"
		}
	]
}
