{
	"asset":{
		"generator":"Khronos glTF Blender I/O v4.4.56",
		"version":"2.0"
	},
	"scene":0,
	"scenes":[
		{
			"name":"Scene",
			"nodes":[
				0,
				1,
				2,
				3,
				4,
				5,
				6
			]
		}
	],
	"nodes":[
		{
			"mesh":0,
			"name":"Cube.002",
			"rotation":[
				1,
				0,
				0,
				0
			],
			"scale":[
				-0.5211608409881592,
				-0.3241387605667114,
				-0.5211608409881592
			],
			"translation":[
				-0.41999372839927673,
				-0.17494282126426697,
				1.7918387651443481
			]
		},
		{
			"mesh":1,
			"name":"Cylinder",
			"rotation":[
				0.7071068286895752,
				0.7071068286895752,
				0,
				0
			],
			"scale":[
				-0.348583847284317,
				-0.13943353295326233,
				-0.348583847284317
			],
			"translation":[
				0.7934750318527222,
				-0.5551334023475647,
				-1.1592679023742676
			]
		},
		{
			"mesh":2,
			"name":"Cylinder.001",
			"rotation":[
				0,
				0,
				-0.7071068286895752,
				0.7071068286895752
			],
			"scale":[
				0.348583847284317,
				0.13943353295326233,
				0.348583847284317
			],
			"translation":[
				-0.8148267865180969,
				-0.5551334023475647,
				-1.1592679023742676
			]
		},
		{
			"mesh":3,
			"name":"Cylinder.002",
			"rotation":[
				0,
				0,
				-0.7071068286895752,
				0.7071068286895752
			],
			"scale":[
				0.348583847284317,
				0.13943353295326233,
				0.348583847284317
			],
			"translation":[
				-0.8148267865180969,
				-0.5551334023475647,
				1.7263381481170654
			]
		},
		{
			"mesh":4,
			"name":"Cylinder.003",
			"rotation":[
				0.7071068286895752,
				0.7071068286895752,
				0,
				0
			],
			"scale":[
				-0.348583847284317,
				-0.13943353295326233,
				-0.348583847284317
			],
			"translation":[
				0.7934750318527222,
				-0.5551334023475647,
				1.7263381481170654
			]
		},
		{
			"mesh":5,
			"name":"Cube"
		},
		{
			"mesh":6,
			"name":"Cube.001",
			"scale":[
				0.5211608409881592,
				0.3241387605667114,
				0.5211608409881592
			],
			"translation":[
				0.418599933385849,
				-0.17494282126426697,
				1.7918387651443481
			]
		}
	],
	"materials":[
		{
			"doubleSided":true,
			"name":"Material.006",
			"pbrMetallicRoughness":{
				"baseColorFactor":[
					0.052000001072883606,
					0.052000001072883606,
					0.052000001072883606,
					1
				],
				"roughnessFactor":0
			}
		},
		{
			"name":"Material.008"
		},
		{
			"doubleSided":true,
			"name":"Material.002",
			"pbrMetallicRoughness":{
				"baseColorTexture":{
					"index":0
				},
				"metallicFactor":0
			}
		},
		{
			"name":"Material.012"
		},
		{
			"doubleSided":true,
			"name":"Material.003",
			"pbrMetallicRoughness":{
				"baseColorTexture":{
					"index":1
				},
				"metallicFactor":0
			}
		},
		{
			"name":"Material.013"
		},
		{
			"doubleSided":true,
			"name":"Material.004",
			"pbrMetallicRoughness":{
				"baseColorTexture":{
					"index":2
				},
				"metallicFactor":0
			}
		},
		{
			"name":"Material.011"
		},
		{
			"doubleSided":true,
			"name":"Material.001",
			"pbrMetallicRoughness":{
				"baseColorTexture":{
					"index":3
				},
				"metallicFactor":0
			}
		},
		{
			"name":"Material.010"
		},
		{
			"doubleSided":true,
			"name":"Material",
			"pbrMetallicRoughness":{
				"baseColorTexture":{
					"index":4
				},
				"roughnessFactor":0.4330708384513855
			}
		},
		{
			"name":"Material.007"
		},
		{
			"doubleSided":true,
			"name":"Material.005",
			"pbrMetallicRoughness":{
				"baseColorFactor":[
					0.05215013772249222,
					0.05215013772249222,
					0.05215013772249222,
					1
				],
				"roughnessFactor":0
			}
		},
		{
			"name":"Material.009"
		}
	],
	"meshes":[
		{
			"name":"Cube.002",
			"primitives":[
				{
					"attributes":{
						"POSITION":0,
						"NORMAL":1,
						"TEXCOORD_0":2
					},
					"indices":3,
					"material":0
				},
				{
					"attributes":{
						"POSITION":4,
						"NORMAL":5,
						"TEXCOORD_0":6
					},
					"indices":7,
					"material":1
				}
			]
		},
		{
			"name":"Cylinder",
			"primitives":[
				{
					"attributes":{
						"POSITION":8,
						"NORMAL":9,
						"TEXCOORD_0":10
					},
					"indices":11,
					"material":2
				},
				{
					"attributes":{
						"POSITION":12,
						"NORMAL":13,
						"TEXCOORD_0":14
					},
					"indices":15,
					"material":3
				}
			]
		},
		{
			"name":"Cylinder.001",
			"primitives":[
				{
					"attributes":{
						"POSITION":16,
						"NORMAL":17,
						"TEXCOORD_0":18
					},
					"indices":11,
					"material":4
				},
				{
					"attributes":{
						"POSITION":19,
						"NORMAL":20,
						"TEXCOORD_0":21
					},
					"indices":15,
					"material":5
				}
			]
		},
		{
			"name":"Cylinder.002",
			"primitives":[
				{
					"attributes":{
						"POSITION":22,
						"NORMAL":23,
						"TEXCOORD_0":24
					},
					"indices":11,
					"material":6
				},
				{
					"attributes":{
						"POSITION":25,
						"NORMAL":26,
						"TEXCOORD_0":27
					},
					"indices":15,
					"material":7
				}
			]
		},
		{
			"name":"Cylinder.003",
			"primitives":[
				{
					"attributes":{
						"POSITION":28,
						"NORMAL":29,
						"TEXCOORD_0":30
					},
					"indices":11,
					"material":8
				},
				{
					"attributes":{
						"POSITION":31,
						"NORMAL":32,
						"TEXCOORD_0":33
					},
					"indices":15,
					"material":9
				}
			]
		},
		{
			"name":"Cube",
			"primitives":[
				{
					"attributes":{
						"POSITION":34,
						"NORMAL":35,
						"TEXCOORD_0":36
					},
					"indices":37,
					"material":10
				},
				{
					"attributes":{
						"POSITION":38,
						"NORMAL":39,
						"TEXCOORD_0":40
					},
					"indices":41,
					"material":11
				}
			]
		},
		{
			"name":"Cube.001",
			"primitives":[
				{
					"attributes":{
						"POSITION":42,
						"NORMAL":43,
						"TEXCOORD_0":44
					},
					"indices":3,
					"material":12
				},
				{
					"attributes":{
						"POSITION":45,
						"NORMAL":46,
						"TEXCOORD_0":47
					},
					"indices":7,
					"material":13
				}
			]
		}
	],
	"textures":[
		{
			"sampler":0,
			"source":0
		},
		{
			"sampler":0,
			"source":0
		},
		{
			"sampler":0,
			"source":0
		},
		{
			"sampler":0,
			"source":0
		},
		{
			"sampler":0,
			"source":1
		}
	],
	"images":[
		{
			"mimeType":"image/png",
			"name":"Rueda.png",
			"uri":"../../texturas/Rueda.png"
		},
		{
			"mimeType":"image/png",
			"name":"Carroceria.png",
			"uri":"../../texturas/Carroceria.png"
		}
	],
	"accessors":[
		{
			"bufferView":0,
			"componentType":5126,
			"count":1968,
			"max":[
				0.9765632748603821,
				0.9717157483100891,
				0.9769060015678406
			],
			"min":[
				0.7361637949943542,
				-1.2185900211334229,
				-7.47219705581665
			],
			"type":"VEC3"
		},
		{
			"bufferView":1,
			"componentType":5126,
			"count":1968,
			"type":"VEC3"
		},
		{
			"bufferView":2,
			"componentType":5126,
			"count":1968,
			"type":"VEC2"
		},
		{
			"bufferView":3,
			"componentType":5123,
			"count":3012,
			"type":"SCALAR"
		},
		{
			"bufferView":4,
			"componentType":5126,
			"count":1843,
			"max":[
				1,
				1,
				1
			],
			"min":[
				0.7269140481948853,
				-1.2445052862167358,
				-7.498368740081787
			],
			"type":"VEC3"
		},
		{
			"bufferView":5,
			"componentType":5126,
			"count":1843,
			"type":"VEC3"
		},
		{
			"bufferView":6,
			"componentType":5126,
			"count":1843,
			"type":"VEC2"
		},
		{
			"bufferView":7,
			"componentType":5123,
			"count":3012,
			"type":"SCALAR"
		},
		{
			"bufferView":8,
			"componentType":5126,
			"count":3776,
			"max":[
				0.9600158929824829,
				0.960018515586853,
				0.9600158929824829
			],
			"min":[
				-0.9600158929824829,
				-0.960018515586853,
				-0.9600158929824829
			],
			"type":"VEC3"
		},
		{
			"bufferView":9,
			"componentType":5126,
			"count":3776,
			"type":"VEC3"
		},
		{
			"bufferView":10,
			"componentType":5126,
			"count":3776,
			"type":"VEC2"
		},
		{
			"bufferView":11,
			"componentType":5123,
			"count":5748,
			"type":"SCALAR"
		},
		{
			"bufferView":12,
			"componentType":5126,
			"count":3776,
			"max":[
				1,
				1,
				1
			],
			"min":[
				-1,
				-1,
				-1
			],
			"type":"VEC3"
		},
		{
			"bufferView":13,
			"componentType":5126,
			"count":3776,
			"type":"VEC3"
		},
		{
			"bufferView":14,
			"componentType":5126,
			"count":3776,
			"type":"VEC2"
		},
		{
			"bufferView":15,
			"componentType":5123,
			"count":5748,
			"type":"SCALAR"
		},
		{
			"bufferView":16,
			"componentType":5126,
			"count":3776,
			"max":[
				0.9600158929824829,
				0.960018515586853,
				0.9600158929824829
			],
			"min":[
				-0.9600158929824829,
				-0.960018515586853,
				-0.9600158929824829
			],
			"type":"VEC3"
		},
		{
			"bufferView":17,
			"componentType":5126,
			"count":3776,
			"type":"VEC3"
		},
		{
			"bufferView":18,
			"componentType":5126,
			"count":3776,
			"type":"VEC2"
		},
		{
			"bufferView":19,
			"componentType":5126,
			"count":3776,
			"max":[
				1,
				1,
				1
			],
			"min":[
				-1,
				-1,
				-1
			],
			"type":"VEC3"
		},
		{
			"bufferView":20,
			"componentType":5126,
			"count":3776,
			"type":"VEC3"
		},
		{
			"bufferView":21,
			"componentType":5126,
			"count":3776,
			"type":"VEC2"
		},
		{
			"bufferView":22,
			"componentType":5126,
			"count":3776,
			"max":[
				0.9600158929824829,
				0.960018515586853,
				0.9600158929824829
			],
			"min":[
				-0.9600158929824829,
				-0.960018515586853,
				-0.9600158929824829
			],
			"type":"VEC3"
		},
		{
			"bufferView":23,
			"componentType":5126,
			"count":3776,
			"type":"VEC3"
		},
		{
			"bufferView":24,
			"componentType":5126,
			"count":3776,
			"type":"VEC2"
		},
		{
			"bufferView":25,
			"componentType":5126,
			"count":3776,
			"max":[
				1,
				1,
				1
			],
			"min":[
				-1,
				-1,
				-1
			],
			"type":"VEC3"
		},
		{
			"bufferView":26,
			"componentType":5126,
			"count":3776,
			"type":"VEC3"
		},
		{
			"bufferView":27,
			"componentType":5126,
			"count":3776,
			"type":"VEC2"
		},
		{
			"bufferView":28,
			"componentType":5126,
			"count":3776,
			"max":[
				0.9600158929824829,
				0.960018515586853,
				0.9600158929824829
			],
			"min":[
				-0.9600158929824829,
				-0.960018515586853,
				-0.9600158929824829
			],
			"type":"VEC3"
		},
		{
			"bufferView":29,
			"componentType":5126,
			"count":3776,
			"type":"VEC3"
		},
		{
			"bufferView":30,
			"componentType":5126,
			"count":3776,
			"type":"VEC2"
		},
		{
			"bufferView":31,
			"componentType":5126,
			"count":3776,
			"max":[
				1,
				1,
				1
			],
			"min":[
				-1,
				-1,
				-1
			],
			"type":"VEC3"
		},
		{
			"bufferView":32,
			"componentType":5126,
			"count":3776,
			"type":"VEC3"
		},
		{
			"bufferView":33,
			"componentType":5126,
			"count":3776,
			"type":"VEC2"
		},
		{
			"bufferView":34,
			"componentType":5126,
			"count":2014,
			"max":[
				0.7871432304382324,
				0.9830561280250549,
				2.3284425735473633
			],
			"min":[
				-0.7900840044021606,
				-0.5754411220550537,
				-2.1193532943725586
			],
			"type":"VEC3"
		},
		{
			"bufferView":35,
			"componentType":5126,
			"count":2014,
			"type":"VEC3"
		},
		{
			"bufferView":36,
			"componentType":5126,
			"count":2014,
			"type":"VEC2"
		},
		{
			"bufferView":37,
			"componentType":5123,
			"count":3072,
			"type":"SCALAR"
		},
		{
			"bufferView":38,
			"componentType":5126,
			"count":1746,
			"max":[
				0.7985296249389648,
				1,
				2.3407015800476074
			],
			"min":[
				-0.8014703989028931,
				-0.5865321159362793,
				-2.1353960037231445
			],
			"type":"VEC3"
		},
		{
			"bufferView":39,
			"componentType":5126,
			"count":1746,
			"type":"VEC3"
		},
		{
			"bufferView":40,
			"componentType":5126,
			"count":1746,
			"type":"VEC2"
		},
		{
			"bufferView":41,
			"componentType":5123,
			"count":3072,
			"type":"SCALAR"
		},
		{
			"bufferView":42,
			"componentType":5126,
			"count":1968,
			"max":[
				0.9765632748603821,
				0.9717157483100891,
				0.9769060015678406
			],
			"min":[
				0.7361637949943542,
				-1.2185900211334229,
				-7.47219705581665
			],
			"type":"VEC3"
		},
		{
			"bufferView":43,
			"componentType":5126,
			"count":1968,
			"type":"VEC3"
		},
		{
			"bufferView":44,
			"componentType":5126,
			"count":1968,
			"type":"VEC2"
		},
		{
			"bufferView":45,
			"componentType":5126,
			"count":1843,
			"max":[
				1,
				1,
				1
			],
			"min":[
				0.7269140481948853,
				-1.2445052862167358,
				-7.498368740081787
			],
			"type":"VEC3"
		},
		{
			"bufferView":46,
			"componentType":5126,
			"count":1843,
			"type":"VEC3"
		},
		{
			"bufferView":47,
			"componentType":5126,
			"count":1843,
			"type":"VEC2"
		}
	],
	"bufferViews":[
		{
			"buffer":0,
			"byteLength":23616,
			"byteOffset":0,
			"target":34962
		},
		{
			"buffer":0,
			"byteLength":23616,
			"byteOffset":23616,
			"target":34962
		},
		{
			"buffer":0,
			"byteLength":15744,
			"byteOffset":47232,
			"target":34962
		},
		{
			"buffer":0,
			"byteLength":6024,
			"byteOffset":62976,
			"target":34963
		},
		{
			"buffer":0,
			"byteLength":22116,
			"byteOffset":69000,
			"target":34962
		},
		{
			"buffer":0,
			"byteLength":22116,
			"byteOffset":91116,
			"target":34962
		},
		{
			"buffer":0,
			"byteLength":14744,
			"byteOffset":113232,
			"target":34962
		},
		{
			"buffer":0,
			"byteLength":6024,
			"byteOffset":127976,
			"target":34963
		},
		{
			"buffer":0,
			"byteLength":45312,
			"byteOffset":134000,
			"target":34962
		},
		{
			"buffer":0,
			"byteLength":45312,
			"byteOffset":179312,
			"target":34962
		},
		{
			"buffer":0,
			"byteLength":30208,
			"byteOffset":224624,
			"target":34962
		},
		{
			"buffer":0,
			"byteLength":11496,
			"byteOffset":254832,
			"target":34963
		},
		{
			"buffer":0,
			"byteLength":45312,
			"byteOffset":266328,
			"target":34962
		},
		{
			"buffer":0,
			"byteLength":45312,
			"byteOffset":311640,
			"target":34962
		},
		{
			"buffer":0,
			"byteLength":30208,
			"byteOffset":356952,
			"target":34962
		},
		{
			"buffer":0,
			"byteLength":11496,
			"byteOffset":387160,
			"target":34963
		},
		{
			"buffer":0,
			"byteLength":45312,
			"byteOffset":398656,
			"target":34962
		},
		{
			"buffer":0,
			"byteLength":45312,
			"byteOffset":443968,
			"target":34962
		},
		{
			"buffer":0,
			"byteLength":30208,
			"byteOffset":489280,
			"target":34962
		},
		{
			"buffer":0,
			"byteLength":45312,
			"byteOffset":519488,
			"target":34962
		},
		{
			"buffer":0,
			"byteLength":45312,
			"byteOffset":564800,
			"target":34962
		},
		{
			"buffer":0,
			"byteLength":30208,
			"byteOffset":610112,
			"target":34962
		},
		{
			"buffer":0,
			"byteLength":45312,
			"byteOffset":640320,
			"target":34962
		},
		{
			"buffer":0,
			"byteLength":45312,
			"byteOffset":685632,
			"target":34962
		},
		{
			"buffer":0,
			"byteLength":30208,
			"byteOffset":730944,
			"target":34962
		},
		{
			"buffer":0,
			"byteLength":45312,
			"byteOffset":761152,
			"target":34962
		},
		{
			"buffer":0,
			"byteLength":45312,
			"byteOffset":806464,
			"target":34962
		},
		{
			"buffer":0,
			"byteLength":30208,
			"byteOffset":851776,
			"target":34962
		},
		{
			"buffer":0,
			"byteLength":45312,
			"byteOffset":881984,
			"target":34962
		},
		{
			"buffer":0,
			"byteLength":45312,
			"byteOffset":927296,
			"target":34962
		},
		{
			"buffer":0,
			"byteLength":30208,
			"byteOffset":972608,
			"target":34962
		},
		{
			"buffer":0,
			"byteLength":45312,
			"byteOffset":1002816,
			"target":34962
		},
		{
			"buffer":0,
			"byteLength":45312,
			"byteOffset":1048128,
			"target":34962
		},
		{
			"buffer":0,
			"byteLength":30208,
			"byteOffset":1093440,
			"target":34962
		},
		{
			"buffer":0,
			"byteLength":24168,
			"byteOffset":1123648,
			"target":34962
		},
		{
			"buffer":0,
			"byteLength":24168,
			"byteOffset":1147816,
			"target":34962
		},
		{
			"buffer":0,
			"byteLength":16112,
			"byteOffset":1171984,
			"target":34962
		},
		{
			"buffer":0,
			"byteLength":6144,
			"byteOffset":1188096,
			"target":34963
		},
		{
			"buffer":0,
			"byteLength":20952,
			"byteOffset":1194240,
			"target":34962
		},
		{
			"buffer":0,
			"byteLength":20952,
			"byteOffset":1215192,
			"target":34962
		},
		{
			"buffer":0,
			"byteLength":13968,
			"byteOffset":1236144,
			"target":34962
		},
		{
			"buffer":0,
			"byteLength":6144,
			"byteOffset":1250112,
			"target":34963
		},
		{
			"buffer":0,
			"byteLength":23616,
			"byteOffset":1256256,
			"target":34962
		},
		{
			"buffer":0,
			"byteLength":23616,
			"byteOffset":1279872,
			"target":34962
		},
		{
			"buffer":0,
			"byteLength":15744,
			"byteOffset":1303488,
			"target":34962
		},
		{
			"buffer":0,
			"byteLength":22116,
			"byteOffset":1319232,
			"target":34962
		},
		{
			"buffer":0,
			"byteLength":22116,
			"byteOffset":1341348,
			"target":34962
		},
		{
			"buffer":0,
			"byteLength":14744,
			"byteOffset":1363464,
			"target":34962
		}
	],
	"samplers":[
		{
			"magFilter":9728,
			"minFilter":9984
		}
	],
	"buffers":[
		{
			"byteLength":1378208,
			"uri":"hell_extinguisher-ebf108bfba4b9a5b109ebeb650d2a8ff.bin"
		}
	]
}
