{
	"asset":{
		"generator":"Khronos glTF Blender I/O v4.4.56",
		"version":"2.0"
	},
	"scene":0,
	"scenes":[
		{
			"name":"Scene",
			"nodes":[
				0
			]
		}
	],
	"nodes":[
		{
			"mesh":0,
			"name":"Cube",
			"scale":[
				0.3660447597503662,
				0.4674835503101349,
				0.026415672153234482
			]
		}
	],
	"materials":[
		{
			"doubleSided":true,
			"name":"Material",
			"pbrMetallicRoughness":{
				"baseColorTexture":{
					"index":0
				},
				"metallicFactor":0
			}
		},
		{
			"name":"Material.001"
		}
	],
	"meshes":[
		{
			"name":"Cube",
			"primitives":[
				{
					"attributes":{
						"POSITION":0,
						"NORMAL":1,
						"TEXCOORD_0":2
					},
					"indices":3,
					"material":0
				},
				{
					"attributes":{
						"POSITION":4,
						"NORMAL":5,
						"TEXCOORD_0":6
					},
					"indices":7,
					"material":1
				}
			]
		}
	],
	"textures":[
		{
			"sampler":0,
			"source":0
		}
	],
	"images":[
		{
			"mimeType":"image/png",
			"name":"mascara.png",
			"uri":"../../texturas/mascara.png"
		}
	],
	"accessors":[
		{
			"bufferView":0,
			"componentType":5126,
			"count":1123,
			"max":[
				0.9353553652763367,
				0.9711320400238037,
				-0.5904008150100708
			],
			"min":[
				-0.9403608441352844,
				-0.9711329936981201,
				-30.1888370513916
			],
			"type":"VEC3"
		},
		{
			"bufferView":1,
			"componentType":5126,
			"count":1123,
			"type":"VEC3"
		},
		{
			"bufferView":2,
			"componentType":5126,
			"count":1123,
			"type":"VEC2"
		},
		{
			"bufferView":3,
			"componentType":5123,
			"count":2052,
			"type":"SCALAR"
		},
		{
			"bufferView":4,
			"componentType":5126,
			"count":615,
			"max":[
				0.9280011653900146,
				0.9999995231628418,
				-0.5904008150100708
			],
			"min":[
				-0.9424009323120117,
				-1.0000004768371582,
				-30.21770477294922
			],
			"type":"VEC3"
		},
		{
			"bufferView":5,
			"componentType":5126,
			"count":615,
			"type":"VEC3"
		},
		{
			"bufferView":6,
			"componentType":5126,
			"count":615,
			"type":"VEC2"
		},
		{
			"bufferView":7,
			"componentType":5123,
			"count":2034,
			"type":"SCALAR"
		}
	],
	"bufferViews":[
		{
			"buffer":0,
			"byteLength":13476,
			"byteOffset":0,
			"target":34962
		},
		{
			"buffer":0,
			"byteLength":13476,
			"byteOffset":13476,
			"target":34962
		},
		{
			"buffer":0,
			"byteLength":8984,
			"byteOffset":26952,
			"target":34962
		},
		{
			"buffer":0,
			"byteLength":4104,
			"byteOffset":35936,
			"target":34963
		},
		{
			"buffer":0,
			"byteLength":7380,
			"byteOffset":40040,
			"target":34962
		},
		{
			"buffer":0,
			"byteLength":7380,
			"byteOffset":47420,
			"target":34962
		},
		{
			"buffer":0,
			"byteLength":4920,
			"byteOffset":54800,
			"target":34962
		},
		{
			"buffer":0,
			"byteLength":4068,
			"byteOffset":59720,
			"target":34963
		}
	],
	"samplers":[
		{
			"magFilter":9728,
			"minFilter":9984
		}
	],
	"buffers":[
		{
			"byteLength":63788,
			"uri":"marcara%20soldado-89df688bca30cdaaa5bd3aa38c700b4a.bin"
		}
	]
}
