{
	"asset":{
		"generator":"Khronos glTF Blender I/O v4.5.47",
		"version":"2.0"
	},
	"scene":0,
	"scenes":[
		{
			"name":"Scene",
			"nodes":[
				0,
				1,
				2
			]
		}
	],
	"nodes":[
		{
			"mesh":0,
			"name":"Cube",
			"translation":[
				6,
				3.6600000858306885,
				-6
			]
		},
		{
			"mesh":1,
			"name":"Cube.001",
			"scale":[
				0.8635084629058838,
				0.8635084629058838,
				0.8635084629058838
			],
			"translation":[
				6.100778102874756,
				0.26300543546676636,
				-5.465573787689209
			]
		},
		{
			"mesh":2,
			"name":"Cube.002",
			"scale":[
				6.599999904632568,
				0.26399996876716614,
				6.599999904632568
			],
			"translation":[
				6,
				9,
				-6
			]
		}
	],
	"materials":[
		{
			"doubleSided":true,
			"name":"Material",
			"pbrMetallicRoughness":{
				"baseColorFactor":[
					0.800000011920929,
					0.800000011920929,
					0.800000011920929,
					1
				],
				"metallicFactor":0,
				"roughnessFactor":0.5
			}
		},
		{
			"doubleSided":true,
			"name":"Material.001",
			"pbrMetallicRoughness":{
				"baseColorFactor":[
					0,
					0,
					0,
					1
				],
				"metallicFactor":0
			}
		},
		{
			"doubleSided":true,
			"name":"Material.002",
			"pbrMetallicRoughness":{
				"baseColorTexture":{
					"index":0
				},
				"metallicFactor":0
			}
		},
		{
			"doubleSided":true,
			"name":"Material.003",
			"pbrMetallicRoughness":{
				"baseColorFactor":[
					0.03560110926628113,
					0.02121903747320175,
					0.011612252332270145,
					1
				],
				"metallicFactor":0
			}
		},
		{
			"doubleSided":true,
			"name":"Material.004",
			"pbrMetallicRoughness":{
				"baseColorFactor":[
					0,
					0,
					0,
					1
				],
				"metallicFactor":0
			}
		}
	],
	"meshes":[
		{
			"name":"Cube",
			"primitives":[
				{
					"attributes":{
						"POSITION":0,
						"NORMAL":1,
						"TEXCOORD_0":2,
						"TANGENT":3
					},
					"indices":4,
					"material":0
				},
				{
					"attributes":{
						"POSITION":5,
						"NORMAL":6,
						"TEXCOORD_0":7,
						"TANGENT":8
					},
					"indices":9,
					"material":1
				},
				{
					"attributes":{
						"POSITION":10,
						"NORMAL":11,
						"TEXCOORD_0":12,
						"TANGENT":13
					},
					"indices":14,
					"material":2
				}
			]
		},
		{
			"name":"Cube.001",
			"primitives":[
				{
					"attributes":{
						"POSITION":15,
						"NORMAL":16,
						"TEXCOORD_0":17
					},
					"indices":18,
					"material":3
				}
			]
		},
		{
			"name":"Cube.002",
			"primitives":[
				{
					"attributes":{
						"POSITION":19,
						"NORMAL":20,
						"TEXCOORD_0":21,
						"TANGENT":22
					},
					"indices":23,
					"material":4
				}
			]
		}
	],
	"textures":[
		{
			"sampler":0,
			"source":0
		}
	],
	"images":[
		{
			"mimeType":"image/png",
			"name":"piso_tierra.png",
			"uri":"../../texturas/piso_tierra.png"
		}
	],
	"accessors":[
		{
			"bufferView":0,
			"componentType":5126,
			"count":40,
			"max":[
				7,
				5.440000534057617,
				7
			],
			"min":[
				-7,
				-3.759999990463257,
				-7
			],
			"type":"VEC3"
		},
		{
			"bufferView":1,
			"componentType":5126,
			"count":40,
			"type":"VEC3"
		},
		{
			"bufferView":2,
			"componentType":5126,
			"count":40,
			"type":"VEC2"
		},
		{
			"bufferView":3,
			"componentType":5126,
			"count":40,
			"type":"VEC4"
		},
		{
			"bufferView":4,
			"componentType":5123,
			"count":78,
			"type":"SCALAR"
		},
		{
			"bufferView":5,
			"componentType":5126,
			"count":16,
			"max":[
				6.6330156326293945,
				5.440000534057617,
				6.6330156326293945
			],
			"min":[
				-6.6330156326293945,
				-3.56000018119812,
				-6.6330156326293945
			],
			"type":"VEC3"
		},
		{
			"bufferView":6,
			"componentType":5126,
			"count":16,
			"type":"VEC3"
		},
		{
			"bufferView":7,
			"componentType":5126,
			"count":16,
			"type":"VEC2"
		},
		{
			"bufferView":8,
			"componentType":5126,
			"count":16,
			"type":"VEC4"
		},
		{
			"bufferView":9,
			"componentType":5123,
			"count":24,
			"type":"SCALAR"
		},
		{
			"bufferView":10,
			"componentType":5126,
			"count":4,
			"max":[
				6.6330156326293945,
				-3.56000018119812,
				6.6330156326293945
			],
			"min":[
				-6.6330156326293945,
				-3.56000018119812,
				-6.6330156326293945
			],
			"type":"VEC3"
		},
		{
			"bufferView":11,
			"componentType":5126,
			"count":4,
			"type":"VEC3"
		},
		{
			"bufferView":12,
			"componentType":5126,
			"count":4,
			"type":"VEC2"
		},
		{
			"bufferView":13,
			"componentType":5126,
			"count":4,
			"type":"VEC4"
		},
		{
			"bufferView":14,
			"componentType":5123,
			"count":6,
			"type":"SCALAR"
		},
		{
			"bufferView":15,
			"componentType":5126,
			"count":33,
			"max":[
				1.7417458295822144,
				0.10735714435577393,
				1.7873282432556152
			],
			"min":[
				-1.703036904335022,
				-0.2415536642074585,
				-1.657454490661621
			],
			"type":"VEC3"
		},
		{
			"bufferView":16,
			"componentType":5126,
			"count":33,
			"type":"VEC3"
		},
		{
			"bufferView":17,
			"componentType":5126,
			"count":33,
			"type":"VEC2"
		},
		{
			"bufferView":18,
			"componentType":5123,
			"count":66,
			"type":"SCALAR"
		},
		{
			"bufferView":19,
			"componentType":5126,
			"count":24,
			"max":[
				1,
				1,
				1
			],
			"min":[
				-1,
				-1,
				-1
			],
			"type":"VEC3"
		},
		{
			"bufferView":20,
			"componentType":5126,
			"count":24,
			"type":"VEC3"
		},
		{
			"bufferView":21,
			"componentType":5126,
			"count":24,
			"type":"VEC2"
		},
		{
			"bufferView":22,
			"componentType":5126,
			"count":24,
			"type":"VEC4"
		},
		{
			"bufferView":23,
			"componentType":5123,
			"count":36,
			"type":"SCALAR"
		}
	],
	"bufferViews":[
		{
			"buffer":0,
			"byteLength":480,
			"byteOffset":0,
			"target":34962
		},
		{
			"buffer":0,
			"byteLength":480,
			"byteOffset":480,
			"target":34962
		},
		{
			"buffer":0,
			"byteLength":320,
			"byteOffset":960,
			"target":34962
		},
		{
			"buffer":0,
			"byteLength":640,
			"byteOffset":1280,
			"target":34962
		},
		{
			"buffer":0,
			"byteLength":156,
			"byteOffset":1920,
			"target":34963
		},
		{
			"buffer":0,
			"byteLength":192,
			"byteOffset":2076,
			"target":34962
		},
		{
			"buffer":0,
			"byteLength":192,
			"byteOffset":2268,
			"target":34962
		},
		{
			"buffer":0,
			"byteLength":128,
			"byteOffset":2460,
			"target":34962
		},
		{
			"buffer":0,
			"byteLength":256,
			"byteOffset":2588,
			"target":34962
		},
		{
			"buffer":0,
			"byteLength":48,
			"byteOffset":2844,
			"target":34963
		},
		{
			"buffer":0,
			"byteLength":48,
			"byteOffset":2892,
			"target":34962
		},
		{
			"buffer":0,
			"byteLength":48,
			"byteOffset":2940,
			"target":34962
		},
		{
			"buffer":0,
			"byteLength":32,
			"byteOffset":2988,
			"target":34962
		},
		{
			"buffer":0,
			"byteLength":64,
			"byteOffset":3020,
			"target":34962
		},
		{
			"buffer":0,
			"byteLength":12,
			"byteOffset":3084,
			"target":34963
		},
		{
			"buffer":0,
			"byteLength":396,
			"byteOffset":3096,
			"target":34962
		},
		{
			"buffer":0,
			"byteLength":396,
			"byteOffset":3492,
			"target":34962
		},
		{
			"buffer":0,
			"byteLength":264,
			"byteOffset":3888,
			"target":34962
		},
		{
			"buffer":0,
			"byteLength":132,
			"byteOffset":4152,
			"target":34963
		},
		{
			"buffer":0,
			"byteLength":288,
			"byteOffset":4284,
			"target":34962
		},
		{
			"buffer":0,
			"byteLength":288,
			"byteOffset":4572,
			"target":34962
		},
		{
			"buffer":0,
			"byteLength":192,
			"byteOffset":4860,
			"target":34962
		},
		{
			"buffer":0,
			"byteLength":384,
			"byteOffset":5052,
			"target":34962
		},
		{
			"buffer":0,
			"byteLength":72,
			"byteOffset":5436,
			"target":34963
		}
	],
	"samplers":[
		{
			"magFilter":9728,
			"minFilter":9984
		}
	],
	"buffers":[
		{
			"byteLength":5508,
			"uri":"Menu-79166208c6cde5c0f91bdde9acac6331.bin"
		}
	]
}
