{
	"asset":{
		"generator":"Khronos glTF Blender I/O v4.4.56",
		"version":"2.0"
	},
	"scene":0,
	"scenes":[
		{
			"name":"Scene",
			"nodes":[
				0
			]
		}
	],
	"nodes":[
		{
			"mesh":0,
			"name":"Cube"
		}
	],
	"materials":[
		{
			"doubleSided":true,
			"name":"Material",
			"pbrMetallicRoughness":{
				"baseColorFactor":[
					0.02889879420399666,
					0.0783500075340271,
					0.06011191010475159,
					1
				],
				"metallicFactor":0.261904776096344
			}
		},
		{
			"doubleSided":true,
			"name":"Material.001",
			"pbrMetallicRoughness":{
				"baseColorTexture":{
					"index":0
				},
				"metallicFactor":0
			}
		},
		{
			"doubleSided":true,
			"name":"Material.002",
			"pbrMetallicRoughness":{
				"baseColorFactor":[
					0,
					0,
					0,
					1
				],
				"metallicFactor":0
			}
		}
	],
	"meshes":[
		{
			"name":"Cube",
			"primitives":[
				{
					"attributes":{
						"POSITION":0,
						"NORMAL":1,
						"TEXCOORD_0":2,
						"TANGENT":3
					},
					"indices":4,
					"material":0
				},
				{
					"attributes":{
						"POSITION":5,
						"NORMAL":6,
						"TEXCOORD_0":7,
						"TANGENT":8
					},
					"indices":9,
					"material":1
				},
				{
					"attributes":{
						"POSITION":10,
						"NORMAL":11,
						"TEXCOORD_0":12,
						"TANGENT":13
					},
					"indices":14,
					"material":2
				}
			]
		}
	],
	"textures":[
		{
			"sampler":0,
			"source":0
		}
	],
	"images":[
		{
			"mimeType":"image/png",
			"name":"tv.png",
			"uri":"../../texturas/tv.png"
		}
	],
	"accessors":[
		{
			"bufferView":0,
			"componentType":5126,
			"count":292,
			"max":[
				0.7388393878936768,
				1.4695523977279663,
				0.8943766355514526
			],
			"min":[
				0.5930658578872681,
				0.34013649821281433,
				-0.9201183319091797
			],
			"type":"VEC3"
		},
		{
			"bufferView":1,
			"componentType":5126,
			"count":292,
			"type":"VEC3"
		},
		{
			"bufferView":2,
			"componentType":5126,
			"count":292,
			"type":"VEC2"
		},
		{
			"bufferView":3,
			"componentType":5126,
			"count":292,
			"type":"VEC4"
		},
		{
			"bufferView":4,
			"componentType":5123,
			"count":438,
			"type":"SCALAR"
		},
		{
			"bufferView":5,
			"componentType":5126,
			"count":84,
			"max":[
				0.6916283369064331,
				1.6048444509506226,
				1.287085771560669
			],
			"min":[
				-0.6916283369064331,
				-0.5951555371284485,
				-1.287085771560669
			],
			"type":"VEC3"
		},
		{
			"bufferView":6,
			"componentType":5126,
			"count":84,
			"type":"VEC3"
		},
		{
			"bufferView":7,
			"componentType":5126,
			"count":84,
			"type":"VEC2"
		},
		{
			"bufferView":8,
			"componentType":5126,
			"count":84,
			"type":"VEC4"
		},
		{
			"bufferView":9,
			"componentType":5123,
			"count":264,
			"type":"SCALAR"
		},
		{
			"bufferView":10,
			"componentType":5126,
			"count":76,
			"max":[
				0.6916283369064331,
				1.4695523977279663,
				1.287085771560669
			],
			"min":[
				-0.6916283369064331,
				-0.5951555371284485,
				-1.287085771560669
			],
			"type":"VEC3"
		},
		{
			"bufferView":11,
			"componentType":5126,
			"count":76,
			"type":"VEC3"
		},
		{
			"bufferView":12,
			"componentType":5126,
			"count":76,
			"type":"VEC2"
		},
		{
			"bufferView":13,
			"componentType":5126,
			"count":76,
			"type":"VEC4"
		},
		{
			"bufferView":14,
			"componentType":5123,
			"count":126,
			"type":"SCALAR"
		}
	],
	"bufferViews":[
		{
			"buffer":0,
			"byteLength":3504,
			"byteOffset":0,
			"target":34962
		},
		{
			"buffer":0,
			"byteLength":3504,
			"byteOffset":3504,
			"target":34962
		},
		{
			"buffer":0,
			"byteLength":2336,
			"byteOffset":7008,
			"target":34962
		},
		{
			"buffer":0,
			"byteLength":4672,
			"byteOffset":9344,
			"target":34962
		},
		{
			"buffer":0,
			"byteLength":876,
			"byteOffset":14016,
			"target":34963
		},
		{
			"buffer":0,
			"byteLength":1008,
			"byteOffset":14892,
			"target":34962
		},
		{
			"buffer":0,
			"byteLength":1008,
			"byteOffset":15900,
			"target":34962
		},
		{
			"buffer":0,
			"byteLength":672,
			"byteOffset":16908,
			"target":34962
		},
		{
			"buffer":0,
			"byteLength":1344,
			"byteOffset":17580,
			"target":34962
		},
		{
			"buffer":0,
			"byteLength":528,
			"byteOffset":18924,
			"target":34963
		},
		{
			"buffer":0,
			"byteLength":912,
			"byteOffset":19452,
			"target":34962
		},
		{
			"buffer":0,
			"byteLength":912,
			"byteOffset":20364,
			"target":34962
		},
		{
			"buffer":0,
			"byteLength":608,
			"byteOffset":21276,
			"target":34962
		},
		{
			"buffer":0,
			"byteLength":1216,
			"byteOffset":21884,
			"target":34962
		},
		{
			"buffer":0,
			"byteLength":252,
			"byteOffset":23100,
			"target":34963
		}
	],
	"samplers":[
		{
			"magFilter":9728,
			"minFilter":9984
		}
	],
	"buffers":[
		{
			"byteLength":23352,
			"uri":"old_tv-5ef6c6314fb17f3d7acca2c253598aff.bin"
		}
	]
}
