{
	"asset":{
		"generator":"Khronos glTF Blender I/O v4.5.47",
		"version":"2.0"
	},
	"scene":0,
	"scenes":[
		{
			"name":"Scene",
			"nodes":[
				0,
				1
			]
		}
	],
	"nodes":[
		{
			"mesh":0,
			"name":"Cylinder",
			"scale":[
				0.027626262977719307,
				0.027626262977719307,
				0.027626262977719307
			]
		},
		{
			"mesh":1,
			"name":"Cylinder.001",
			"scale":[
				0.032923758029937744,
				0.008712912909686565,
				0.032923758029937744
			],
			"translation":[
				0,
				0.10757671296596527,
				0
			]
		}
	],
	"materials":[
		{
			"alphaMode":"BLEND",
			"doubleSided":true,
			"name":"Material.001",
			"pbrMetallicRoughness":{
				"baseColorFactor":[
					0.1600584238767624,
					0.08582159876823425,
					0.03757748752832413,
					0.634920597076416
				],
				"metallicFactor":0.1428571492433548,
				"roughnessFactor":0.3095238208770752
			}
		},
		{
			"doubleSided":true,
			"name":"Material.002",
			"pbrMetallicRoughness":{
				"baseColorTexture":{
					"index":0
				},
				"metallicFactor":0
			}
		},
		{
			"emissiveFactor":[
				0.010219499468803406,
				0.010219499468803406,
				0.010219499468803406
			],
			"name":"Material.005",
			"pbrMetallicRoughness":{
				"baseColorFactor":[
					0,
					0,
					0,
					1
				]
			}
		},
		{
			"doubleSided":true,
			"name":"Material.003",
			"pbrMetallicRoughness":{
				"baseColorFactor":[
					0.800000011920929,
					0.800000011920929,
					0.800000011920929,
					1
				],
				"metallicFactor":0,
				"roughnessFactor":0.5
			}
		},
		{
			"name":"Material.004"
		}
	],
	"meshes":[
		{
			"name":"Cylinder",
			"primitives":[
				{
					"attributes":{
						"POSITION":0,
						"NORMAL":1,
						"TEXCOORD_0":2
					},
					"indices":3,
					"material":0
				},
				{
					"attributes":{
						"POSITION":4,
						"NORMAL":5,
						"TEXCOORD_0":6
					},
					"indices":7,
					"material":1
				},
				{
					"attributes":{
						"POSITION":8,
						"NORMAL":9,
						"TEXCOORD_0":10
					},
					"indices":11,
					"material":2
				}
			]
		},
		{
			"name":"Cylinder.001",
			"primitives":[
				{
					"attributes":{
						"POSITION":12,
						"NORMAL":13,
						"TEXCOORD_0":14
					},
					"indices":15,
					"material":3
				},
				{
					"attributes":{
						"POSITION":16,
						"NORMAL":17,
						"TEXCOORD_0":18
					},
					"indices":19,
					"material":4
				}
			]
		}
	],
	"textures":[
		{
			"sampler":0,
			"source":0
		}
	],
	"images":[
		{
			"mimeType":"image/png",
			"name":"etiqueta_pastillas.png",
			"uri":"../../texturas/etiqueta_pastillas.png"
		}
	],
	"accessors":[
		{
			"bufferView":0,
			"componentType":5126,
			"count":380,
			"max":[
				0.9706048965454102,
				3.50669264793396,
				0.9706048965454102
			],
			"min":[
				-0.9706048965454102,
				-0.9728720784187317,
				-0.9706048965454102
			],
			"type":"VEC3"
		},
		{
			"bufferView":1,
			"componentType":5126,
			"count":380,
			"type":"VEC3"
		},
		{
			"bufferView":2,
			"componentType":5126,
			"count":380,
			"type":"VEC2"
		},
		{
			"bufferView":3,
			"componentType":5123,
			"count":654,
			"type":"SCALAR"
		},
		{
			"bufferView":4,
			"componentType":5126,
			"count":68,
			"max":[
				0.9599999785423279,
				3.3350014686584473,
				0.9599999785423279
			],
			"min":[
				-0.9599999785423279,
				-0.442562460899353,
				-0.18728670477867126
			],
			"type":"VEC3"
		},
		{
			"bufferView":5,
			"componentType":5126,
			"count":68,
			"type":"VEC3"
		},
		{
			"bufferView":6,
			"componentType":5126,
			"count":68,
			"type":"VEC2"
		},
		{
			"bufferView":7,
			"componentType":5123,
			"count":102,
			"type":"SCALAR"
		},
		{
			"bufferView":8,
			"componentType":5126,
			"count":388,
			"max":[
				1,
				3.533820629119873,
				1
			],
			"min":[
				-1,
				-1,
				-1
			],
			"type":"VEC3"
		},
		{
			"bufferView":9,
			"componentType":5126,
			"count":388,
			"type":"VEC3"
		},
		{
			"bufferView":10,
			"componentType":5126,
			"count":388,
			"type":"VEC2"
		},
		{
			"bufferView":11,
			"componentType":5123,
			"count":756,
			"type":"SCALAR"
		},
		{
			"bufferView":12,
			"componentType":5126,
			"count":192,
			"max":[
				0.9706048965454102,
				0.9728720188140869,
				0.9706048965454102
			],
			"min":[
				-0.9706048965454102,
				-0.9728720188140869,
				-0.9706048965454102
			],
			"type":"VEC3"
		},
		{
			"bufferView":13,
			"componentType":5126,
			"count":192,
			"type":"VEC3"
		},
		{
			"bufferView":14,
			"componentType":5126,
			"count":192,
			"type":"VEC2"
		},
		{
			"bufferView":15,
			"componentType":5123,
			"count":372,
			"type":"SCALAR"
		},
		{
			"bufferView":16,
			"componentType":5126,
			"count":192,
			"max":[
				1,
				1,
				1
			],
			"min":[
				-1,
				-1,
				-1
			],
			"type":"VEC3"
		},
		{
			"bufferView":17,
			"componentType":5126,
			"count":192,
			"type":"VEC3"
		},
		{
			"bufferView":18,
			"componentType":5126,
			"count":192,
			"type":"VEC2"
		},
		{
			"bufferView":19,
			"componentType":5123,
			"count":372,
			"type":"SCALAR"
		}
	],
	"bufferViews":[
		{
			"buffer":0,
			"byteLength":4560,
			"byteOffset":0,
			"target":34962
		},
		{
			"buffer":0,
			"byteLength":4560,
			"byteOffset":4560,
			"target":34962
		},
		{
			"buffer":0,
			"byteLength":3040,
			"byteOffset":9120,
			"target":34962
		},
		{
			"buffer":0,
			"byteLength":1308,
			"byteOffset":12160,
			"target":34963
		},
		{
			"buffer":0,
			"byteLength":816,
			"byteOffset":13468,
			"target":34962
		},
		{
			"buffer":0,
			"byteLength":816,
			"byteOffset":14284,
			"target":34962
		},
		{
			"buffer":0,
			"byteLength":544,
			"byteOffset":15100,
			"target":34962
		},
		{
			"buffer":0,
			"byteLength":204,
			"byteOffset":15644,
			"target":34963
		},
		{
			"buffer":0,
			"byteLength":4656,
			"byteOffset":15848,
			"target":34962
		},
		{
			"buffer":0,
			"byteLength":4656,
			"byteOffset":20504,
			"target":34962
		},
		{
			"buffer":0,
			"byteLength":3104,
			"byteOffset":25160,
			"target":34962
		},
		{
			"buffer":0,
			"byteLength":1512,
			"byteOffset":28264,
			"target":34963
		},
		{
			"buffer":0,
			"byteLength":2304,
			"byteOffset":29776,
			"target":34962
		},
		{
			"buffer":0,
			"byteLength":2304,
			"byteOffset":32080,
			"target":34962
		},
		{
			"buffer":0,
			"byteLength":1536,
			"byteOffset":34384,
			"target":34962
		},
		{
			"buffer":0,
			"byteLength":744,
			"byteOffset":35920,
			"target":34963
		},
		{
			"buffer":0,
			"byteLength":2304,
			"byteOffset":36664,
			"target":34962
		},
		{
			"buffer":0,
			"byteLength":2304,
			"byteOffset":38968,
			"target":34962
		},
		{
			"buffer":0,
			"byteLength":1536,
			"byteOffset":41272,
			"target":34962
		},
		{
			"buffer":0,
			"byteLength":744,
			"byteOffset":42808,
			"target":34963
		}
	],
	"samplers":[
		{
			"magFilter":9728,
			"minFilter":9984
		}
	],
	"buffers":[
		{
			"byteLength":43552,
			"uri":"pastillas-ee23a23171cee01c305bda6e53b191fc.bin"
		}
	]
}
