{
	"asset":{
		"generator":"Khronos glTF Blender I/O v4.4.56",
		"version":"2.0"
	},
	"scene":0,
	"scenes":[
		{
			"name":"Scene",
			"nodes":[
				0,
				1,
				2
			]
		}
	],
	"nodes":[
		{
			"mesh":0,
			"name":"Cube",
			"scale":[
				0.0732804536819458,
				0.08686728775501251,
				0.08721041679382324
			],
			"translation":[
				0,
				-0.023922674357891083,
				0
			]
		},
		{
			"mesh":1,
			"name":"Cube.001",
			"scale":[
				0.15095536410808563,
				0.030191069468855858,
				0.15095536410808563
			],
			"translation":[
				0.0368865504860878,
				-0.18352919816970825,
				0
			]
		},
		{
			"mesh":2,
			"name":"Cube.002",
			"scale":[
				0.061984408646821976,
				0.008594658225774765,
				0.13751447200775146
			],
			"translation":[
				0.31766027212142944,
				-0.2199999988079071,
				0
			]
		}
	],
	"materials":[
		{
			"doubleSided":true,
			"name":"Material",
			"pbrMetallicRoughness":{
				"baseColorTexture":{
					"index":0
				},
				"metallicFactor":0
			}
		},
		{
			"doubleSided":true,
			"name":"pantalla",
			"pbrMetallicRoughness":{
				"baseColorTexture":{
					"index":1
				}
			}
		},
		{
			"doubleSided":true,
			"name":"Material.001",
			"pbrMetallicRoughness":{
				"baseColorTexture":{
					"index":2
				},
				"metallicFactor":0
			}
		}
	],
	"meshes":[
		{
			"name":"Cube",
			"primitives":[
				{
					"attributes":{
						"POSITION":0,
						"NORMAL":1,
						"TEXCOORD_0":2,
						"TANGENT":3
					},
					"indices":4,
					"material":0
				},
				{
					"attributes":{
						"POSITION":5,
						"NORMAL":6,
						"TEXCOORD_0":7,
						"TANGENT":8
					},
					"indices":9,
					"material":1
				}
			]
		},
		{
			"name":"Cube.001",
			"primitives":[
				{
					"attributes":{
						"POSITION":10,
						"NORMAL":11,
						"TEXCOORD_0":12,
						"TANGENT":13
					},
					"indices":14,
					"material":2
				}
			]
		},
		{
			"name":"Cube.002",
			"primitives":[
				{
					"attributes":{
						"POSITION":15,
						"NORMAL":16,
						"TEXCOORD_0":17,
						"TANGENT":18
					},
					"indices":14
				}
			]
		}
	],
	"textures":[
		{
			"sampler":0,
			"source":0
		},
		{
			"sampler":0,
			"source":1
		},
		{
			"sampler":0,
			"source":2
		}
	],
	"images":[
		{
			"mimeType":"image/png",
			"name":"PC.png",
			"uri":"../../texturas/PC.png"
		},
		{
			"mimeType":"image/png",
			"name":"pantalla001.png",
			"uri":"../../texturas/pantalla001.png"
		},
		{
			"mimeType":"image/png",
			"name":"CPU.png",
			"uri":"../../texturas/CPU.png"
		}
	],
	"accessors":[
		{
			"bufferView":0,
			"componentType":5126,
			"count":92,
			"max":[
				2.0868959426879883,
				1.480029821395874,
				1.4800294637680054
			],
			"min":[
				-1.2044321298599243,
				-1.480029821395874,
				-1.4800294637680054
			],
			"type":"VEC3"
		},
		{
			"bufferView":1,
			"componentType":5126,
			"count":92,
			"type":"VEC3"
		},
		{
			"bufferView":2,
			"componentType":5126,
			"count":92,
			"type":"VEC2"
		},
		{
			"bufferView":3,
			"componentType":5126,
			"count":92,
			"type":"VEC4"
		},
		{
			"bufferView":4,
			"componentType":5123,
			"count":150,
			"type":"SCALAR"
		},
		{
			"bufferView":5,
			"componentType":5126,
			"count":100,
			"max":[
				2.1158666610717773,
				1.2886958122253418,
				1.2886954545974731
			],
			"min":[
				1.9251526594161987,
				-1.2886958122253418,
				-1.2886954545974731
			],
			"type":"VEC3"
		},
		{
			"bufferView":6,
			"componentType":5126,
			"count":100,
			"type":"VEC3"
		},
		{
			"bufferView":7,
			"componentType":5126,
			"count":100,
			"type":"VEC2"
		},
		{
			"bufferView":8,
			"componentType":5126,
			"count":100,
			"type":"VEC4"
		},
		{
			"bufferView":9,
			"componentType":5123,
			"count":150,
			"type":"SCALAR"
		},
		{
			"bufferView":10,
			"componentType":5126,
			"count":24,
			"max":[
				1,
				1,
				1
			],
			"min":[
				-1,
				-1.4185742139816284,
				-1
			],
			"type":"VEC3"
		},
		{
			"bufferView":11,
			"componentType":5126,
			"count":24,
			"type":"VEC3"
		},
		{
			"bufferView":12,
			"componentType":5126,
			"count":24,
			"type":"VEC2"
		},
		{
			"bufferView":13,
			"componentType":5126,
			"count":24,
			"type":"VEC4"
		},
		{
			"bufferView":14,
			"componentType":5123,
			"count":36,
			"type":"SCALAR"
		},
		{
			"bufferView":15,
			"componentType":5126,
			"count":24,
			"max":[
				1,
				1,
				1
			],
			"min":[
				-1,
				-1,
				-1
			],
			"type":"VEC3"
		},
		{
			"bufferView":16,
			"componentType":5126,
			"count":24,
			"type":"VEC3"
		},
		{
			"bufferView":17,
			"componentType":5126,
			"count":24,
			"type":"VEC2"
		},
		{
			"bufferView":18,
			"componentType":5126,
			"count":24,
			"type":"VEC4"
		}
	],
	"bufferViews":[
		{
			"buffer":0,
			"byteLength":1104,
			"byteOffset":0,
			"target":34962
		},
		{
			"buffer":0,
			"byteLength":1104,
			"byteOffset":1104,
			"target":34962
		},
		{
			"buffer":0,
			"byteLength":736,
			"byteOffset":2208,
			"target":34962
		},
		{
			"buffer":0,
			"byteLength":1472,
			"byteOffset":2944,
			"target":34962
		},
		{
			"buffer":0,
			"byteLength":300,
			"byteOffset":4416,
			"target":34963
		},
		{
			"buffer":0,
			"byteLength":1200,
			"byteOffset":4716,
			"target":34962
		},
		{
			"buffer":0,
			"byteLength":1200,
			"byteOffset":5916,
			"target":34962
		},
		{
			"buffer":0,
			"byteLength":800,
			"byteOffset":7116,
			"target":34962
		},
		{
			"buffer":0,
			"byteLength":1600,
			"byteOffset":7916,
			"target":34962
		},
		{
			"buffer":0,
			"byteLength":300,
			"byteOffset":9516,
			"target":34963
		},
		{
			"buffer":0,
			"byteLength":288,
			"byteOffset":9816,
			"target":34962
		},
		{
			"buffer":0,
			"byteLength":288,
			"byteOffset":10104,
			"target":34962
		},
		{
			"buffer":0,
			"byteLength":192,
			"byteOffset":10392,
			"target":34962
		},
		{
			"buffer":0,
			"byteLength":384,
			"byteOffset":10584,
			"target":34962
		},
		{
			"buffer":0,
			"byteLength":72,
			"byteOffset":10968,
			"target":34963
		},
		{
			"buffer":0,
			"byteLength":288,
			"byteOffset":11040,
			"target":34962
		},
		{
			"buffer":0,
			"byteLength":288,
			"byteOffset":11328,
			"target":34962
		},
		{
			"buffer":0,
			"byteLength":192,
			"byteOffset":11616,
			"target":34962
		},
		{
			"buffer":0,
			"byteLength":384,
			"byteOffset":11808,
			"target":34962
		}
	],
	"samplers":[
		{
			"magFilter":9728,
			"minFilter":9984
		}
	],
	"buffers":[
		{
			"byteLength":12192,
			"uri":"PC_01-6e4a73d59022e6de75ba5268722eb7dd.bin"
		}
	]
}
