{
	"asset":{
		"generator":"Khronos glTF Blender I/O v4.5.48",
		"version":"2.0"
	},
	"scene":0,
	"scenes":[
		{
			"name":"Scene",
			"nodes":[
				53
			]
		}
	],
	"nodes":[
		{
			"name":"Bone.021.L",
			"rotation":[
				-1.7789418052416295e-05,
				1.0168406117117001e-09,
				0.007097311783581972,
				0.9999748468399048
			],
			"translation":[
				2.9103830456733704e-09,
				0.1431744545698166,
				7.974449545145035e-08
			]
		},
		{
			"children":[
				0
			],
			"name":"Bone.020.L",
			"rotation":[
				-0.0007664960576221347,
				4.874878811733652e-08,
				0.30581045150756836,
				0.9520921111106873
			],
			"scale":[
				1.0000001192092896,
				1.0000001192092896,
				1
			],
			"translation":[
				5.4016709327697754e-08,
				0.20582567155361176,
				1.1590600479394197e-07
			]
		},
		{
			"children":[
				1
			],
			"name":"Bone.019.L",
			"rotation":[
				0.0271294005215168,
				0.012383836321532726,
				-0.43049225211143494,
				0.902101457118988
			],
			"scale":[
				0.9999999403953552,
				1,
				1
			],
			"translation":[
				-6.135087460279465e-08,
				0.30373597145080566,
				4.493631422519684e-08
			]
		},
		{
			"children":[
				2
			],
			"name":"Bone.006.L",
			"rotation":[
				-0.04028182849287987,
				-0.0006045870832167566,
				0.1093914732336998,
				0.9931820631027222
			],
			"translation":[
				1.3309106827686865e-14,
				1.0146220922470093,
				3.725290298461914e-08
			]
		},
		{
			"name":"Bone.018.L",
			"rotation":[
				-2.8183279937366024e-05,
				4.727434887996651e-09,
				0.029790306463837624,
				0.9995561838150024
			],
			"scale":[
				1,
				0.9999999403953552,
				1
			],
			"translation":[
				5.820766091346741e-10,
				0.15880656242370605,
				-1.9239450921304524e-08
			]
		},
		{
			"children":[
				4
			],
			"name":"Bone.017.L",
			"rotation":[
				-0.00013708829646930099,
				2.269313270630846e-08,
				0.14490945637226105,
				0.98944491147995
			],
			"scale":[
				0.9999999403953552,
				1,
				0.9999999403953552
			],
			"translation":[
				-1.746811904013157e-07,
				0.1891220659017563,
				2.4339897208847106e-08
			]
		},
		{
			"children":[
				5
			],
			"name":"Bone.016.L",
			"rotation":[
				0.02869909442961216,
				0.005232454743236303,
				-0.18088671565055847,
				0.9830712080001831
			],
			"scale":[
				1,
				0.9999999403953552,
				1
			],
			"translation":[
				-9.371433407068253e-09,
				0.30206331610679626,
				-7.384369382634759e-08
			]
		},
		{
			"children":[
				6
			],
			"name":"Bone.007.L",
			"rotation":[
				-0.04052759334445,
				-0.00023571592464577407,
				0.041508749127388,
				0.9983158707618713
			],
			"scale":[
				0.9999999403953552,
				0.9999999403953552,
				1.0000001192092896
			],
			"translation":[
				1.3309106827686865e-14,
				1.0146220922470093,
				3.725290298461914e-08
			]
		},
		{
			"name":"Bone.015.R",
			"rotation":[
				4.351753432274563e-06,
				8.722021438423155e-10,
				0.005381058901548386,
				0.9999855160713196
			],
			"scale":[
				0.9999999403953552,
				1,
				1
			],
			"translation":[
				7.566995918750763e-10,
				0.15804024040699005,
				8.589267963543534e-09
			]
		},
		{
			"children":[
				8
			],
			"name":"Bone.014.R",
			"rotation":[
				-9.176215826300904e-05,
				-1.9121472405458917e-08,
				-0.11346698552370071,
				0.9935417771339417
			],
			"scale":[
				1,
				1.0000001192092896,
				1
			],
			"translation":[
				3.1548552215099335e-08,
				0.1474892795085907,
				-9.095765562960878e-08
			]
		},
		{
			"children":[
				9
			],
			"name":"Bone.013.R",
			"rotation":[
				0.027447393164038658,
				-0.004233843646943569,
				0.15345506370067596,
				0.9877653121948242
			],
			"scale":[
				1,
				1,
				1.0000001192092896
			],
			"translation":[
				-1.1408701539039612e-08,
				0.31684890389442444,
				-1.5152181731536984e-08
			]
		},
		{
			"children":[
				10
			],
			"name":"Bone.008.R",
			"rotation":[
				-0.03918278589844704,
				7.495702448068187e-05,
				-0.03041042387485504,
				0.998769223690033
			],
			"scale":[
				1,
				0.9999999403953552,
				1
			],
			"translation":[
				1.3309106827686865e-14,
				1.0146220922470093,
				3.725290298461914e-08
			]
		},
		{
			"name":"Bone.012.R",
			"rotation":[
				-5.239543679635972e-05,
				-3.7318552692511275e-09,
				-0.021009724587202072,
				0.9997792840003967
			],
			"translation":[
				2.2118911147117615e-09,
				0.13442732393741608,
				-8.129427442327142e-08
			]
		},
		{
			"children":[
				12
			],
			"name":"Bone.011.R",
			"rotation":[
				-0.0009352346532978117,
				-5.216314491462981e-08,
				-0.37502342462539673,
				0.9270148873329163
			],
			"scale":[
				0.9999999403953552,
				1,
				1
			],
			"translation":[
				3.096647560596466e-08,
				0.1906731277704239,
				-1.9768776837736368e-08
			]
		},
		{
			"children":[
				13
			],
			"name":"Bone.010.R",
			"rotation":[
				0.02597007155418396,
				-0.01347445510327816,
				0.478837788105011,
				0.8774157762527466
			],
			"scale":[
				1,
				1,
				0.9999999403953552
			],
			"translation":[
				7.019843906164169e-08,
				0.31063494086265564,
				-4.190951585769653e-09
			]
		},
		{
			"children":[
				14
			],
			"name":"Bone.009.R",
			"rotation":[
				-0.039645757526159286,
				0.000532996142283082,
				-0.10879302769899368,
				0.9932733774185181
			],
			"scale":[
				0.9999999403953552,
				1,
				0.9999999403953552
			],
			"translation":[
				1.3309106827686865e-14,
				1.0146220922470093,
				3.725290298461914e-08
			]
		},
		{
			"children":[
				3,
				7,
				11,
				15
			],
			"name":"Bone.005.R",
			"rotation":[
				0.036516495048999786,
				-4.652162020820109e-15,
				-8.706205534281253e-09,
				0.9993330240249634
			],
			"translation":[
				4.453296048980218e-15,
				0.9874067306518555,
				2.9802322387695312e-08
			]
		},
		{
			"children":[
				16
			],
			"name":"Bone.004.R",
			"rotation":[
				0.23505768179893494,
				-3.426679580820387e-14,
				-5.604210073784088e-08,
				0.9719814658164978
			],
			"scale":[
				1,
				0.9999998807907104,
				0.9999998807907104
			],
			"translation":[
				9.900637777606087e-16,
				1.1393390893936157,
				-2.9802322387695312e-08
			]
		},
		{
			"children":[
				17
			],
			"name":"Bone.003.R",
			"rotation":[
				-0.8662541508674622,
				-5.955737947260786e-08,
				1.0326552057904337e-07,
				0.49960362911224365
			],
			"scale":[
				1,
				0.9999999403953552,
				0.9999998211860657
			],
			"translation":[
				0,
				0.30228906869888306,
				0
			]
		},
		{
			"name":"Bone.012",
			"rotation":[
				5.0279002607567236e-05,
				3.901911016512827e-10,
				0.009564042091369629,
				0.9999542832374573
			],
			"translation":[
				4.423782229423523e-09,
				0.1623157411813736,
				2.6921043172478676e-08
			]
		},
		{
			"children":[
				19
			],
			"name":"Bone.011",
			"rotation":[
				-0.00013064865197520703,
				-8.506402804364654e-10,
				-0.024851905182003975,
				0.9996911287307739
			],
			"scale":[
				1,
				1.000000238418579,
				1
			],
			"translation":[
				-5.3551048040390015e-09,
				0.1636173576116562,
				8.352799341082573e-09
			]
		},
		{
			"children":[
				20
			],
			"name":"Bone.010",
			"rotation":[
				-0.042436063289642334,
				0.005142854060977697,
				0.11631817370653152,
				0.9922917485237122
			],
			"scale":[
				0.9999999403953552,
				1.0000001192092896,
				1
			],
			"translation":[
				4.656612873077393e-10,
				0.3159220218658447,
				3.1781382858753204e-08
			]
		},
		{
			"children":[
				21
			],
			"name":"Bone.006",
			"rotation":[
				0.06729231029748917,
				-0.004656306933611631,
				-0.1038384810090065,
				0.9923042058944702
			],
			"scale":[
				1,
				0.9999998211860657,
				0.9999998211860657
			],
			"translation":[
				-3.552713678800501e-15,
				1.0083030462265015,
				1.4901161193847656e-08
			]
		},
		{
			"name":"Bone.015",
			"rotation":[
				1.772687755874358e-05,
				-4.043458901037411e-10,
				0.009609118103981018,
				0.9999538660049438
			],
			"scale":[
				0.9999999403953552,
				1,
				0.9999999403953552
			],
			"translation":[
				-6.984919309616089e-10,
				0.19615808129310608,
				6.182381184771657e-08
			]
		},
		{
			"children":[
				23
			],
			"name":"Bone.014",
			"rotation":[
				-2.5128681500063976e-06,
				6.004233776835122e-10,
				-0.0013641569530591369,
				0.9999991059303284
			],
			"scale":[
				0.9999999403953552,
				0.9999998807907104,
				0.9999999403953552
			],
			"translation":[
				-1.3969838619232178e-09,
				0.16249175369739532,
				7.32215994503349e-08
			]
		},
		{
			"children":[
				24
			],
			"name":"Bone.013",
			"rotation":[
				-0.038564831018447876,
				0.001056293840520084,
				0.0267853494733572,
				0.9988964796066284
			],
			"scale":[
				0.9999998807907104,
				0.9999999403953552,
				0.9999998807907104
			],
			"translation":[
				2.1187588572502136e-08,
				0.354491263628006,
				2.2613676264882088e-08
			]
		},
		{
			"children":[
				25
			],
			"name":"Bone.007",
			"rotation":[
				0.06316940486431122,
				-0.0013526803813874722,
				-0.029236754402518272,
				0.9975736141204834
			],
			"scale":[
				0.9999999403953552,
				0.9999998807907104,
				0.9999998807907104
			],
			"translation":[
				-3.552713678800501e-15,
				1.0083030462265015,
				1.4901161193847656e-08
			]
		},
		{
			"name":"Bone.018",
			"rotation":[
				-5.0932449084939435e-06,
				-8.731197015388048e-11,
				0.003311195643618703,
				0.9999945163726807
			],
			"scale":[
				1,
				1.0000001192092896,
				1
			],
			"translation":[
				-4.5612125187943775e-10,
				0.17753958702087402,
				-1.968675711339074e-08
			]
		},
		{
			"children":[
				27
			],
			"name":"Bone.017",
			"rotation":[
				1.381438869429985e-05,
				-4.0728528882816306e-10,
				-0.008980940096080303,
				0.9999597072601318
			],
			"translation":[
				-2.7939677238464355e-09,
				0.1913156658411026,
				-2.208616933785379e-08
			]
		},
		{
			"children":[
				28
			],
			"name":"Bone.016",
			"rotation":[
				-0.04350319132208824,
				-0.0009678786736913025,
				-0.021548163145780563,
				0.998820424079895
			],
			"scale":[
				0.9999999403953552,
				0.9999999403953552,
				0.9999998807907104
			],
			"translation":[
				4.190951585769653e-09,
				0.3145168125629425,
				3.435707185417414e-08
			]
		},
		{
			"children":[
				29
			],
			"name":"Bone.008",
			"rotation":[
				0.06807984411716461,
				0.0013753941748291254,
				0.03052731789648533,
				0.997211754322052
			],
			"scale":[
				1,
				0.9999999403953552,
				1
			],
			"translation":[
				-3.552713678800501e-15,
				1.0083030462265015,
				1.4901161193847656e-08
			]
		},
		{
			"name":"Bone.022",
			"rotation":[
				0.00016841426258906722,
				5.576000772222756e-10,
				-0.033188652247190475,
				0.9994490742683411
			],
			"scale":[
				0.9999998807907104,
				0.9999998807907104,
				1
			],
			"translation":[
				-6.51925802230835e-09,
				0.15936098992824554,
				-4.045432433485985e-09
			]
		},
		{
			"children":[
				31
			],
			"name":"Bone.021",
			"rotation":[
				-9.253547614207491e-05,
				4.6187273450293276e-10,
				0.018234822899103165,
				0.9998337626457214
			],
			"scale":[
				0.9999999403953552,
				0.9999998807907104,
				0.9999999403953552
			],
			"translation":[
				5.122274160385132e-09,
				0.17181600630283356,
				-6.624759407714009e-08
			]
		},
		{
			"children":[
				32
			],
			"name":"Bone.020",
			"rotation":[
				-0.04244709014892578,
				-0.004277968779206276,
				-0.09692844748497009,
				0.9943766593933105
			],
			"scale":[
				1,
				1.0000001192092896,
				0.9999998807907104
			],
			"translation":[
				-1.4901161193847656e-08,
				0.31739941239356995,
				1.525040715932846e-08
			]
		},
		{
			"children":[
				33
			],
			"name":"Bone.009",
			"rotation":[
				0.06713557988405228,
				0.004475082736462355,
				0.10027503967285156,
				0.9926820993423462
			],
			"scale":[
				0.9999999403953552,
				0.9999997615814209,
				0.9999999403953552
			],
			"translation":[
				-3.552713678800501e-15,
				1.0083030462265015,
				1.4901161193847656e-08
			]
		},
		{
			"name":"Bone.019",
			"rotation":[
				0.024624574929475784,
				0.00013774598482996225,
				0.0033376903738826513,
				0.9996911883354187
			],
			"scale":[
				0.9999999403953552,
				0.9999998807907104,
				0.9999999403953552
			],
			"translation":[
				-3.552713678800501e-15,
				1.0083030462265015,
				1.4901161193847656e-08
			]
		},
		{
			"children":[
				22,
				26,
				30,
				34,
				35
			],
			"name":"Bone.005",
			"rotation":[
				-0.02814527042210102,
				-3.568004741080809e-15,
				-6.71035538246656e-09,
				0.9996038675308228
			],
			"scale":[
				1,
				1.0000001192092896,
				1
			],
			"translation":[
				-9.103828801926284e-15,
				1.0071051120758057,
				3.818422555923462e-08
			]
		},
		{
			"children":[
				36
			],
			"name":"Bone.004",
			"rotation":[
				-0.27912190556526184,
				-2.6823246450586105e-14,
				-6.654784812099024e-08,
				0.9602556824684143
			],
			"scale":[
				1,
				1.0000001192092896,
				0.9999999403953552
			],
			"translation":[
				0,
				1.1645976305007935,
				0
			]
		},
		{
			"children":[
				37
			],
			"name":"Bone.003",
			"rotation":[
				0.8780626654624939,
				5.7047099488727326e-08,
				1.0467324784713128e-07,
				0.4785456359386444
			],
			"translation":[
				0,
				0.30228906869888306,
				0
			]
		},
		{
			"name":"Bone.025",
			"rotation":[
				0.23162053525447845,
				3.401214419197011e-24,
				-5.1430100169272305e-17,
				0.9728062152862549
			],
			"scale":[
				1,
				0.9999999403953552,
				1.0000001192092896
			],
			"translation":[
				-5.169878828456423e-26,
				0.5180963277816772,
				-4.284083843231201e-08
			]
		},
		{
			"children":[
				39
			],
			"name":"Bone.024",
			"rotation":[
				-0.7198401689529419,
				2.853299965997565e-18,
				2.8532989320217995e-18,
				0.694139838218689
			],
			"translation":[
				0,
				0.960198163986206,
				0
			]
		},
		{
			"name":"Bone.027",
			"rotation":[
				-0.3197082281112671,
				3.078341401230311e-12,
				-3.0489647429021716e-07,
				0.9475160241127014
			],
			"scale":[
				1,
				1,
				0.9999999403953552
			],
			"translation":[
				-1.2079226507921703e-13,
				0.49392828345298767,
				1.564621925354004e-07
			]
		},
		{
			"children":[
				41
			],
			"name":"Bone.026",
			"rotation":[
				0.7527987957000732,
				3.1387625654133444e-07,
				3.589599941733468e-07,
				0.6582507491111755
			],
			"scale":[
				1,
				0.9999999403953552,
				0.9999999403953552
			],
			"translation":[
				0,
				0.960198163986206,
				0
			]
		},
		{
			"name":"Bone.028",
			"rotation":[
				3.4954478422832835e-08,
				2.8613911240427115e-08,
				-0.7737967371940613,
				0.633433997631073
			],
			"scale":[
				0.9999999403953552,
				1,
				1
			],
			"translation":[
				0,
				0.960198163986206,
				0
			]
		},
		{
			"children":[
				40,
				42,
				43
			],
			"name":"Bone.023",
			"rotation":[
				6.717942113709796e-08,
				0,
				0,
				1
			],
			"translation":[
				0,
				0.30228906869888306,
				0
			]
		},
		{
			"children":[
				18,
				38,
				44
			],
			"name":"Bone.030",
			"rotation":[
				0,
				-1.1920928955078125e-07,
				0,
				1
			],
			"translation":[
				0,
				0.6895805597305298,
				0
			]
		},
		{
			"children":[
				45
			],
			"name":"Bone.029",
			"rotation":[
				0,
				1.1920928955078125e-07,
				0,
				1
			],
			"translation":[
				0,
				0.9379522800445557,
				0
			]
		},
		{
			"children":[
				46
			],
			"name":"Bone",
			"translation":[
				0,
				-0.6480576395988464,
				0
			]
		},
		{
			"name":"Bone.002.R",
			"rotation":[
				-0.47465720772743225,
				-7.501906116035321e-17,
				1.259809969552552e-16,
				0.8801707625389099
			],
			"scale":[
				1,
				0.9999999403953552,
				1
			],
			"translation":[
				3.308722450212111e-24,
				0.6002388000488281,
				-2.9802322387695312e-08
			]
		},
		{
			"children":[
				48
			],
			"name":"Bone.001.R",
			"rotation":[
				-0.8907231092453003,
				-4.842534674183873e-17,
				-4.842534343311628e-17,
				0.45454636216163635
			],
			"scale":[
				1,
				0.9999999403953552,
				0.9999999403953552
			],
			"translation":[
				0,
				-0.6480576395988464,
				0
			]
		},
		{
			"name":"Bone.002",
			"rotation":[
				-0.45456361770629883,
				-1.396014228017715e-14,
				-6.86372345626296e-08,
				0.8907142877578735
			],
			"translation":[
				-1.4210854715202004e-14,
				0.6107891798019409,
				8.940696716308594e-08
			]
		},
		{
			"children":[
				50
			],
			"name":"Bone.001",
			"rotation":[
				6.779744410323474e-08,
				-0.43998661637306213,
				-0.8980043530464172,
				3.321806829603702e-08
			],
			"scale":[
				1,
				1.000000238418579,
				1.0000003576278687
			],
			"translation":[
				0,
				-0.6480576395988464,
				0
			]
		},
		{
			"mesh":0,
			"name":"Cube",
			"skin":0
		},
		{
			"children":[
				52,
				47,
				49,
				51
			],
			"name":"Armature"
		}
	],
	"animations":[
		{
			"channels":[
				{
					"sampler":0,
					"target":{
						"node":47,
						"path":"translation"
					}
				},
				{
					"sampler":1,
					"target":{
						"node":47,
						"path":"rotation"
					}
				},
				{
					"sampler":2,
					"target":{
						"node":47,
						"path":"scale"
					}
				},
				{
					"sampler":3,
					"target":{
						"node":46,
						"path":"translation"
					}
				},
				{
					"sampler":4,
					"target":{
						"node":46,
						"path":"rotation"
					}
				},
				{
					"sampler":5,
					"target":{
						"node":46,
						"path":"scale"
					}
				},
				{
					"sampler":6,
					"target":{
						"node":45,
						"path":"translation"
					}
				},
				{
					"sampler":7,
					"target":{
						"node":45,
						"path":"rotation"
					}
				},
				{
					"sampler":8,
					"target":{
						"node":45,
						"path":"scale"
					}
				},
				{
					"sampler":9,
					"target":{
						"node":18,
						"path":"translation"
					}
				},
				{
					"sampler":10,
					"target":{
						"node":18,
						"path":"rotation"
					}
				},
				{
					"sampler":11,
					"target":{
						"node":18,
						"path":"scale"
					}
				},
				{
					"sampler":12,
					"target":{
						"node":17,
						"path":"translation"
					}
				},
				{
					"sampler":13,
					"target":{
						"node":17,
						"path":"rotation"
					}
				},
				{
					"sampler":14,
					"target":{
						"node":17,
						"path":"scale"
					}
				},
				{
					"sampler":15,
					"target":{
						"node":16,
						"path":"translation"
					}
				},
				{
					"sampler":16,
					"target":{
						"node":16,
						"path":"rotation"
					}
				},
				{
					"sampler":17,
					"target":{
						"node":16,
						"path":"scale"
					}
				},
				{
					"sampler":18,
					"target":{
						"node":3,
						"path":"translation"
					}
				},
				{
					"sampler":19,
					"target":{
						"node":3,
						"path":"rotation"
					}
				},
				{
					"sampler":20,
					"target":{
						"node":3,
						"path":"scale"
					}
				},
				{
					"sampler":21,
					"target":{
						"node":2,
						"path":"translation"
					}
				},
				{
					"sampler":22,
					"target":{
						"node":2,
						"path":"rotation"
					}
				},
				{
					"sampler":23,
					"target":{
						"node":2,
						"path":"scale"
					}
				},
				{
					"sampler":24,
					"target":{
						"node":1,
						"path":"translation"
					}
				},
				{
					"sampler":25,
					"target":{
						"node":1,
						"path":"rotation"
					}
				},
				{
					"sampler":26,
					"target":{
						"node":1,
						"path":"scale"
					}
				},
				{
					"sampler":27,
					"target":{
						"node":0,
						"path":"translation"
					}
				},
				{
					"sampler":28,
					"target":{
						"node":0,
						"path":"rotation"
					}
				},
				{
					"sampler":29,
					"target":{
						"node":0,
						"path":"scale"
					}
				},
				{
					"sampler":30,
					"target":{
						"node":7,
						"path":"translation"
					}
				},
				{
					"sampler":31,
					"target":{
						"node":7,
						"path":"rotation"
					}
				},
				{
					"sampler":32,
					"target":{
						"node":7,
						"path":"scale"
					}
				},
				{
					"sampler":33,
					"target":{
						"node":6,
						"path":"translation"
					}
				},
				{
					"sampler":34,
					"target":{
						"node":6,
						"path":"rotation"
					}
				},
				{
					"sampler":35,
					"target":{
						"node":6,
						"path":"scale"
					}
				},
				{
					"sampler":36,
					"target":{
						"node":5,
						"path":"translation"
					}
				},
				{
					"sampler":37,
					"target":{
						"node":5,
						"path":"rotation"
					}
				},
				{
					"sampler":38,
					"target":{
						"node":5,
						"path":"scale"
					}
				},
				{
					"sampler":39,
					"target":{
						"node":4,
						"path":"translation"
					}
				},
				{
					"sampler":40,
					"target":{
						"node":4,
						"path":"rotation"
					}
				},
				{
					"sampler":41,
					"target":{
						"node":4,
						"path":"scale"
					}
				},
				{
					"sampler":42,
					"target":{
						"node":11,
						"path":"translation"
					}
				},
				{
					"sampler":43,
					"target":{
						"node":11,
						"path":"rotation"
					}
				},
				{
					"sampler":44,
					"target":{
						"node":11,
						"path":"scale"
					}
				},
				{
					"sampler":45,
					"target":{
						"node":10,
						"path":"translation"
					}
				},
				{
					"sampler":46,
					"target":{
						"node":10,
						"path":"rotation"
					}
				},
				{
					"sampler":47,
					"target":{
						"node":10,
						"path":"scale"
					}
				},
				{
					"sampler":48,
					"target":{
						"node":9,
						"path":"translation"
					}
				},
				{
					"sampler":49,
					"target":{
						"node":9,
						"path":"rotation"
					}
				},
				{
					"sampler":50,
					"target":{
						"node":9,
						"path":"scale"
					}
				},
				{
					"sampler":51,
					"target":{
						"node":8,
						"path":"translation"
					}
				},
				{
					"sampler":52,
					"target":{
						"node":8,
						"path":"rotation"
					}
				},
				{
					"sampler":53,
					"target":{
						"node":8,
						"path":"scale"
					}
				},
				{
					"sampler":54,
					"target":{
						"node":15,
						"path":"translation"
					}
				},
				{
					"sampler":55,
					"target":{
						"node":15,
						"path":"rotation"
					}
				},
				{
					"sampler":56,
					"target":{
						"node":15,
						"path":"scale"
					}
				},
				{
					"sampler":57,
					"target":{
						"node":14,
						"path":"translation"
					}
				},
				{
					"sampler":58,
					"target":{
						"node":14,
						"path":"rotation"
					}
				},
				{
					"sampler":59,
					"target":{
						"node":14,
						"path":"scale"
					}
				},
				{
					"sampler":60,
					"target":{
						"node":13,
						"path":"translation"
					}
				},
				{
					"sampler":61,
					"target":{
						"node":13,
						"path":"rotation"
					}
				},
				{
					"sampler":62,
					"target":{
						"node":13,
						"path":"scale"
					}
				},
				{
					"sampler":63,
					"target":{
						"node":12,
						"path":"translation"
					}
				},
				{
					"sampler":64,
					"target":{
						"node":12,
						"path":"rotation"
					}
				},
				{
					"sampler":65,
					"target":{
						"node":12,
						"path":"scale"
					}
				},
				{
					"sampler":66,
					"target":{
						"node":38,
						"path":"translation"
					}
				},
				{
					"sampler":67,
					"target":{
						"node":38,
						"path":"rotation"
					}
				},
				{
					"sampler":68,
					"target":{
						"node":38,
						"path":"scale"
					}
				},
				{
					"sampler":69,
					"target":{
						"node":37,
						"path":"translation"
					}
				},
				{
					"sampler":70,
					"target":{
						"node":37,
						"path":"rotation"
					}
				},
				{
					"sampler":71,
					"target":{
						"node":37,
						"path":"scale"
					}
				},
				{
					"sampler":72,
					"target":{
						"node":36,
						"path":"translation"
					}
				},
				{
					"sampler":73,
					"target":{
						"node":36,
						"path":"rotation"
					}
				},
				{
					"sampler":74,
					"target":{
						"node":36,
						"path":"scale"
					}
				},
				{
					"sampler":75,
					"target":{
						"node":22,
						"path":"translation"
					}
				},
				{
					"sampler":76,
					"target":{
						"node":22,
						"path":"rotation"
					}
				},
				{
					"sampler":77,
					"target":{
						"node":22,
						"path":"scale"
					}
				},
				{
					"sampler":78,
					"target":{
						"node":21,
						"path":"translation"
					}
				},
				{
					"sampler":79,
					"target":{
						"node":21,
						"path":"rotation"
					}
				},
				{
					"sampler":80,
					"target":{
						"node":21,
						"path":"scale"
					}
				},
				{
					"sampler":81,
					"target":{
						"node":20,
						"path":"translation"
					}
				},
				{
					"sampler":82,
					"target":{
						"node":20,
						"path":"rotation"
					}
				},
				{
					"sampler":83,
					"target":{
						"node":20,
						"path":"scale"
					}
				},
				{
					"sampler":84,
					"target":{
						"node":19,
						"path":"translation"
					}
				},
				{
					"sampler":85,
					"target":{
						"node":19,
						"path":"rotation"
					}
				},
				{
					"sampler":86,
					"target":{
						"node":19,
						"path":"scale"
					}
				},
				{
					"sampler":87,
					"target":{
						"node":26,
						"path":"translation"
					}
				},
				{
					"sampler":88,
					"target":{
						"node":26,
						"path":"rotation"
					}
				},
				{
					"sampler":89,
					"target":{
						"node":26,
						"path":"scale"
					}
				},
				{
					"sampler":90,
					"target":{
						"node":25,
						"path":"translation"
					}
				},
				{
					"sampler":91,
					"target":{
						"node":25,
						"path":"rotation"
					}
				},
				{
					"sampler":92,
					"target":{
						"node":25,
						"path":"scale"
					}
				},
				{
					"sampler":93,
					"target":{
						"node":24,
						"path":"translation"
					}
				},
				{
					"sampler":94,
					"target":{
						"node":24,
						"path":"rotation"
					}
				},
				{
					"sampler":95,
					"target":{
						"node":24,
						"path":"scale"
					}
				},
				{
					"sampler":96,
					"target":{
						"node":23,
						"path":"translation"
					}
				},
				{
					"sampler":97,
					"target":{
						"node":23,
						"path":"rotation"
					}
				},
				{
					"sampler":98,
					"target":{
						"node":23,
						"path":"scale"
					}
				},
				{
					"sampler":99,
					"target":{
						"node":30,
						"path":"translation"
					}
				},
				{
					"sampler":100,
					"target":{
						"node":30,
						"path":"rotation"
					}
				},
				{
					"sampler":101,
					"target":{
						"node":30,
						"path":"scale"
					}
				},
				{
					"sampler":102,
					"target":{
						"node":29,
						"path":"translation"
					}
				},
				{
					"sampler":103,
					"target":{
						"node":29,
						"path":"rotation"
					}
				},
				{
					"sampler":104,
					"target":{
						"node":29,
						"path":"scale"
					}
				},
				{
					"sampler":105,
					"target":{
						"node":28,
						"path":"translation"
					}
				},
				{
					"sampler":106,
					"target":{
						"node":28,
						"path":"rotation"
					}
				},
				{
					"sampler":107,
					"target":{
						"node":28,
						"path":"scale"
					}
				},
				{
					"sampler":108,
					"target":{
						"node":27,
						"path":"translation"
					}
				},
				{
					"sampler":109,
					"target":{
						"node":27,
						"path":"rotation"
					}
				},
				{
					"sampler":110,
					"target":{
						"node":27,
						"path":"scale"
					}
				},
				{
					"sampler":111,
					"target":{
						"node":34,
						"path":"translation"
					}
				},
				{
					"sampler":112,
					"target":{
						"node":34,
						"path":"rotation"
					}
				},
				{
					"sampler":113,
					"target":{
						"node":34,
						"path":"scale"
					}
				},
				{
					"sampler":114,
					"target":{
						"node":33,
						"path":"translation"
					}
				},
				{
					"sampler":115,
					"target":{
						"node":33,
						"path":"rotation"
					}
				},
				{
					"sampler":116,
					"target":{
						"node":33,
						"path":"scale"
					}
				},
				{
					"sampler":117,
					"target":{
						"node":32,
						"path":"translation"
					}
				},
				{
					"sampler":118,
					"target":{
						"node":32,
						"path":"rotation"
					}
				},
				{
					"sampler":119,
					"target":{
						"node":32,
						"path":"scale"
					}
				},
				{
					"sampler":120,
					"target":{
						"node":31,
						"path":"translation"
					}
				},
				{
					"sampler":121,
					"target":{
						"node":31,
						"path":"rotation"
					}
				},
				{
					"sampler":122,
					"target":{
						"node":31,
						"path":"scale"
					}
				},
				{
					"sampler":123,
					"target":{
						"node":35,
						"path":"translation"
					}
				},
				{
					"sampler":124,
					"target":{
						"node":35,
						"path":"rotation"
					}
				},
				{
					"sampler":125,
					"target":{
						"node":35,
						"path":"scale"
					}
				},
				{
					"sampler":126,
					"target":{
						"node":44,
						"path":"translation"
					}
				},
				{
					"sampler":127,
					"target":{
						"node":44,
						"path":"rotation"
					}
				},
				{
					"sampler":128,
					"target":{
						"node":44,
						"path":"scale"
					}
				},
				{
					"sampler":129,
					"target":{
						"node":40,
						"path":"translation"
					}
				},
				{
					"sampler":130,
					"target":{
						"node":40,
						"path":"rotation"
					}
				},
				{
					"sampler":131,
					"target":{
						"node":40,
						"path":"scale"
					}
				},
				{
					"sampler":132,
					"target":{
						"node":39,
						"path":"translation"
					}
				},
				{
					"sampler":133,
					"target":{
						"node":39,
						"path":"rotation"
					}
				},
				{
					"sampler":134,
					"target":{
						"node":39,
						"path":"scale"
					}
				},
				{
					"sampler":135,
					"target":{
						"node":42,
						"path":"translation"
					}
				},
				{
					"sampler":136,
					"target":{
						"node":42,
						"path":"rotation"
					}
				},
				{
					"sampler":137,
					"target":{
						"node":42,
						"path":"scale"
					}
				},
				{
					"sampler":138,
					"target":{
						"node":41,
						"path":"translation"
					}
				},
				{
					"sampler":139,
					"target":{
						"node":41,
						"path":"rotation"
					}
				},
				{
					"sampler":140,
					"target":{
						"node":41,
						"path":"scale"
					}
				},
				{
					"sampler":141,
					"target":{
						"node":43,
						"path":"translation"
					}
				},
				{
					"sampler":142,
					"target":{
						"node":43,
						"path":"rotation"
					}
				},
				{
					"sampler":143,
					"target":{
						"node":43,
						"path":"scale"
					}
				},
				{
					"sampler":144,
					"target":{
						"node":49,
						"path":"translation"
					}
				},
				{
					"sampler":145,
					"target":{
						"node":49,
						"path":"rotation"
					}
				},
				{
					"sampler":146,
					"target":{
						"node":49,
						"path":"scale"
					}
				},
				{
					"sampler":147,
					"target":{
						"node":48,
						"path":"translation"
					}
				},
				{
					"sampler":148,
					"target":{
						"node":48,
						"path":"rotation"
					}
				},
				{
					"sampler":149,
					"target":{
						"node":48,
						"path":"scale"
					}
				},
				{
					"sampler":150,
					"target":{
						"node":51,
						"path":"translation"
					}
				},
				{
					"sampler":151,
					"target":{
						"node":51,
						"path":"rotation"
					}
				},
				{
					"sampler":152,
					"target":{
						"node":51,
						"path":"scale"
					}
				},
				{
					"sampler":153,
					"target":{
						"node":50,
						"path":"translation"
					}
				},
				{
					"sampler":154,
					"target":{
						"node":50,
						"path":"rotation"
					}
				},
				{
					"sampler":155,
					"target":{
						"node":50,
						"path":"scale"
					}
				}
			],
			"name":"ArmatureAction",
			"samplers":[
				{
					"input":17,
					"interpolation":"STEP",
					"output":18
				},
				{
					"input":19,
					"interpolation":"LINEAR",
					"output":20
				},
				{
					"input":17,
					"interpolation":"STEP",
					"output":21
				},
				{
					"input":17,
					"interpolation":"STEP",
					"output":22
				},
				{
					"input":19,
					"interpolation":"LINEAR",
					"output":23
				},
				{
					"input":17,
					"interpolation":"STEP",
					"output":21
				},
				{
					"input":17,
					"interpolation":"STEP",
					"output":24
				},
				{
					"input":19,
					"interpolation":"LINEAR",
					"output":25
				},
				{
					"input":17,
					"interpolation":"STEP",
					"output":26
				},
				{
					"input":17,
					"interpolation":"STEP",
					"output":27
				},
				{
					"input":17,
					"interpolation":"STEP",
					"output":28
				},
				{
					"input":17,
					"interpolation":"STEP",
					"output":29
				},
				{
					"input":17,
					"interpolation":"STEP",
					"output":30
				},
				{
					"input":19,
					"interpolation":"LINEAR",
					"output":31
				},
				{
					"input":17,
					"interpolation":"STEP",
					"output":32
				},
				{
					"input":17,
					"interpolation":"STEP",
					"output":33
				},
				{
					"input":19,
					"interpolation":"LINEAR",
					"output":34
				},
				{
					"input":17,
					"interpolation":"STEP",
					"output":35
				},
				{
					"input":17,
					"interpolation":"STEP",
					"output":36
				},
				{
					"input":17,
					"interpolation":"STEP",
					"output":37
				},
				{
					"input":17,
					"interpolation":"STEP",
					"output":38
				},
				{
					"input":17,
					"interpolation":"STEP",
					"output":39
				},
				{
					"input":19,
					"interpolation":"LINEAR",
					"output":40
				},
				{
					"input":17,
					"interpolation":"STEP",
					"output":41
				},
				{
					"input":17,
					"interpolation":"STEP",
					"output":42
				},
				{
					"input":19,
					"interpolation":"LINEAR",
					"output":43
				},
				{
					"input":17,
					"interpolation":"STEP",
					"output":44
				},
				{
					"input":17,
					"interpolation":"STEP",
					"output":45
				},
				{
					"input":19,
					"interpolation":"LINEAR",
					"output":46
				},
				{
					"input":17,
					"interpolation":"STEP",
					"output":47
				},
				{
					"input":17,
					"interpolation":"STEP",
					"output":48
				},
				{
					"input":17,
					"interpolation":"STEP",
					"output":49
				},
				{
					"input":17,
					"interpolation":"STEP",
					"output":50
				},
				{
					"input":17,
					"interpolation":"STEP",
					"output":51
				},
				{
					"input":19,
					"interpolation":"LINEAR",
					"output":52
				},
				{
					"input":17,
					"interpolation":"STEP",
					"output":53
				},
				{
					"input":17,
					"interpolation":"STEP",
					"output":54
				},
				{
					"input":19,
					"interpolation":"LINEAR",
					"output":55
				},
				{
					"input":17,
					"interpolation":"STEP",
					"output":56
				},
				{
					"input":17,
					"interpolation":"STEP",
					"output":57
				},
				{
					"input":19,
					"interpolation":"LINEAR",
					"output":58
				},
				{
					"input":17,
					"interpolation":"STEP",
					"output":59
				},
				{
					"input":17,
					"interpolation":"STEP",
					"output":60
				},
				{
					"input":17,
					"interpolation":"STEP",
					"output":61
				},
				{
					"input":17,
					"interpolation":"STEP",
					"output":62
				},
				{
					"input":17,
					"interpolation":"STEP",
					"output":63
				},
				{
					"input":19,
					"interpolation":"LINEAR",
					"output":64
				},
				{
					"input":17,
					"interpolation":"STEP",
					"output":65
				},
				{
					"input":17,
					"interpolation":"STEP",
					"output":66
				},
				{
					"input":19,
					"interpolation":"LINEAR",
					"output":67
				},
				{
					"input":17,
					"interpolation":"STEP",
					"output":68
				},
				{
					"input":17,
					"interpolation":"STEP",
					"output":69
				},
				{
					"input":19,
					"interpolation":"LINEAR",
					"output":70
				},
				{
					"input":17,
					"interpolation":"STEP",
					"output":71
				},
				{
					"input":17,
					"interpolation":"STEP",
					"output":72
				},
				{
					"input":17,
					"interpolation":"STEP",
					"output":73
				},
				{
					"input":17,
					"interpolation":"STEP",
					"output":74
				},
				{
					"input":17,
					"interpolation":"STEP",
					"output":75
				},
				{
					"input":17,
					"interpolation":"STEP",
					"output":76
				},
				{
					"input":17,
					"interpolation":"STEP",
					"output":77
				},
				{
					"input":17,
					"interpolation":"STEP",
					"output":78
				},
				{
					"input":19,
					"interpolation":"LINEAR",
					"output":79
				},
				{
					"input":17,
					"interpolation":"STEP",
					"output":32
				},
				{
					"input":17,
					"interpolation":"STEP",
					"output":80
				},
				{
					"input":19,
					"interpolation":"LINEAR",
					"output":81
				},
				{
					"input":17,
					"interpolation":"STEP",
					"output":82
				},
				{
					"input":17,
					"interpolation":"STEP",
					"output":83
				},
				{
					"input":17,
					"interpolation":"STEP",
					"output":84
				},
				{
					"input":17,
					"interpolation":"STEP",
					"output":21
				},
				{
					"input":17,
					"interpolation":"STEP",
					"output":85
				},
				{
					"input":19,
					"interpolation":"LINEAR",
					"output":86
				},
				{
					"input":17,
					"interpolation":"STEP",
					"output":87
				},
				{
					"input":17,
					"interpolation":"STEP",
					"output":88
				},
				{
					"input":19,
					"interpolation":"LINEAR",
					"output":89
				},
				{
					"input":17,
					"interpolation":"STEP",
					"output":90
				},
				{
					"input":17,
					"interpolation":"STEP",
					"output":91
				},
				{
					"input":17,
					"interpolation":"STEP",
					"output":92
				},
				{
					"input":17,
					"interpolation":"STEP",
					"output":93
				},
				{
					"input":17,
					"interpolation":"STEP",
					"output":94
				},
				{
					"input":19,
					"interpolation":"LINEAR",
					"output":95
				},
				{
					"input":17,
					"interpolation":"STEP",
					"output":96
				},
				{
					"input":17,
					"interpolation":"STEP",
					"output":97
				},
				{
					"input":17,
					"interpolation":"STEP",
					"output":98
				},
				{
					"input":17,
					"interpolation":"STEP",
					"output":99
				},
				{
					"input":17,
					"interpolation":"STEP",
					"output":100
				},
				{
					"input":17,
					"interpolation":"STEP",
					"output":101
				},
				{
					"input":17,
					"interpolation":"STEP",
					"output":102
				},
				{
					"input":17,
					"interpolation":"STEP",
					"output":103
				},
				{
					"input":17,
					"interpolation":"STEP",
					"output":104
				},
				{
					"input":17,
					"interpolation":"STEP",
					"output":105
				},
				{
					"input":17,
					"interpolation":"STEP",
					"output":106
				},
				{
					"input":19,
					"interpolation":"LINEAR",
					"output":107
				},
				{
					"input":17,
					"interpolation":"STEP",
					"output":74
				},
				{
					"input":17,
					"interpolation":"STEP",
					"output":108
				},
				{
					"input":17,
					"interpolation":"STEP",
					"output":109
				},
				{
					"input":17,
					"interpolation":"STEP",
					"output":110
				},
				{
					"input":17,
					"interpolation":"STEP",
					"output":111
				},
				{
					"input":19,
					"interpolation":"LINEAR",
					"output":112
				},
				{
					"input":17,
					"interpolation":"STEP",
					"output":113
				},
				{
					"input":17,
					"interpolation":"STEP",
					"output":114
				},
				{
					"input":17,
					"interpolation":"STEP",
					"output":115
				},
				{
					"input":17,
					"interpolation":"STEP",
					"output":26
				},
				{
					"input":17,
					"interpolation":"STEP",
					"output":116
				},
				{
					"input":19,
					"interpolation":"LINEAR",
					"output":117
				},
				{
					"input":17,
					"interpolation":"STEP",
					"output":59
				},
				{
					"input":17,
					"interpolation":"STEP",
					"output":118
				},
				{
					"input":19,
					"interpolation":"LINEAR",
					"output":119
				},
				{
					"input":17,
					"interpolation":"STEP",
					"output":120
				},
				{
					"input":17,
					"interpolation":"STEP",
					"output":121
				},
				{
					"input":17,
					"interpolation":"STEP",
					"output":122
				},
				{
					"input":17,
					"interpolation":"STEP",
					"output":99
				},
				{
					"input":17,
					"interpolation":"STEP",
					"output":123
				},
				{
					"input":17,
					"interpolation":"STEP",
					"output":124
				},
				{
					"input":17,
					"interpolation":"STEP",
					"output":125
				},
				{
					"input":17,
					"interpolation":"STEP",
					"output":126
				},
				{
					"input":19,
					"interpolation":"LINEAR",
					"output":127
				},
				{
					"input":17,
					"interpolation":"STEP",
					"output":128
				},
				{
					"input":17,
					"interpolation":"STEP",
					"output":129
				},
				{
					"input":19,
					"interpolation":"LINEAR",
					"output":130
				},
				{
					"input":17,
					"interpolation":"STEP",
					"output":41
				},
				{
					"input":17,
					"interpolation":"STEP",
					"output":131
				},
				{
					"input":19,
					"interpolation":"LINEAR",
					"output":132
				},
				{
					"input":17,
					"interpolation":"STEP",
					"output":133
				},
				{
					"input":17,
					"interpolation":"STEP",
					"output":134
				},
				{
					"input":17,
					"interpolation":"STEP",
					"output":135
				},
				{
					"input":17,
					"interpolation":"STEP",
					"output":47
				},
				{
					"input":17,
					"interpolation":"STEP",
					"output":136
				},
				{
					"input":19,
					"interpolation":"LINEAR",
					"output":137
				},
				{
					"input":17,
					"interpolation":"STEP",
					"output":21
				},
				{
					"input":17,
					"interpolation":"STEP",
					"output":138
				},
				{
					"input":17,
					"interpolation":"STEP",
					"output":139
				},
				{
					"input":17,
					"interpolation":"STEP",
					"output":21
				},
				{
					"input":17,
					"interpolation":"STEP",
					"output":140
				},
				{
					"input":19,
					"interpolation":"LINEAR",
					"output":141
				},
				{
					"input":17,
					"interpolation":"STEP",
					"output":142
				},
				{
					"input":17,
					"interpolation":"STEP",
					"output":143
				},
				{
					"input":17,
					"interpolation":"STEP",
					"output":144
				},
				{
					"input":17,
					"interpolation":"STEP",
					"output":21
				},
				{
					"input":17,
					"interpolation":"STEP",
					"output":145
				},
				{
					"input":19,
					"interpolation":"LINEAR",
					"output":146
				},
				{
					"input":17,
					"interpolation":"STEP",
					"output":68
				},
				{
					"input":17,
					"interpolation":"STEP",
					"output":147
				},
				{
					"input":19,
					"interpolation":"LINEAR",
					"output":148
				},
				{
					"input":17,
					"interpolation":"STEP",
					"output":32
				},
				{
					"input":17,
					"interpolation":"STEP",
					"output":149
				},
				{
					"input":17,
					"interpolation":"STEP",
					"output":150
				},
				{
					"input":17,
					"interpolation":"STEP",
					"output":38
				},
				{
					"input":17,
					"interpolation":"STEP",
					"output":151
				},
				{
					"input":17,
					"interpolation":"STEP",
					"output":152
				},
				{
					"input":17,
					"interpolation":"STEP",
					"output":68
				},
				{
					"input":17,
					"interpolation":"STEP",
					"output":153
				},
				{
					"input":17,
					"interpolation":"STEP",
					"output":154
				},
				{
					"input":17,
					"interpolation":"STEP",
					"output":155
				},
				{
					"input":17,
					"interpolation":"STEP",
					"output":156
				},
				{
					"input":17,
					"interpolation":"STEP",
					"output":157
				},
				{
					"input":17,
					"interpolation":"STEP",
					"output":68
				}
			]
		}
	],
	"materials":[
		{
			"doubleSided":true,
			"name":"Material.012",
			"pbrMetallicRoughness":{
				"baseColorFactor":[
					0.800000011920929,
					0.800000011920929,
					0.800000011920929,
					1
				],
				"metallicFactor":0,
				"roughnessFactor":0.5
			}
		},
		{
			"name":"Material.013"
		}
	],
	"meshes":[
		{
			"name":"Cube.001",
			"primitives":[
				{
					"attributes":{
						"POSITION":0,
						"NORMAL":1,
						"TEXCOORD_0":2,
						"JOINTS_0":3,
						"JOINTS_1":4,
						"WEIGHTS_0":5,
						"WEIGHTS_1":6
					},
					"indices":7,
					"material":0
				},
				{
					"attributes":{
						"POSITION":8,
						"NORMAL":9,
						"TEXCOORD_0":10,
						"JOINTS_0":11,
						"JOINTS_1":12,
						"WEIGHTS_0":13,
						"WEIGHTS_1":14
					},
					"indices":15,
					"material":1
				}
			]
		}
	],
	"skins":[
		{
			"inverseBindMatrices":16,
			"joints":[
				47,
				46,
				45,
				18,
				17,
				16,
				3,
				2,
				1,
				0,
				7,
				6,
				5,
				4,
				11,
				10,
				9,
				8,
				15,
				14,
				13,
				12,
				38,
				37,
				36,
				22,
				21,
				20,
				19,
				26,
				25,
				24,
				23,
				30,
				29,
				28,
				27,
				34,
				33,
				32,
				31,
				35,
				44,
				40,
				39,
				42,
				41,
				43,
				49,
				48,
				51,
				50
			],
			"name":"Armature"
		}
	],
	"accessors":[
		{
			"bufferView":0,
			"componentType":5126,
			"count":2034,
			"max":[
				1.713311791419983,
				2.571800470352173,
				3.883183002471924
			],
			"min":[
				-0.9763010740280151,
				-1.4700000286102295,
				-3.7700178623199463
			],
			"type":"VEC3"
		},
		{
			"bufferView":1,
			"componentType":5126,
			"count":2034,
			"type":"VEC3"
		},
		{
			"bufferView":2,
			"componentType":5126,
			"count":2034,
			"type":"VEC2"
		},
		{
			"bufferView":3,
			"componentType":5121,
			"count":2034,
			"type":"VEC4"
		},
		{
			"bufferView":4,
			"componentType":5121,
			"count":2034,
			"type":"VEC4"
		},
		{
			"bufferView":5,
			"componentType":5126,
			"count":2034,
			"type":"VEC4"
		},
		{
			"bufferView":6,
			"componentType":5126,
			"count":2034,
			"type":"VEC4"
		},
		{
			"bufferView":7,
			"componentType":5123,
			"count":3354,
			"type":"SCALAR"
		},
		{
			"bufferView":8,
			"componentType":5126,
			"count":1662,
			"max":[
				1.7432971000671387,
				2.594848871231079,
				3.9131531715393066
			],
			"min":[
				-1,
				-1.5,
				-3.8000001907348633
			],
			"type":"VEC3"
		},
		{
			"bufferView":9,
			"componentType":5126,
			"count":1662,
			"type":"VEC3"
		},
		{
			"bufferView":10,
			"componentType":5126,
			"count":1662,
			"type":"VEC2"
		},
		{
			"bufferView":11,
			"componentType":5121,
			"count":1662,
			"type":"VEC4"
		},
		{
			"bufferView":12,
			"componentType":5121,
			"count":1662,
			"type":"VEC4"
		},
		{
			"bufferView":13,
			"componentType":5126,
			"count":1662,
			"type":"VEC4"
		},
		{
			"bufferView":14,
			"componentType":5126,
			"count":1662,
			"type":"VEC4"
		},
		{
			"bufferView":15,
			"componentType":5123,
			"count":3354,
			"type":"SCALAR"
		},
		{
			"bufferView":16,
			"componentType":5126,
			"count":52,
			"type":"MAT4"
		},
		{
			"bufferView":17,
			"componentType":5126,
			"count":2,
			"max":[
				0.875
			],
			"min":[
				0
			],
			"type":"SCALAR"
		},
		{
			"bufferView":18,
			"componentType":5126,
			"count":2,
			"type":"VEC3"
		},
		{
			"bufferView":19,
			"componentType":5126,
			"count":22,
			"max":[
				0.875
			],
			"min":[
				0
			],
			"type":"SCALAR"
		},
		{
			"bufferView":20,
			"componentType":5126,
			"count":22,
			"type":"VEC4"
		},
		{
			"bufferView":21,
			"componentType":5126,
			"count":2,
			"type":"VEC3"
		},
		{
			"bufferView":22,
			"componentType":5126,
			"count":2,
			"type":"VEC3"
		},
		{
			"bufferView":23,
			"componentType":5126,
			"count":22,
			"type":"VEC4"
		},
		{
			"bufferView":24,
			"componentType":5126,
			"count":2,
			"type":"VEC3"
		},
		{
			"bufferView":25,
			"componentType":5126,
			"count":22,
			"type":"VEC4"
		},
		{
			"bufferView":26,
			"componentType":5126,
			"count":2,
			"type":"VEC3"
		},
		{
			"bufferView":27,
			"componentType":5126,
			"count":2,
			"type":"VEC3"
		},
		{
			"bufferView":28,
			"componentType":5126,
			"count":2,
			"type":"VEC4"
		},
		{
			"bufferView":29,
			"componentType":5126,
			"count":2,
			"type":"VEC3"
		},
		{
			"bufferView":30,
			"componentType":5126,
			"count":2,
			"type":"VEC3"
		},
		{
			"bufferView":31,
			"componentType":5126,
			"count":22,
			"type":"VEC4"
		},
		{
			"bufferView":32,
			"componentType":5126,
			"count":2,
			"type":"VEC3"
		},
		{
			"bufferView":33,
			"componentType":5126,
			"count":2,
			"type":"VEC3"
		},
		{
			"bufferView":34,
			"componentType":5126,
			"count":22,
			"type":"VEC4"
		},
		{
			"bufferView":35,
			"componentType":5126,
			"count":2,
			"type":"VEC3"
		},
		{
			"bufferView":36,
			"componentType":5126,
			"count":2,
			"type":"VEC3"
		},
		{
			"bufferView":37,
			"componentType":5126,
			"count":2,
			"type":"VEC4"
		},
		{
			"bufferView":38,
			"componentType":5126,
			"count":2,
			"type":"VEC3"
		},
		{
			"bufferView":39,
			"componentType":5126,
			"count":2,
			"type":"VEC3"
		},
		{
			"bufferView":40,
			"componentType":5126,
			"count":22,
			"type":"VEC4"
		},
		{
			"bufferView":41,
			"componentType":5126,
			"count":2,
			"type":"VEC3"
		},
		{
			"bufferView":42,
			"componentType":5126,
			"count":2,
			"type":"VEC3"
		},
		{
			"bufferView":43,
			"componentType":5126,
			"count":22,
			"type":"VEC4"
		},
		{
			"bufferView":44,
			"componentType":5126,
			"count":2,
			"type":"VEC3"
		},
		{
			"bufferView":45,
			"componentType":5126,
			"count":2,
			"type":"VEC3"
		},
		{
			"bufferView":46,
			"componentType":5126,
			"count":22,
			"type":"VEC4"
		},
		{
			"bufferView":47,
			"componentType":5126,
			"count":2,
			"type":"VEC3"
		},
		{
			"bufferView":48,
			"componentType":5126,
			"count":2,
			"type":"VEC3"
		},
		{
			"bufferView":49,
			"componentType":5126,
			"count":2,
			"type":"VEC4"
		},
		{
			"bufferView":50,
			"componentType":5126,
			"count":2,
			"type":"VEC3"
		},
		{
			"bufferView":51,
			"componentType":5126,
			"count":2,
			"type":"VEC3"
		},
		{
			"bufferView":52,
			"componentType":5126,
			"count":22,
			"type":"VEC4"
		},
		{
			"bufferView":53,
			"componentType":5126,
			"count":2,
			"type":"VEC3"
		},
		{
			"bufferView":54,
			"componentType":5126,
			"count":2,
			"type":"VEC3"
		},
		{
			"bufferView":55,
			"componentType":5126,
			"count":22,
			"type":"VEC4"
		},
		{
			"bufferView":56,
			"componentType":5126,
			"count":2,
			"type":"VEC3"
		},
		{
			"bufferView":57,
			"componentType":5126,
			"count":2,
			"type":"VEC3"
		},
		{
			"bufferView":58,
			"componentType":5126,
			"count":22,
			"type":"VEC4"
		},
		{
			"bufferView":59,
			"componentType":5126,
			"count":2,
			"type":"VEC3"
		},
		{
			"bufferView":60,
			"componentType":5126,
			"count":2,
			"type":"VEC3"
		},
		{
			"bufferView":61,
			"componentType":5126,
			"count":2,
			"type":"VEC4"
		},
		{
			"bufferView":62,
			"componentType":5126,
			"count":2,
			"type":"VEC3"
		},
		{
			"bufferView":63,
			"componentType":5126,
			"count":2,
			"type":"VEC3"
		},
		{
			"bufferView":64,
			"componentType":5126,
			"count":22,
			"type":"VEC4"
		},
		{
			"bufferView":65,
			"componentType":5126,
			"count":2,
			"type":"VEC3"
		},
		{
			"bufferView":66,
			"componentType":5126,
			"count":2,
			"type":"VEC3"
		},
		{
			"bufferView":67,
			"componentType":5126,
			"count":22,
			"type":"VEC4"
		},
		{
			"bufferView":68,
			"componentType":5126,
			"count":2,
			"type":"VEC3"
		},
		{
			"bufferView":69,
			"componentType":5126,
			"count":2,
			"type":"VEC3"
		},
		{
			"bufferView":70,
			"componentType":5126,
			"count":22,
			"type":"VEC4"
		},
		{
			"bufferView":71,
			"componentType":5126,
			"count":2,
			"type":"VEC3"
		},
		{
			"bufferView":72,
			"componentType":5126,
			"count":2,
			"type":"VEC3"
		},
		{
			"bufferView":73,
			"componentType":5126,
			"count":2,
			"type":"VEC4"
		},
		{
			"bufferView":74,
			"componentType":5126,
			"count":2,
			"type":"VEC3"
		},
		{
			"bufferView":75,
			"componentType":5126,
			"count":2,
			"type":"VEC3"
		},
		{
			"bufferView":76,
			"componentType":5126,
			"count":2,
			"type":"VEC4"
		},
		{
			"bufferView":77,
			"componentType":5126,
			"count":2,
			"type":"VEC3"
		},
		{
			"bufferView":78,
			"componentType":5126,
			"count":2,
			"type":"VEC3"
		},
		{
			"bufferView":79,
			"componentType":5126,
			"count":22,
			"type":"VEC4"
		},
		{
			"bufferView":80,
			"componentType":5126,
			"count":2,
			"type":"VEC3"
		},
		{
			"bufferView":81,
			"componentType":5126,
			"count":22,
			"type":"VEC4"
		},
		{
			"bufferView":82,
			"componentType":5126,
			"count":2,
			"type":"VEC3"
		},
		{
			"bufferView":83,
			"componentType":5126,
			"count":2,
			"type":"VEC3"
		},
		{
			"bufferView":84,
			"componentType":5126,
			"count":2,
			"type":"VEC4"
		},
		{
			"bufferView":85,
			"componentType":5126,
			"count":2,
			"type":"VEC3"
		},
		{
			"bufferView":86,
			"componentType":5126,
			"count":22,
			"type":"VEC4"
		},
		{
			"bufferView":87,
			"componentType":5126,
			"count":2,
			"type":"VEC3"
		},
		{
			"bufferView":88,
			"componentType":5126,
			"count":2,
			"type":"VEC3"
		},
		{
			"bufferView":89,
			"componentType":5126,
			"count":22,
			"type":"VEC4"
		},
		{
			"bufferView":90,
			"componentType":5126,
			"count":2,
			"type":"VEC3"
		},
		{
			"bufferView":91,
			"componentType":5126,
			"count":2,
			"type":"VEC3"
		},
		{
			"bufferView":92,
			"componentType":5126,
			"count":2,
			"type":"VEC4"
		},
		{
			"bufferView":93,
			"componentType":5126,
			"count":2,
			"type":"VEC3"
		},
		{
			"bufferView":94,
			"componentType":5126,
			"count":2,
			"type":"VEC3"
		},
		{
			"bufferView":95,
			"componentType":5126,
			"count":22,
			"type":"VEC4"
		},
		{
			"bufferView":96,
			"componentType":5126,
			"count":2,
			"type":"VEC3"
		},
		{
			"bufferView":97,
			"componentType":5126,
			"count":2,
			"type":"VEC3"
		},
		{
			"bufferView":98,
			"componentType":5126,
			"count":2,
			"type":"VEC4"
		},
		{
			"bufferView":99,
			"componentType":5126,
			"count":2,
			"type":"VEC3"
		},
		{
			"bufferView":100,
			"componentType":5126,
			"count":2,
			"type":"VEC3"
		},
		{
			"bufferView":101,
			"componentType":5126,
			"count":2,
			"type":"VEC4"
		},
		{
			"bufferView":102,
			"componentType":5126,
			"count":2,
			"type":"VEC3"
		},
		{
			"bufferView":103,
			"componentType":5126,
			"count":2,
			"type":"VEC3"
		},
		{
			"bufferView":104,
			"componentType":5126,
			"count":2,
			"type":"VEC4"
		},
		{
			"bufferView":105,
			"componentType":5126,
			"count":2,
			"type":"VEC3"
		},
		{
			"bufferView":106,
			"componentType":5126,
			"count":2,
			"type":"VEC3"
		},
		{
			"bufferView":107,
			"componentType":5126,
			"count":22,
			"type":"VEC4"
		},
		{
			"bufferView":108,
			"componentType":5126,
			"count":2,
			"type":"VEC3"
		},
		{
			"bufferView":109,
			"componentType":5126,
			"count":2,
			"type":"VEC4"
		},
		{
			"bufferView":110,
			"componentType":5126,
			"count":2,
			"type":"VEC3"
		},
		{
			"bufferView":111,
			"componentType":5126,
			"count":2,
			"type":"VEC3"
		},
		{
			"bufferView":112,
			"componentType":5126,
			"count":22,
			"type":"VEC4"
		},
		{
			"bufferView":113,
			"componentType":5126,
			"count":2,
			"type":"VEC3"
		},
		{
			"bufferView":114,
			"componentType":5126,
			"count":2,
			"type":"VEC3"
		},
		{
			"bufferView":115,
			"componentType":5126,
			"count":2,
			"type":"VEC4"
		},
		{
			"bufferView":116,
			"componentType":5126,
			"count":2,
			"type":"VEC3"
		},
		{
			"bufferView":117,
			"componentType":5126,
			"count":22,
			"type":"VEC4"
		},
		{
			"bufferView":118,
			"componentType":5126,
			"count":2,
			"type":"VEC3"
		},
		{
			"bufferView":119,
			"componentType":5126,
			"count":22,
			"type":"VEC4"
		},
		{
			"bufferView":120,
			"componentType":5126,
			"count":2,
			"type":"VEC3"
		},
		{
			"bufferView":121,
			"componentType":5126,
			"count":2,
			"type":"VEC3"
		},
		{
			"bufferView":122,
			"componentType":5126,
			"count":2,
			"type":"VEC4"
		},
		{
			"bufferView":123,
			"componentType":5126,
			"count":2,
			"type":"VEC3"
		},
		{
			"bufferView":124,
			"componentType":5126,
			"count":2,
			"type":"VEC4"
		},
		{
			"bufferView":125,
			"componentType":5126,
			"count":2,
			"type":"VEC3"
		},
		{
			"bufferView":126,
			"componentType":5126,
			"count":2,
			"type":"VEC3"
		},
		{
			"bufferView":127,
			"componentType":5126,
			"count":22,
			"type":"VEC4"
		},
		{
			"bufferView":128,
			"componentType":5126,
			"count":2,
			"type":"VEC3"
		},
		{
			"bufferView":129,
			"componentType":5126,
			"count":2,
			"type":"VEC3"
		},
		{
			"bufferView":130,
			"componentType":5126,
			"count":22,
			"type":"VEC4"
		},
		{
			"bufferView":131,
			"componentType":5126,
			"count":2,
			"type":"VEC3"
		},
		{
			"bufferView":132,
			"componentType":5126,
			"count":22,
			"type":"VEC4"
		},
		{
			"bufferView":133,
			"componentType":5126,
			"count":2,
			"type":"VEC3"
		},
		{
			"bufferView":134,
			"componentType":5126,
			"count":2,
			"type":"VEC3"
		},
		{
			"bufferView":135,
			"componentType":5126,
			"count":2,
			"type":"VEC4"
		},
		{
			"bufferView":136,
			"componentType":5126,
			"count":2,
			"type":"VEC3"
		},
		{
			"bufferView":137,
			"componentType":5126,
			"count":22,
			"type":"VEC4"
		},
		{
			"bufferView":138,
			"componentType":5126,
			"count":2,
			"type":"VEC3"
		},
		{
			"bufferView":139,
			"componentType":5126,
			"count":2,
			"type":"VEC4"
		},
		{
			"bufferView":140,
			"componentType":5126,
			"count":2,
			"type":"VEC3"
		},
		{
			"bufferView":141,
			"componentType":5126,
			"count":22,
			"type":"VEC4"
		},
		{
			"bufferView":142,
			"componentType":5126,
			"count":2,
			"type":"VEC3"
		},
		{
			"bufferView":143,
			"componentType":5126,
			"count":2,
			"type":"VEC3"
		},
		{
			"bufferView":144,
			"componentType":5126,
			"count":2,
			"type":"VEC4"
		},
		{
			"bufferView":145,
			"componentType":5126,
			"count":2,
			"type":"VEC3"
		},
		{
			"bufferView":146,
			"componentType":5126,
			"count":22,
			"type":"VEC4"
		},
		{
			"bufferView":147,
			"componentType":5126,
			"count":2,
			"type":"VEC3"
		},
		{
			"bufferView":148,
			"componentType":5126,
			"count":22,
			"type":"VEC4"
		},
		{
			"bufferView":149,
			"componentType":5126,
			"count":2,
			"type":"VEC3"
		},
		{
			"bufferView":150,
			"componentType":5126,
			"count":2,
			"type":"VEC4"
		},
		{
			"bufferView":151,
			"componentType":5126,
			"count":2,
			"type":"VEC3"
		},
		{
			"bufferView":152,
			"componentType":5126,
			"count":2,
			"type":"VEC4"
		},
		{
			"bufferView":153,
			"componentType":5126,
			"count":2,
			"type":"VEC3"
		},
		{
			"bufferView":154,
			"componentType":5126,
			"count":2,
			"type":"VEC4"
		},
		{
			"bufferView":155,
			"componentType":5126,
			"count":2,
			"type":"VEC3"
		},
		{
			"bufferView":156,
			"componentType":5126,
			"count":2,
			"type":"VEC3"
		},
		{
			"bufferView":157,
			"componentType":5126,
			"count":2,
			"type":"VEC4"
		}
	],
	"bufferViews":[
		{
			"buffer":0,
			"byteLength":24408,
			"byteOffset":0,
			"target":34962
		},
		{
			"buffer":0,
			"byteLength":24408,
			"byteOffset":24408,
			"target":34962
		},
		{
			"buffer":0,
			"byteLength":16272,
			"byteOffset":48816,
			"target":34962
		},
		{
			"buffer":0,
			"byteLength":8136,
			"byteOffset":65088,
			"target":34962
		},
		{
			"buffer":0,
			"byteLength":8136,
			"byteOffset":73224,
			"target":34962
		},
		{
			"buffer":0,
			"byteLength":32544,
			"byteOffset":81360,
			"target":34962
		},
		{
			"buffer":0,
			"byteLength":32544,
			"byteOffset":113904,
			"target":34962
		},
		{
			"buffer":0,
			"byteLength":6708,
			"byteOffset":146448,
			"target":34963
		},
		{
			"buffer":0,
			"byteLength":19944,
			"byteOffset":153156,
			"target":34962
		},
		{
			"buffer":0,
			"byteLength":19944,
			"byteOffset":173100,
			"target":34962
		},
		{
			"buffer":0,
			"byteLength":13296,
			"byteOffset":193044,
			"target":34962
		},
		{
			"buffer":0,
			"byteLength":6648,
			"byteOffset":206340,
			"target":34962
		},
		{
			"buffer":0,
			"byteLength":6648,
			"byteOffset":212988,
			"target":34962
		},
		{
			"buffer":0,
			"byteLength":26592,
			"byteOffset":219636,
			"target":34962
		},
		{
			"buffer":0,
			"byteLength":26592,
			"byteOffset":246228,
			"target":34962
		},
		{
			"buffer":0,
			"byteLength":6708,
			"byteOffset":272820,
			"target":34963
		},
		{
			"buffer":0,
			"byteLength":3328,
			"byteOffset":279528
		},
		{
			"buffer":0,
			"byteLength":8,
			"byteOffset":282856
		},
		{
			"buffer":0,
			"byteLength":24,
			"byteOffset":282864
		},
		{
			"buffer":0,
			"byteLength":88,
			"byteOffset":282888
		},
		{
			"buffer":0,
			"byteLength":352,
			"byteOffset":282976
		},
		{
			"buffer":0,
			"byteLength":24,
			"byteOffset":283328
		},
		{
			"buffer":0,
			"byteLength":24,
			"byteOffset":283352
		},
		{
			"buffer":0,
			"byteLength":352,
			"byteOffset":283376
		},
		{
			"buffer":0,
			"byteLength":24,
			"byteOffset":283728
		},
		{
			"buffer":0,
			"byteLength":352,
			"byteOffset":283752
		},
		{
			"buffer":0,
			"byteLength":24,
			"byteOffset":284104
		},
		{
			"buffer":0,
			"byteLength":24,
			"byteOffset":284128
		},
		{
			"buffer":0,
			"byteLength":32,
			"byteOffset":284152
		},
		{
			"buffer":0,
			"byteLength":24,
			"byteOffset":284184
		},
		{
			"buffer":0,
			"byteLength":24,
			"byteOffset":284208
		},
		{
			"buffer":0,
			"byteLength":352,
			"byteOffset":284232
		},
		{
			"buffer":0,
			"byteLength":24,
			"byteOffset":284584
		},
		{
			"buffer":0,
			"byteLength":24,
			"byteOffset":284608
		},
		{
			"buffer":0,
			"byteLength":352,
			"byteOffset":284632
		},
		{
			"buffer":0,
			"byteLength":24,
			"byteOffset":284984
		},
		{
			"buffer":0,
			"byteLength":24,
			"byteOffset":285008
		},
		{
			"buffer":0,
			"byteLength":32,
			"byteOffset":285032
		},
		{
			"buffer":0,
			"byteLength":24,
			"byteOffset":285064
		},
		{
			"buffer":0,
			"byteLength":24,
			"byteOffset":285088
		},
		{
			"buffer":0,
			"byteLength":352,
			"byteOffset":285112
		},
		{
			"buffer":0,
			"byteLength":24,
			"byteOffset":285464
		},
		{
			"buffer":0,
			"byteLength":24,
			"byteOffset":285488
		},
		{
			"buffer":0,
			"byteLength":352,
			"byteOffset":285512
		},
		{
			"buffer":0,
			"byteLength":24,
			"byteOffset":285864
		},
		{
			"buffer":0,
			"byteLength":24,
			"byteOffset":285888
		},
		{
			"buffer":0,
			"byteLength":352,
			"byteOffset":285912
		},
		{
			"buffer":0,
			"byteLength":24,
			"byteOffset":286264
		},
		{
			"buffer":0,
			"byteLength":24,
			"byteOffset":286288
		},
		{
			"buffer":0,
			"byteLength":32,
			"byteOffset":286312
		},
		{
			"buffer":0,
			"byteLength":24,
			"byteOffset":286344
		},
		{
			"buffer":0,
			"byteLength":24,
			"byteOffset":286368
		},
		{
			"buffer":0,
			"byteLength":352,
			"byteOffset":286392
		},
		{
			"buffer":0,
			"byteLength":24,
			"byteOffset":286744
		},
		{
			"buffer":0,
			"byteLength":24,
			"byteOffset":286768
		},
		{
			"buffer":0,
			"byteLength":352,
			"byteOffset":286792
		},
		{
			"buffer":0,
			"byteLength":24,
			"byteOffset":287144
		},
		{
			"buffer":0,
			"byteLength":24,
			"byteOffset":287168
		},
		{
			"buffer":0,
			"byteLength":352,
			"byteOffset":287192
		},
		{
			"buffer":0,
			"byteLength":24,
			"byteOffset":287544
		},
		{
			"buffer":0,
			"byteLength":24,
			"byteOffset":287568
		},
		{
			"buffer":0,
			"byteLength":32,
			"byteOffset":287592
		},
		{
			"buffer":0,
			"byteLength":24,
			"byteOffset":287624
		},
		{
			"buffer":0,
			"byteLength":24,
			"byteOffset":287648
		},
		{
			"buffer":0,
			"byteLength":352,
			"byteOffset":287672
		},
		{
			"buffer":0,
			"byteLength":24,
			"byteOffset":288024
		},
		{
			"buffer":0,
			"byteLength":24,
			"byteOffset":288048
		},
		{
			"buffer":0,
			"byteLength":352,
			"byteOffset":288072
		},
		{
			"buffer":0,
			"byteLength":24,
			"byteOffset":288424
		},
		{
			"buffer":0,
			"byteLength":24,
			"byteOffset":288448
		},
		{
			"buffer":0,
			"byteLength":352,
			"byteOffset":288472
		},
		{
			"buffer":0,
			"byteLength":24,
			"byteOffset":288824
		},
		{
			"buffer":0,
			"byteLength":24,
			"byteOffset":288848
		},
		{
			"buffer":0,
			"byteLength":32,
			"byteOffset":288872
		},
		{
			"buffer":0,
			"byteLength":24,
			"byteOffset":288904
		},
		{
			"buffer":0,
			"byteLength":24,
			"byteOffset":288928
		},
		{
			"buffer":0,
			"byteLength":32,
			"byteOffset":288952
		},
		{
			"buffer":0,
			"byteLength":24,
			"byteOffset":288984
		},
		{
			"buffer":0,
			"byteLength":24,
			"byteOffset":289008
		},
		{
			"buffer":0,
			"byteLength":352,
			"byteOffset":289032
		},
		{
			"buffer":0,
			"byteLength":24,
			"byteOffset":289384
		},
		{
			"buffer":0,
			"byteLength":352,
			"byteOffset":289408
		},
		{
			"buffer":0,
			"byteLength":24,
			"byteOffset":289760
		},
		{
			"buffer":0,
			"byteLength":24,
			"byteOffset":289784
		},
		{
			"buffer":0,
			"byteLength":32,
			"byteOffset":289808
		},
		{
			"buffer":0,
			"byteLength":24,
			"byteOffset":289840
		},
		{
			"buffer":0,
			"byteLength":352,
			"byteOffset":289864
		},
		{
			"buffer":0,
			"byteLength":24,
			"byteOffset":290216
		},
		{
			"buffer":0,
			"byteLength":24,
			"byteOffset":290240
		},
		{
			"buffer":0,
			"byteLength":352,
			"byteOffset":290264
		},
		{
			"buffer":0,
			"byteLength":24,
			"byteOffset":290616
		},
		{
			"buffer":0,
			"byteLength":24,
			"byteOffset":290640
		},
		{
			"buffer":0,
			"byteLength":32,
			"byteOffset":290664
		},
		{
			"buffer":0,
			"byteLength":24,
			"byteOffset":290696
		},
		{
			"buffer":0,
			"byteLength":24,
			"byteOffset":290720
		},
		{
			"buffer":0,
			"byteLength":352,
			"byteOffset":290744
		},
		{
			"buffer":0,
			"byteLength":24,
			"byteOffset":291096
		},
		{
			"buffer":0,
			"byteLength":24,
			"byteOffset":291120
		},
		{
			"buffer":0,
			"byteLength":32,
			"byteOffset":291144
		},
		{
			"buffer":0,
			"byteLength":24,
			"byteOffset":291176
		},
		{
			"buffer":0,
			"byteLength":24,
			"byteOffset":291200
		},
		{
			"buffer":0,
			"byteLength":32,
			"byteOffset":291224
		},
		{
			"buffer":0,
			"byteLength":24,
			"byteOffset":291256
		},
		{
			"buffer":0,
			"byteLength":24,
			"byteOffset":291280
		},
		{
			"buffer":0,
			"byteLength":32,
			"byteOffset":291304
		},
		{
			"buffer":0,
			"byteLength":24,
			"byteOffset":291336
		},
		{
			"buffer":0,
			"byteLength":24,
			"byteOffset":291360
		},
		{
			"buffer":0,
			"byteLength":352,
			"byteOffset":291384
		},
		{
			"buffer":0,
			"byteLength":24,
			"byteOffset":291736
		},
		{
			"buffer":0,
			"byteLength":32,
			"byteOffset":291760
		},
		{
			"buffer":0,
			"byteLength":24,
			"byteOffset":291792
		},
		{
			"buffer":0,
			"byteLength":24,
			"byteOffset":291816
		},
		{
			"buffer":0,
			"byteLength":352,
			"byteOffset":291840
		},
		{
			"buffer":0,
			"byteLength":24,
			"byteOffset":292192
		},
		{
			"buffer":0,
			"byteLength":24,
			"byteOffset":292216
		},
		{
			"buffer":0,
			"byteLength":32,
			"byteOffset":292240
		},
		{
			"buffer":0,
			"byteLength":24,
			"byteOffset":292272
		},
		{
			"buffer":0,
			"byteLength":352,
			"byteOffset":292296
		},
		{
			"buffer":0,
			"byteLength":24,
			"byteOffset":292648
		},
		{
			"buffer":0,
			"byteLength":352,
			"byteOffset":292672
		},
		{
			"buffer":0,
			"byteLength":24,
			"byteOffset":293024
		},
		{
			"buffer":0,
			"byteLength":24,
			"byteOffset":293048
		},
		{
			"buffer":0,
			"byteLength":32,
			"byteOffset":293072
		},
		{
			"buffer":0,
			"byteLength":24,
			"byteOffset":293104
		},
		{
			"buffer":0,
			"byteLength":32,
			"byteOffset":293128
		},
		{
			"buffer":0,
			"byteLength":24,
			"byteOffset":293160
		},
		{
			"buffer":0,
			"byteLength":24,
			"byteOffset":293184
		},
		{
			"buffer":0,
			"byteLength":352,
			"byteOffset":293208
		},
		{
			"buffer":0,
			"byteLength":24,
			"byteOffset":293560
		},
		{
			"buffer":0,
			"byteLength":24,
			"byteOffset":293584
		},
		{
			"buffer":0,
			"byteLength":352,
			"byteOffset":293608
		},
		{
			"buffer":0,
			"byteLength":24,
			"byteOffset":293960
		},
		{
			"buffer":0,
			"byteLength":352,
			"byteOffset":293984
		},
		{
			"buffer":0,
			"byteLength":24,
			"byteOffset":294336
		},
		{
			"buffer":0,
			"byteLength":24,
			"byteOffset":294360
		},
		{
			"buffer":0,
			"byteLength":32,
			"byteOffset":294384
		},
		{
			"buffer":0,
			"byteLength":24,
			"byteOffset":294416
		},
		{
			"buffer":0,
			"byteLength":352,
			"byteOffset":294440
		},
		{
			"buffer":0,
			"byteLength":24,
			"byteOffset":294792
		},
		{
			"buffer":0,
			"byteLength":32,
			"byteOffset":294816
		},
		{
			"buffer":0,
			"byteLength":24,
			"byteOffset":294848
		},
		{
			"buffer":0,
			"byteLength":352,
			"byteOffset":294872
		},
		{
			"buffer":0,
			"byteLength":24,
			"byteOffset":295224
		},
		{
			"buffer":0,
			"byteLength":24,
			"byteOffset":295248
		},
		{
			"buffer":0,
			"byteLength":32,
			"byteOffset":295272
		},
		{
			"buffer":0,
			"byteLength":24,
			"byteOffset":295304
		},
		{
			"buffer":0,
			"byteLength":352,
			"byteOffset":295328
		},
		{
			"buffer":0,
			"byteLength":24,
			"byteOffset":295680
		},
		{
			"buffer":0,
			"byteLength":352,
			"byteOffset":295704
		},
		{
			"buffer":0,
			"byteLength":24,
			"byteOffset":296056
		},
		{
			"buffer":0,
			"byteLength":32,
			"byteOffset":296080
		},
		{
			"buffer":0,
			"byteLength":24,
			"byteOffset":296112
		},
		{
			"buffer":0,
			"byteLength":32,
			"byteOffset":296136
		},
		{
			"buffer":0,
			"byteLength":24,
			"byteOffset":296168
		},
		{
			"buffer":0,
			"byteLength":32,
			"byteOffset":296192
		},
		{
			"buffer":0,
			"byteLength":24,
			"byteOffset":296224
		},
		{
			"buffer":0,
			"byteLength":24,
			"byteOffset":296248
		},
		{
			"buffer":0,
			"byteLength":32,
			"byteOffset":296272
		}
	],
	"buffers":[
		{
			"byteLength":296304,
			"uri":"rat_minion-9f260234c19e1e8f3f29bd1b58b994ea.bin"
		}
	]
}
