{
	"asset":{
		"generator":"Khronos glTF Blender I/O v4.5.47",
		"version":"2.0"
	},
	"scene":0,
	"scenes":[
		{
			"name":"Scene",
			"nodes":[
				0,
				1,
				2,
				3,
				4
			]
		}
	],
	"nodes":[
		{
			"mesh":0,
			"name":"Cube",
			"scale":[
				1,
				1,
				0.30000001192092896
			],
			"translation":[
				-0.13428571820259094,
				0.08571431040763855,
				0.0052778273820877075
			]
		},
		{
			"mesh":1,
			"name":"Cube.001",
			"scale":[
				1,
				1,
				0.30000001192092896
			],
			"translation":[
				0.09041768312454224,
				0.5118864178657532,
				0.006587371230125427
			]
		},
		{
			"mesh":2,
			"name":"Cube.002",
			"rotation":[
				0,
				0,
				0.7071068286895752,
				0.7071068286895752
			],
			"scale":[
				1,
				1,
				0.30000001192092896
			],
			"translation":[
				-1.0185303688049316,
				1.2084767818450928,
				0.006587371230125427
			]
		},
		{
			"mesh":3,
			"name":"Cube.003",
			"scale":[
				1.1951861381530762,
				1,
				1
			],
			"translation":[
				-0.20390918850898743,
				0.3115280270576477,
				-1.8980234861373901
			]
		},
		{
			"mesh":4,
			"name":"Cube.004",
			"rotation":[
				0,
				0,
				-1,
				0
			],
			"scale":[
				-1.1951861381530762,
				-1,
				-1
			],
			"translation":[
				-0.2038573920726776,
				0.8606163859367371,
				1.0664029121398926
			]
		}
	],
	"materials":[
		{
			"doubleSided":true,
			"name":"Material",
			"pbrMetallicRoughness":{
				"baseColorFactor":[
					0.800000011920929,
					0.800000011920929,
					0.800000011920929,
					1
				],
				"metallicFactor":0,
				"roughnessFactor":0.5
			}
		},
		{
			"doubleSided":true,
			"name":"Material.003",
			"pbrMetallicRoughness":{
				"baseColorFactor":[
					0,
					0,
					0,
					1
				],
				"metallicFactor":0
			}
		},
		{
			"doubleSided":true,
			"name":"Material.001",
			"pbrMetallicRoughness":{
				"baseColorFactor":[
					0.800000011920929,
					0.800000011920929,
					0.800000011920929,
					1
				],
				"metallicFactor":0,
				"roughnessFactor":0.5
			}
		},
		{
			"doubleSided":true,
			"name":"Material.002",
			"pbrMetallicRoughness":{
				"baseColorFactor":[
					0,
					0,
					0,
					1
				],
				"metallicFactor":0,
				"roughnessFactor":0.5
			}
		},
		{
			"doubleSided":true,
			"name":"Material.004",
			"pbrMetallicRoughness":{
				"baseColorFactor":[
					0.800000011920929,
					0.800000011920929,
					0.800000011920929,
					1
				],
				"metallicFactor":0,
				"roughnessFactor":0.5
			}
		},
		{
			"doubleSided":true,
			"name":"Material.005",
			"pbrMetallicRoughness":{
				"baseColorFactor":[
					0,
					0,
					0,
					1
				],
				"metallicFactor":0
			}
		}
	],
	"meshes":[
		{
			"name":"Cube",
			"primitives":[
				{
					"attributes":{
						"POSITION":0,
						"NORMAL":1,
						"TEXCOORD_0":2,
						"TANGENT":3
					},
					"indices":4,
					"material":0
				},
				{
					"attributes":{
						"POSITION":5,
						"NORMAL":6,
						"TEXCOORD_0":7,
						"TANGENT":8
					},
					"indices":9,
					"material":1
				}
			]
		},
		{
			"name":"Mesh",
			"primitives":[
				{
					"attributes":{
						"POSITION":10,
						"NORMAL":11,
						"TEXCOORD_0":12,
						"TANGENT":13
					},
					"indices":14
				}
			]
		},
		{
			"name":"Mesh",
			"primitives":[
				{
					"attributes":{
						"POSITION":15,
						"NORMAL":16,
						"TEXCOORD_0":17,
						"TANGENT":18
					},
					"indices":14
				}
			]
		},
		{
			"name":"Cube.005",
			"primitives":[
				{
					"attributes":{
						"POSITION":19,
						"NORMAL":20,
						"TEXCOORD_0":21
					},
					"indices":22,
					"material":2
				},
				{
					"attributes":{
						"POSITION":23,
						"NORMAL":24,
						"TEXCOORD_0":25
					},
					"indices":26,
					"material":3
				}
			]
		},
		{
			"name":"Cube.006",
			"primitives":[
				{
					"attributes":{
						"POSITION":27,
						"NORMAL":28,
						"TEXCOORD_0":29
					},
					"indices":22,
					"material":4
				},
				{
					"attributes":{
						"POSITION":30,
						"NORMAL":31,
						"TEXCOORD_0":32
					},
					"indices":26,
					"material":5
				}
			]
		}
	],
	"accessors":[
		{
			"bufferView":0,
			"componentType":5126,
			"count":84,
			"max":[
				1.1342856884002686,
				2.914285659790039,
				2.9962499141693115
			],
			"min":[
				-1.2327508926391602,
				-0.7857143878936768,
				-3.0037500858306885
			],
			"type":"VEC3"
		},
		{
			"bufferView":1,
			"componentType":5126,
			"count":84,
			"type":"VEC3"
		},
		{
			"bufferView":2,
			"componentType":5126,
			"count":84,
			"type":"VEC2"
		},
		{
			"bufferView":3,
			"componentType":5126,
			"count":84,
			"type":"VEC4"
		},
		{
			"bufferView":4,
			"componentType":5123,
			"count":222,
			"type":"SCALAR"
		},
		{
			"bufferView":5,
			"componentType":5126,
			"count":60,
			"max":[
				1.1342856884002686,
				-0.3857143223285675,
				2.9962499141693115
			],
			"min":[
				-1.2327508926391602,
				-0.7857143878936768,
				-3.0037500858306885
			],
			"type":"VEC3"
		},
		{
			"bufferView":6,
			"componentType":5126,
			"count":60,
			"type":"VEC3"
		},
		{
			"bufferView":7,
			"componentType":5126,
			"count":60,
			"type":"VEC2"
		},
		{
			"bufferView":8,
			"componentType":5126,
			"count":60,
			"type":"VEC4"
		},
		{
			"bufferView":9,
			"componentType":5123,
			"count":102,
			"type":"SCALAR"
		},
		{
			"bufferView":10,
			"componentType":5126,
			"count":183,
			"max":[
				0.8935315608978271,
				0.21866962313652039,
				2.974266529083252
			],
			"min":[
				-0.8955899477005005,
				-0.21866962313652039,
				-2.9811184406280518
			],
			"type":"VEC3"
		},
		{
			"bufferView":11,
			"componentType":5126,
			"count":183,
			"type":"VEC3"
		},
		{
			"bufferView":12,
			"componentType":5126,
			"count":183,
			"type":"VEC2"
		},
		{
			"bufferView":13,
			"componentType":5126,
			"count":183,
			"type":"VEC4"
		},
		{
			"bufferView":14,
			"componentType":5123,
			"count":720,
			"type":"SCALAR"
		},
		{
			"bufferView":15,
			"componentType":5126,
			"count":183,
			"max":[
				1.7825757265090942,
				0.21866968274116516,
				2.974266529083252
			],
			"min":[
				-0.8955899477005005,
				-0.21866962313652039,
				-2.9811184406280518
			],
			"type":"VEC3"
		},
		{
			"bufferView":16,
			"componentType":5126,
			"count":183,
			"type":"VEC3"
		},
		{
			"bufferView":17,
			"componentType":5126,
			"count":183,
			"type":"VEC2"
		},
		{
			"bufferView":18,
			"componentType":5126,
			"count":183,
			"type":"VEC4"
		},
		{
			"bufferView":19,
			"componentType":5126,
			"count":244,
			"max":[
				1,
				1,
				1
			],
			"min":[
				-0.9668260812759399,
				-1,
				0.6983544230461121
			],
			"type":"VEC3"
		},
		{
			"bufferView":20,
			"componentType":5126,
			"count":244,
			"type":"VEC3"
		},
		{
			"bufferView":21,
			"componentType":5126,
			"count":244,
			"type":"VEC2"
		},
		{
			"bufferView":22,
			"componentType":5123,
			"count":474,
			"type":"SCALAR"
		},
		{
			"bufferView":23,
			"componentType":5126,
			"count":4,
			"max":[
				1,
				-1,
				1
			],
			"min":[
				-0.9668260812759399,
				-1,
				0.8999999761581421
			],
			"type":"VEC3"
		},
		{
			"bufferView":24,
			"componentType":5126,
			"count":4,
			"type":"VEC3"
		},
		{
			"bufferView":25,
			"componentType":5126,
			"count":4,
			"type":"VEC2"
		},
		{
			"bufferView":26,
			"componentType":5123,
			"count":6,
			"type":"SCALAR"
		},
		{
			"bufferView":27,
			"componentType":5126,
			"count":244,
			"max":[
				0.9999566674232483,
				0.45091164112091064,
				0.15368467569351196
			],
			"min":[
				-0.9668694734573364,
				-1.5490883588790894,
				-0.14796090126037598
			],
			"type":"VEC3"
		},
		{
			"bufferView":28,
			"componentType":5126,
			"count":244,
			"type":"VEC3"
		},
		{
			"bufferView":29,
			"componentType":5126,
			"count":244,
			"type":"VEC2"
		},
		{
			"bufferView":30,
			"componentType":5126,
			"count":4,
			"max":[
				0.9999566674232483,
				-1.5490883588790894,
				0.15368467569351196
			],
			"min":[
				-0.9668694734573364,
				-1.5490883588790894,
				0.05368465185165405
			],
			"type":"VEC3"
		},
		{
			"bufferView":31,
			"componentType":5126,
			"count":4,
			"type":"VEC3"
		},
		{
			"bufferView":32,
			"componentType":5126,
			"count":4,
			"type":"VEC2"
		}
	],
	"bufferViews":[
		{
			"buffer":0,
			"byteLength":1008,
			"byteOffset":0,
			"target":34962
		},
		{
			"buffer":0,
			"byteLength":1008,
			"byteOffset":1008,
			"target":34962
		},
		{
			"buffer":0,
			"byteLength":672,
			"byteOffset":2016,
			"target":34962
		},
		{
			"buffer":0,
			"byteLength":1344,
			"byteOffset":2688,
			"target":34962
		},
		{
			"buffer":0,
			"byteLength":444,
			"byteOffset":4032,
			"target":34963
		},
		{
			"buffer":0,
			"byteLength":720,
			"byteOffset":4476,
			"target":34962
		},
		{
			"buffer":0,
			"byteLength":720,
			"byteOffset":5196,
			"target":34962
		},
		{
			"buffer":0,
			"byteLength":480,
			"byteOffset":5916,
			"target":34962
		},
		{
			"buffer":0,
			"byteLength":960,
			"byteOffset":6396,
			"target":34962
		},
		{
			"buffer":0,
			"byteLength":204,
			"byteOffset":7356,
			"target":34963
		},
		{
			"buffer":0,
			"byteLength":2196,
			"byteOffset":7560,
			"target":34962
		},
		{
			"buffer":0,
			"byteLength":2196,
			"byteOffset":9756,
			"target":34962
		},
		{
			"buffer":0,
			"byteLength":1464,
			"byteOffset":11952,
			"target":34962
		},
		{
			"buffer":0,
			"byteLength":2928,
			"byteOffset":13416,
			"target":34962
		},
		{
			"buffer":0,
			"byteLength":1440,
			"byteOffset":16344,
			"target":34963
		},
		{
			"buffer":0,
			"byteLength":2196,
			"byteOffset":17784,
			"target":34962
		},
		{
			"buffer":0,
			"byteLength":2196,
			"byteOffset":19980,
			"target":34962
		},
		{
			"buffer":0,
			"byteLength":1464,
			"byteOffset":22176,
			"target":34962
		},
		{
			"buffer":0,
			"byteLength":2928,
			"byteOffset":23640,
			"target":34962
		},
		{
			"buffer":0,
			"byteLength":2928,
			"byteOffset":26568,
			"target":34962
		},
		{
			"buffer":0,
			"byteLength":2928,
			"byteOffset":29496,
			"target":34962
		},
		{
			"buffer":0,
			"byteLength":1952,
			"byteOffset":32424,
			"target":34962
		},
		{
			"buffer":0,
			"byteLength":948,
			"byteOffset":34376,
			"target":34963
		},
		{
			"buffer":0,
			"byteLength":48,
			"byteOffset":35324,
			"target":34962
		},
		{
			"buffer":0,
			"byteLength":48,
			"byteOffset":35372,
			"target":34962
		},
		{
			"buffer":0,
			"byteLength":32,
			"byteOffset":35420,
			"target":34962
		},
		{
			"buffer":0,
			"byteLength":12,
			"byteOffset":35452,
			"target":34963
		},
		{
			"buffer":0,
			"byteLength":2928,
			"byteOffset":35464,
			"target":34962
		},
		{
			"buffer":0,
			"byteLength":2928,
			"byteOffset":38392,
			"target":34962
		},
		{
			"buffer":0,
			"byteLength":1952,
			"byteOffset":41320,
			"target":34962
		},
		{
			"buffer":0,
			"byteLength":48,
			"byteOffset":43272,
			"target":34962
		},
		{
			"buffer":0,
			"byteLength":48,
			"byteOffset":43320,
			"target":34962
		},
		{
			"buffer":0,
			"byteLength":32,
			"byteOffset":43368,
			"target":34962
		}
	],
	"buffers":[
		{
			"byteLength":43400,
			"uri":"sillon-0abe56d83531d15e578bb82c9c4e3f96.bin"
		}
	]
}
