{
	"asset":{
		"generator":"Khronos glTF Blender I/O v4.4.56",
		"version":"2.0"
	},
	"scene":0,
	"scenes":[
		{
			"extras":{
				"blosm":{
					"defaultLevels":[
						{
							"levels":4,
							"weight":10
						},
						{
							"levels":5,
							"weight":40
						},
						{
							"levels":6,
							"weight":10
						}
					]
				},
				"sb_state":{
					"action_preview":null,
					"action_preview_enabled":0
				}
			},
			"name":"Scene",
			"nodes":[
				18
			]
		}
	],
	"nodes":[
		{
			"name":"Hueso.003.L",
			"rotation":[
				5.161505445272496e-09,
				-8.854744493191902e-08,
				0.012857820838689804,
				0.9999173283576965
			],
			"scale":[
				0.9999999403953552,
				0.9999998807907104,
				0.9999998807907104
			],
			"translation":[
				-7.857304495928474e-08,
				0.46560248732566833,
				4.9615422881288396e-11
			]
		},
		{
			"children":[
				0
			],
			"name":"Hueso.002.L",
			"rotation":[
				-0.04073288291692734,
				0.007015729323029518,
				0.17086108028888702,
				0.984427809715271
			],
			"scale":[
				0.9999999403953552,
				0.9999999403953552,
				0.9999998807907104
			],
			"translation":[
				-8.641222848382313e-08,
				0.4555102288722992,
				1.862645149230957e-09
			]
		},
		{
			"children":[
				1
			],
			"name":"Hueso.001.L",
			"rotation":[
				0.03408928960561752,
				-0.018562018871307373,
				-0.8237819075584412,
				0.5655764937400818
			],
			"scale":[
				1.0000001192092896,
				1,
				1.0000001192092896
			],
			"translation":[
				1.857925203976527e-26,
				1.0019607543945312,
				9.313225746154785e-10
			]
		},
		{
			"name":"Hueso.003.R",
			"rotation":[
				5.161505445272496e-09,
				8.854744493191902e-08,
				-0.012857820838689804,
				0.9999173283576965
			],
			"scale":[
				0.9999999403953552,
				0.9999998807907104,
				0.9999998807907104
			],
			"translation":[
				7.857304495928474e-08,
				0.46560248732566833,
				4.9615422881288396e-11
			]
		},
		{
			"children":[
				3
			],
			"name":"Hueso.002.R",
			"rotation":[
				-0.04073288291692734,
				-0.007015729323029518,
				-0.17086108028888702,
				0.984427809715271
			],
			"scale":[
				0.9999999403953552,
				0.9999999403953552,
				0.9999998807907104
			],
			"translation":[
				8.641222848382313e-08,
				0.4555102288722992,
				1.862645149230957e-09
			]
		},
		{
			"children":[
				4
			],
			"name":"Hueso.001.R",
			"rotation":[
				0.03408928960561752,
				0.018562018871307373,
				0.8237819075584412,
				0.5655764937400818
			],
			"scale":[
				1.0000001192092896,
				1,
				1.0000001192092896
			],
			"translation":[
				1.857925203976527e-26,
				1.0019607543945312,
				9.313225746154785e-10
			]
		},
		{
			"name":"Hueso.002",
			"rotation":[
				-0.002064047148451209,
				7.105442604194052e-15,
				4.921071328212179e-10,
				0.9999978542327881
			],
			"translation":[
				1.1070191886766162e-16,
				0.1605677753686905,
				-2.561137080192566e-09
			]
		},
		{
			"children":[
				6
			],
			"name":"Hueso.001",
			"rotation":[
				0.030490832403302193,
				-1.1915387432281932e-07,
				-3.634791134743409e-09,
				0.9995350241661072
			],
			"scale":[
				1,
				1.0000001192092896,
				1.0000001192092896
			],
			"translation":[
				1.857925203976527e-26,
				1.0019607543945312,
				9.313225746154785e-10
			]
		},
		{
			"children":[
				2,
				5,
				7
			],
			"name":"Hueso",
			"rotation":[
				-0.01877785287797451,
				1.3642193534469554e-19,
				1.3642192241999847e-19,
				0.9998236894607544
			],
			"scale":[
				1,
				0.9999999403953552,
				0.9999999403953552
			],
			"translation":[
				0,
				0,
				-1.862645149230957e-09
			]
		},
		{
			"name":"Hueso.006.L",
			"rotation":[
				-0.012068003416061401,
				2.2123239773463865e-07,
				-8.327667722074494e-11,
				0.9999271631240845
			],
			"scale":[
				1,
				1,
				0.9999998807907104
			],
			"translation":[
				-1.7968062593354261e-09,
				0.5244893431663513,
				-1.497972412778381e-08
			]
		},
		{
			"children":[
				9
			],
			"name":"Hueso.005.L",
			"rotation":[
				-0.6944909691810608,
				-4.492448724136011e-08,
				1.0542734685259347e-07,
				0.7195014357566833
			],
			"scale":[
				1,
				1,
				1.0000001192092896
			],
			"translation":[
				-2.4525539377151517e-09,
				0.14385159313678741,
				1.8626450382086546e-09
			]
		},
		{
			"children":[
				10
			],
			"name":"Hueso.004.L",
			"rotation":[
				-0.5160133242607117,
				-0.4834565818309784,
				-0.5160133838653564,
				0.4834566116333008
			],
			"scale":[
				1,
				0.9999998211860657,
				0.9999999403953552
			],
			"translation":[
				0,
				0,
				-1.862645149230957e-09
			]
		},
		{
			"name":"Hueso.006.R",
			"rotation":[
				-0.012068003416061401,
				-2.2123239773463865e-07,
				8.327667722074494e-11,
				0.9999271631240845
			],
			"scale":[
				1,
				1,
				0.9999998807907104
			],
			"translation":[
				1.7968062593354261e-09,
				0.5244893431663513,
				-1.497972412778381e-08
			]
		},
		{
			"children":[
				12
			],
			"name":"Hueso.005.R",
			"rotation":[
				-0.6944909691810608,
				4.492448724136011e-08,
				-1.0542734685259347e-07,
				0.7195014357566833
			],
			"scale":[
				1,
				1,
				1.0000001192092896
			],
			"translation":[
				2.4525539377151517e-09,
				0.14385159313678741,
				1.8626450382086546e-09
			]
		},
		{
			"children":[
				13
			],
			"name":"Hueso.004.R",
			"rotation":[
				-0.5160133242607117,
				0.4834565818309784,
				0.5160133838653564,
				0.4834566116333008
			],
			"scale":[
				1,
				0.9999998211860657,
				0.9999999403953552
			],
			"translation":[
				0,
				0,
				-1.862645149230957e-09
			]
		},
		{
			"name":"neutral_bone",
			"rotation":[
				-0.7071067690849304,
				0,
				0,
				0.7071067690849304
			]
		},
		{
			"mesh":0,
			"name":"Cubo",
			"skin":0
		},
		{
			"mesh":1,
			"name":"Cubo.001",
			"skin":0
		},
		{
			"children":[
				16,
				17,
				8,
				11,
				14,
				15
			],
			"name":"Esqueleto",
			"scale":[
				1.752608060836792,
				1.752608060836792,
				1.752608060836792
			],
			"translation":[
				0,
				0,
				0.05444972217082977
			]
		}
	],
	"animations":[
		{
			"channels":[
				{
					"sampler":0,
					"target":{
						"node":8,
						"path":"translation"
					}
				},
				{
					"sampler":1,
					"target":{
						"node":8,
						"path":"rotation"
					}
				},
				{
					"sampler":2,
					"target":{
						"node":8,
						"path":"scale"
					}
				},
				{
					"sampler":3,
					"target":{
						"node":2,
						"path":"translation"
					}
				},
				{
					"sampler":4,
					"target":{
						"node":2,
						"path":"rotation"
					}
				},
				{
					"sampler":5,
					"target":{
						"node":2,
						"path":"scale"
					}
				},
				{
					"sampler":6,
					"target":{
						"node":1,
						"path":"translation"
					}
				},
				{
					"sampler":7,
					"target":{
						"node":1,
						"path":"rotation"
					}
				},
				{
					"sampler":8,
					"target":{
						"node":1,
						"path":"scale"
					}
				},
				{
					"sampler":9,
					"target":{
						"node":0,
						"path":"translation"
					}
				},
				{
					"sampler":10,
					"target":{
						"node":0,
						"path":"rotation"
					}
				},
				{
					"sampler":11,
					"target":{
						"node":0,
						"path":"scale"
					}
				},
				{
					"sampler":12,
					"target":{
						"node":5,
						"path":"translation"
					}
				},
				{
					"sampler":13,
					"target":{
						"node":5,
						"path":"rotation"
					}
				},
				{
					"sampler":14,
					"target":{
						"node":5,
						"path":"scale"
					}
				},
				{
					"sampler":15,
					"target":{
						"node":4,
						"path":"translation"
					}
				},
				{
					"sampler":16,
					"target":{
						"node":4,
						"path":"rotation"
					}
				},
				{
					"sampler":17,
					"target":{
						"node":4,
						"path":"scale"
					}
				},
				{
					"sampler":18,
					"target":{
						"node":3,
						"path":"translation"
					}
				},
				{
					"sampler":19,
					"target":{
						"node":3,
						"path":"rotation"
					}
				},
				{
					"sampler":20,
					"target":{
						"node":3,
						"path":"scale"
					}
				},
				{
					"sampler":21,
					"target":{
						"node":7,
						"path":"translation"
					}
				},
				{
					"sampler":22,
					"target":{
						"node":7,
						"path":"rotation"
					}
				},
				{
					"sampler":23,
					"target":{
						"node":7,
						"path":"scale"
					}
				},
				{
					"sampler":24,
					"target":{
						"node":6,
						"path":"translation"
					}
				},
				{
					"sampler":25,
					"target":{
						"node":6,
						"path":"rotation"
					}
				},
				{
					"sampler":26,
					"target":{
						"node":6,
						"path":"scale"
					}
				},
				{
					"sampler":27,
					"target":{
						"node":11,
						"path":"translation"
					}
				},
				{
					"sampler":28,
					"target":{
						"node":11,
						"path":"rotation"
					}
				},
				{
					"sampler":29,
					"target":{
						"node":11,
						"path":"scale"
					}
				},
				{
					"sampler":30,
					"target":{
						"node":10,
						"path":"translation"
					}
				},
				{
					"sampler":31,
					"target":{
						"node":10,
						"path":"rotation"
					}
				},
				{
					"sampler":32,
					"target":{
						"node":10,
						"path":"scale"
					}
				},
				{
					"sampler":33,
					"target":{
						"node":9,
						"path":"translation"
					}
				},
				{
					"sampler":34,
					"target":{
						"node":9,
						"path":"rotation"
					}
				},
				{
					"sampler":35,
					"target":{
						"node":9,
						"path":"scale"
					}
				},
				{
					"sampler":36,
					"target":{
						"node":14,
						"path":"translation"
					}
				},
				{
					"sampler":37,
					"target":{
						"node":14,
						"path":"rotation"
					}
				},
				{
					"sampler":38,
					"target":{
						"node":14,
						"path":"scale"
					}
				},
				{
					"sampler":39,
					"target":{
						"node":13,
						"path":"translation"
					}
				},
				{
					"sampler":40,
					"target":{
						"node":13,
						"path":"rotation"
					}
				},
				{
					"sampler":41,
					"target":{
						"node":13,
						"path":"scale"
					}
				},
				{
					"sampler":42,
					"target":{
						"node":12,
						"path":"translation"
					}
				},
				{
					"sampler":43,
					"target":{
						"node":12,
						"path":"rotation"
					}
				},
				{
					"sampler":44,
					"target":{
						"node":12,
						"path":"scale"
					}
				}
			],
			"name":"idle.001",
			"samplers":[
				{
					"input":33,
					"interpolation":"STEP",
					"output":34
				},
				{
					"input":33,
					"interpolation":"STEP",
					"output":35
				},
				{
					"input":33,
					"interpolation":"STEP",
					"output":36
				},
				{
					"input":33,
					"interpolation":"STEP",
					"output":37
				},
				{
					"input":33,
					"interpolation":"STEP",
					"output":38
				},
				{
					"input":33,
					"interpolation":"STEP",
					"output":39
				},
				{
					"input":33,
					"interpolation":"STEP",
					"output":40
				},
				{
					"input":41,
					"interpolation":"LINEAR",
					"output":42
				},
				{
					"input":33,
					"interpolation":"STEP",
					"output":43
				},
				{
					"input":33,
					"interpolation":"STEP",
					"output":44
				},
				{
					"input":33,
					"interpolation":"STEP",
					"output":45
				},
				{
					"input":33,
					"interpolation":"STEP",
					"output":46
				},
				{
					"input":33,
					"interpolation":"STEP",
					"output":47
				},
				{
					"input":33,
					"interpolation":"STEP",
					"output":48
				},
				{
					"input":33,
					"interpolation":"STEP",
					"output":49
				},
				{
					"input":33,
					"interpolation":"STEP",
					"output":50
				},
				{
					"input":41,
					"interpolation":"LINEAR",
					"output":51
				},
				{
					"input":33,
					"interpolation":"STEP",
					"output":52
				},
				{
					"input":33,
					"interpolation":"STEP",
					"output":53
				},
				{
					"input":33,
					"interpolation":"STEP",
					"output":54
				},
				{
					"input":33,
					"interpolation":"STEP",
					"output":55
				},
				{
					"input":33,
					"interpolation":"STEP",
					"output":56
				},
				{
					"input":33,
					"interpolation":"STEP",
					"output":57
				},
				{
					"input":33,
					"interpolation":"STEP",
					"output":58
				},
				{
					"input":33,
					"interpolation":"STEP",
					"output":59
				},
				{
					"input":41,
					"interpolation":"LINEAR",
					"output":60
				},
				{
					"input":33,
					"interpolation":"STEP",
					"output":61
				},
				{
					"input":33,
					"interpolation":"STEP",
					"output":62
				},
				{
					"input":33,
					"interpolation":"STEP",
					"output":63
				},
				{
					"input":33,
					"interpolation":"STEP",
					"output":64
				},
				{
					"input":33,
					"interpolation":"STEP",
					"output":65
				},
				{
					"input":33,
					"interpolation":"STEP",
					"output":66
				},
				{
					"input":33,
					"interpolation":"STEP",
					"output":67
				},
				{
					"input":33,
					"interpolation":"STEP",
					"output":68
				},
				{
					"input":33,
					"interpolation":"STEP",
					"output":69
				},
				{
					"input":33,
					"interpolation":"STEP",
					"output":70
				},
				{
					"input":33,
					"interpolation":"STEP",
					"output":71
				},
				{
					"input":33,
					"interpolation":"STEP",
					"output":72
				},
				{
					"input":33,
					"interpolation":"STEP",
					"output":73
				},
				{
					"input":33,
					"interpolation":"STEP",
					"output":74
				},
				{
					"input":33,
					"interpolation":"STEP",
					"output":75
				},
				{
					"input":33,
					"interpolation":"STEP",
					"output":76
				},
				{
					"input":33,
					"interpolation":"STEP",
					"output":77
				},
				{
					"input":33,
					"interpolation":"STEP",
					"output":78
				},
				{
					"input":33,
					"interpolation":"STEP",
					"output":79
				}
			]
		},
		{
			"channels":[
				{
					"sampler":0,
					"target":{
						"node":8,
						"path":"translation"
					}
				},
				{
					"sampler":1,
					"target":{
						"node":8,
						"path":"rotation"
					}
				},
				{
					"sampler":2,
					"target":{
						"node":8,
						"path":"scale"
					}
				},
				{
					"sampler":3,
					"target":{
						"node":2,
						"path":"translation"
					}
				},
				{
					"sampler":4,
					"target":{
						"node":2,
						"path":"rotation"
					}
				},
				{
					"sampler":5,
					"target":{
						"node":2,
						"path":"scale"
					}
				},
				{
					"sampler":6,
					"target":{
						"node":1,
						"path":"translation"
					}
				},
				{
					"sampler":7,
					"target":{
						"node":1,
						"path":"rotation"
					}
				},
				{
					"sampler":8,
					"target":{
						"node":1,
						"path":"scale"
					}
				},
				{
					"sampler":9,
					"target":{
						"node":0,
						"path":"translation"
					}
				},
				{
					"sampler":10,
					"target":{
						"node":0,
						"path":"rotation"
					}
				},
				{
					"sampler":11,
					"target":{
						"node":0,
						"path":"scale"
					}
				},
				{
					"sampler":12,
					"target":{
						"node":5,
						"path":"translation"
					}
				},
				{
					"sampler":13,
					"target":{
						"node":5,
						"path":"rotation"
					}
				},
				{
					"sampler":14,
					"target":{
						"node":5,
						"path":"scale"
					}
				},
				{
					"sampler":15,
					"target":{
						"node":4,
						"path":"translation"
					}
				},
				{
					"sampler":16,
					"target":{
						"node":4,
						"path":"rotation"
					}
				},
				{
					"sampler":17,
					"target":{
						"node":4,
						"path":"scale"
					}
				},
				{
					"sampler":18,
					"target":{
						"node":3,
						"path":"translation"
					}
				},
				{
					"sampler":19,
					"target":{
						"node":3,
						"path":"rotation"
					}
				},
				{
					"sampler":20,
					"target":{
						"node":3,
						"path":"scale"
					}
				},
				{
					"sampler":21,
					"target":{
						"node":7,
						"path":"translation"
					}
				},
				{
					"sampler":22,
					"target":{
						"node":7,
						"path":"rotation"
					}
				},
				{
					"sampler":23,
					"target":{
						"node":7,
						"path":"scale"
					}
				},
				{
					"sampler":24,
					"target":{
						"node":6,
						"path":"translation"
					}
				},
				{
					"sampler":25,
					"target":{
						"node":6,
						"path":"rotation"
					}
				},
				{
					"sampler":26,
					"target":{
						"node":6,
						"path":"scale"
					}
				},
				{
					"sampler":27,
					"target":{
						"node":11,
						"path":"translation"
					}
				},
				{
					"sampler":28,
					"target":{
						"node":11,
						"path":"rotation"
					}
				},
				{
					"sampler":29,
					"target":{
						"node":11,
						"path":"scale"
					}
				},
				{
					"sampler":30,
					"target":{
						"node":10,
						"path":"translation"
					}
				},
				{
					"sampler":31,
					"target":{
						"node":10,
						"path":"rotation"
					}
				},
				{
					"sampler":32,
					"target":{
						"node":10,
						"path":"scale"
					}
				},
				{
					"sampler":33,
					"target":{
						"node":9,
						"path":"translation"
					}
				},
				{
					"sampler":34,
					"target":{
						"node":9,
						"path":"rotation"
					}
				},
				{
					"sampler":35,
					"target":{
						"node":9,
						"path":"scale"
					}
				},
				{
					"sampler":36,
					"target":{
						"node":14,
						"path":"translation"
					}
				},
				{
					"sampler":37,
					"target":{
						"node":14,
						"path":"rotation"
					}
				},
				{
					"sampler":38,
					"target":{
						"node":14,
						"path":"scale"
					}
				},
				{
					"sampler":39,
					"target":{
						"node":13,
						"path":"translation"
					}
				},
				{
					"sampler":40,
					"target":{
						"node":13,
						"path":"rotation"
					}
				},
				{
					"sampler":41,
					"target":{
						"node":13,
						"path":"scale"
					}
				},
				{
					"sampler":42,
					"target":{
						"node":12,
						"path":"translation"
					}
				},
				{
					"sampler":43,
					"target":{
						"node":12,
						"path":"rotation"
					}
				},
				{
					"sampler":44,
					"target":{
						"node":12,
						"path":"scale"
					}
				}
			],
			"name":"Rel_pt1",
			"samplers":[
				{
					"input":80,
					"interpolation":"STEP",
					"output":81
				},
				{
					"input":80,
					"interpolation":"STEP",
					"output":82
				},
				{
					"input":80,
					"interpolation":"STEP",
					"output":83
				},
				{
					"input":80,
					"interpolation":"STEP",
					"output":84
				},
				{
					"input":80,
					"interpolation":"STEP",
					"output":85
				},
				{
					"input":80,
					"interpolation":"STEP",
					"output":86
				},
				{
					"input":80,
					"interpolation":"STEP",
					"output":87
				},
				{
					"input":88,
					"interpolation":"LINEAR",
					"output":89
				},
				{
					"input":80,
					"interpolation":"LINEAR",
					"output":90
				},
				{
					"input":80,
					"interpolation":"LINEAR",
					"output":91
				},
				{
					"input":88,
					"interpolation":"LINEAR",
					"output":92
				},
				{
					"input":80,
					"interpolation":"STEP",
					"output":93
				},
				{
					"input":80,
					"interpolation":"STEP",
					"output":94
				},
				{
					"input":80,
					"interpolation":"STEP",
					"output":95
				},
				{
					"input":80,
					"interpolation":"STEP",
					"output":96
				},
				{
					"input":80,
					"interpolation":"STEP",
					"output":97
				},
				{
					"input":88,
					"interpolation":"LINEAR",
					"output":98
				},
				{
					"input":80,
					"interpolation":"LINEAR",
					"output":99
				},
				{
					"input":80,
					"interpolation":"LINEAR",
					"output":100
				},
				{
					"input":88,
					"interpolation":"LINEAR",
					"output":101
				},
				{
					"input":80,
					"interpolation":"LINEAR",
					"output":102
				},
				{
					"input":80,
					"interpolation":"STEP",
					"output":103
				},
				{
					"input":80,
					"interpolation":"STEP",
					"output":104
				},
				{
					"input":80,
					"interpolation":"STEP",
					"output":105
				},
				{
					"input":80,
					"interpolation":"STEP",
					"output":106
				},
				{
					"input":80,
					"interpolation":"STEP",
					"output":107
				},
				{
					"input":80,
					"interpolation":"STEP",
					"output":108
				},
				{
					"input":80,
					"interpolation":"STEP",
					"output":109
				},
				{
					"input":80,
					"interpolation":"STEP",
					"output":110
				},
				{
					"input":80,
					"interpolation":"STEP",
					"output":111
				},
				{
					"input":80,
					"interpolation":"STEP",
					"output":112
				},
				{
					"input":80,
					"interpolation":"STEP",
					"output":113
				},
				{
					"input":80,
					"interpolation":"STEP",
					"output":114
				},
				{
					"input":80,
					"interpolation":"STEP",
					"output":115
				},
				{
					"input":80,
					"interpolation":"STEP",
					"output":116
				},
				{
					"input":80,
					"interpolation":"STEP",
					"output":117
				},
				{
					"input":80,
					"interpolation":"STEP",
					"output":118
				},
				{
					"input":80,
					"interpolation":"STEP",
					"output":119
				},
				{
					"input":80,
					"interpolation":"STEP",
					"output":120
				},
				{
					"input":80,
					"interpolation":"STEP",
					"output":121
				},
				{
					"input":80,
					"interpolation":"STEP",
					"output":122
				},
				{
					"input":80,
					"interpolation":"STEP",
					"output":123
				},
				{
					"input":80,
					"interpolation":"STEP",
					"output":124
				},
				{
					"input":80,
					"interpolation":"STEP",
					"output":125
				},
				{
					"input":80,
					"interpolation":"STEP",
					"output":126
				}
			]
		},
		{
			"channels":[
				{
					"sampler":0,
					"target":{
						"node":8,
						"path":"translation"
					}
				},
				{
					"sampler":1,
					"target":{
						"node":8,
						"path":"rotation"
					}
				},
				{
					"sampler":2,
					"target":{
						"node":8,
						"path":"scale"
					}
				},
				{
					"sampler":3,
					"target":{
						"node":2,
						"path":"translation"
					}
				},
				{
					"sampler":4,
					"target":{
						"node":2,
						"path":"rotation"
					}
				},
				{
					"sampler":5,
					"target":{
						"node":2,
						"path":"scale"
					}
				},
				{
					"sampler":6,
					"target":{
						"node":1,
						"path":"translation"
					}
				},
				{
					"sampler":7,
					"target":{
						"node":1,
						"path":"rotation"
					}
				},
				{
					"sampler":8,
					"target":{
						"node":1,
						"path":"scale"
					}
				},
				{
					"sampler":9,
					"target":{
						"node":0,
						"path":"translation"
					}
				},
				{
					"sampler":10,
					"target":{
						"node":0,
						"path":"rotation"
					}
				},
				{
					"sampler":11,
					"target":{
						"node":0,
						"path":"scale"
					}
				},
				{
					"sampler":12,
					"target":{
						"node":5,
						"path":"translation"
					}
				},
				{
					"sampler":13,
					"target":{
						"node":5,
						"path":"rotation"
					}
				},
				{
					"sampler":14,
					"target":{
						"node":5,
						"path":"scale"
					}
				},
				{
					"sampler":15,
					"target":{
						"node":4,
						"path":"translation"
					}
				},
				{
					"sampler":16,
					"target":{
						"node":4,
						"path":"rotation"
					}
				},
				{
					"sampler":17,
					"target":{
						"node":4,
						"path":"scale"
					}
				},
				{
					"sampler":18,
					"target":{
						"node":3,
						"path":"translation"
					}
				},
				{
					"sampler":19,
					"target":{
						"node":3,
						"path":"rotation"
					}
				},
				{
					"sampler":20,
					"target":{
						"node":3,
						"path":"scale"
					}
				},
				{
					"sampler":21,
					"target":{
						"node":7,
						"path":"translation"
					}
				},
				{
					"sampler":22,
					"target":{
						"node":7,
						"path":"rotation"
					}
				},
				{
					"sampler":23,
					"target":{
						"node":7,
						"path":"scale"
					}
				},
				{
					"sampler":24,
					"target":{
						"node":6,
						"path":"translation"
					}
				},
				{
					"sampler":25,
					"target":{
						"node":6,
						"path":"rotation"
					}
				},
				{
					"sampler":26,
					"target":{
						"node":6,
						"path":"scale"
					}
				},
				{
					"sampler":27,
					"target":{
						"node":11,
						"path":"translation"
					}
				},
				{
					"sampler":28,
					"target":{
						"node":11,
						"path":"rotation"
					}
				},
				{
					"sampler":29,
					"target":{
						"node":11,
						"path":"scale"
					}
				},
				{
					"sampler":30,
					"target":{
						"node":10,
						"path":"translation"
					}
				},
				{
					"sampler":31,
					"target":{
						"node":10,
						"path":"rotation"
					}
				},
				{
					"sampler":32,
					"target":{
						"node":10,
						"path":"scale"
					}
				},
				{
					"sampler":33,
					"target":{
						"node":9,
						"path":"translation"
					}
				},
				{
					"sampler":34,
					"target":{
						"node":9,
						"path":"rotation"
					}
				},
				{
					"sampler":35,
					"target":{
						"node":9,
						"path":"scale"
					}
				},
				{
					"sampler":36,
					"target":{
						"node":14,
						"path":"translation"
					}
				},
				{
					"sampler":37,
					"target":{
						"node":14,
						"path":"rotation"
					}
				},
				{
					"sampler":38,
					"target":{
						"node":14,
						"path":"scale"
					}
				},
				{
					"sampler":39,
					"target":{
						"node":13,
						"path":"translation"
					}
				},
				{
					"sampler":40,
					"target":{
						"node":13,
						"path":"rotation"
					}
				},
				{
					"sampler":41,
					"target":{
						"node":13,
						"path":"scale"
					}
				},
				{
					"sampler":42,
					"target":{
						"node":12,
						"path":"translation"
					}
				},
				{
					"sampler":43,
					"target":{
						"node":12,
						"path":"rotation"
					}
				},
				{
					"sampler":44,
					"target":{
						"node":12,
						"path":"scale"
					}
				}
			],
			"name":"walk",
			"samplers":[
				{
					"input":127,
					"interpolation":"STEP",
					"output":128
				},
				{
					"input":127,
					"interpolation":"STEP",
					"output":129
				},
				{
					"input":127,
					"interpolation":"STEP",
					"output":130
				},
				{
					"input":127,
					"interpolation":"STEP",
					"output":131
				},
				{
					"input":127,
					"interpolation":"STEP",
					"output":132
				},
				{
					"input":127,
					"interpolation":"STEP",
					"output":133
				},
				{
					"input":127,
					"interpolation":"STEP",
					"output":134
				},
				{
					"input":135,
					"interpolation":"LINEAR",
					"output":136
				},
				{
					"input":127,
					"interpolation":"STEP",
					"output":137
				},
				{
					"input":127,
					"interpolation":"STEP",
					"output":138
				},
				{
					"input":127,
					"interpolation":"STEP",
					"output":139
				},
				{
					"input":127,
					"interpolation":"STEP",
					"output":140
				},
				{
					"input":127,
					"interpolation":"STEP",
					"output":141
				},
				{
					"input":127,
					"interpolation":"STEP",
					"output":142
				},
				{
					"input":127,
					"interpolation":"STEP",
					"output":143
				},
				{
					"input":127,
					"interpolation":"STEP",
					"output":144
				},
				{
					"input":127,
					"interpolation":"STEP",
					"output":145
				},
				{
					"input":127,
					"interpolation":"STEP",
					"output":146
				},
				{
					"input":127,
					"interpolation":"STEP",
					"output":147
				},
				{
					"input":135,
					"interpolation":"LINEAR",
					"output":148
				},
				{
					"input":127,
					"interpolation":"STEP",
					"output":149
				},
				{
					"input":127,
					"interpolation":"STEP",
					"output":150
				},
				{
					"input":127,
					"interpolation":"STEP",
					"output":151
				},
				{
					"input":127,
					"interpolation":"STEP",
					"output":152
				},
				{
					"input":127,
					"interpolation":"STEP",
					"output":153
				},
				{
					"input":127,
					"interpolation":"STEP",
					"output":154
				},
				{
					"input":127,
					"interpolation":"STEP",
					"output":155
				},
				{
					"input":127,
					"interpolation":"STEP",
					"output":156
				},
				{
					"input":127,
					"interpolation":"STEP",
					"output":157
				},
				{
					"input":127,
					"interpolation":"STEP",
					"output":158
				},
				{
					"input":127,
					"interpolation":"STEP",
					"output":159
				},
				{
					"input":135,
					"interpolation":"LINEAR",
					"output":160
				},
				{
					"input":127,
					"interpolation":"STEP",
					"output":161
				},
				{
					"input":127,
					"interpolation":"STEP",
					"output":162
				},
				{
					"input":135,
					"interpolation":"LINEAR",
					"output":163
				},
				{
					"input":127,
					"interpolation":"STEP",
					"output":164
				},
				{
					"input":127,
					"interpolation":"STEP",
					"output":165
				},
				{
					"input":127,
					"interpolation":"STEP",
					"output":166
				},
				{
					"input":127,
					"interpolation":"STEP",
					"output":167
				},
				{
					"input":127,
					"interpolation":"STEP",
					"output":168
				},
				{
					"input":135,
					"interpolation":"LINEAR",
					"output":169
				},
				{
					"input":127,
					"interpolation":"STEP",
					"output":170
				},
				{
					"input":127,
					"interpolation":"STEP",
					"output":171
				},
				{
					"input":135,
					"interpolation":"LINEAR",
					"output":172
				},
				{
					"input":127,
					"interpolation":"STEP",
					"output":173
				}
			]
		}
	],
	"materials":[
		{
			"doubleSided":true,
			"name":"Material.001",
			"pbrMetallicRoughness":{
				"baseColorTexture":{
					"index":0
				},
				"metallicFactor":0
			}
		},
		{
			"name":"Material.002"
		},
		{
			"doubleSided":true,
			"name":"Material",
			"pbrMetallicRoughness":{
				"baseColorTexture":{
					"index":1
				},
				"metallicFactor":0
			}
		},
		{
			"name":"Material.003"
		}
	],
	"meshes":[
		{
			"name":"Cubo.001",
			"primitives":[
				{
					"attributes":{
						"POSITION":0,
						"NORMAL":1,
						"TEXCOORD_0":2,
						"JOINTS_0":3,
						"JOINTS_1":4,
						"WEIGHTS_0":5,
						"WEIGHTS_1":6
					},
					"indices":7,
					"material":0
				},
				{
					"attributes":{
						"POSITION":8,
						"NORMAL":9,
						"TEXCOORD_0":10,
						"JOINTS_0":11,
						"JOINTS_1":12,
						"WEIGHTS_0":13,
						"WEIGHTS_1":14
					},
					"indices":15,
					"material":1
				}
			]
		},
		{
			"name":"Cubo.002",
			"primitives":[
				{
					"attributes":{
						"POSITION":17,
						"NORMAL":18,
						"TEXCOORD_0":19,
						"TEXCOORD_1":20,
						"TANGENT":21,
						"JOINTS_0":22,
						"WEIGHTS_0":23
					},
					"indices":24,
					"material":2
				},
				{
					"attributes":{
						"POSITION":25,
						"NORMAL":26,
						"TEXCOORD_0":27,
						"TEXCOORD_1":28,
						"TANGENT":29,
						"JOINTS_0":30,
						"WEIGHTS_0":31
					},
					"indices":32,
					"material":3
				}
			]
		}
	],
	"textures":[
		{
			"sampler":0,
			"source":0
		},
		{
			"sampler":0,
			"source":1
		}
	],
	"images":[
		{
			"mimeType":"image/png",
			"name":"pedro_gallegos.png",
			"uri":"../../texturas/pedro_gallegos.png"
		},
		{
			"mimeType":"image/png",
			"name":"cabeza.png",
			"uri":"../../texturas/cabeza.png"
		}
	],
	"skins":[
		{
			"inverseBindMatrices":16,
			"joints":[
				8,
				2,
				1,
				0,
				5,
				4,
				3,
				7,
				6,
				11,
				10,
				9,
				14,
				13,
				12,
				15
			],
			"name":"Esqueleto"
		}
	],
	"accessors":[
		{
			"bufferView":0,
			"componentType":5126,
			"count":750,
			"max":[
				2.7211875915527344,
				2.0422110557556152,
				0.4597240388393402
			],
			"min":[
				-2.721189260482788,
				-2.3132381439208984,
				-0.5069150328636169
			],
			"type":"VEC3"
		},
		{
			"bufferView":1,
			"componentType":5126,
			"count":750,
			"type":"VEC3"
		},
		{
			"bufferView":2,
			"componentType":5126,
			"count":750,
			"type":"VEC2"
		},
		{
			"bufferView":3,
			"componentType":5121,
			"count":750,
			"type":"VEC4"
		},
		{
			"bufferView":4,
			"componentType":5121,
			"count":750,
			"type":"VEC4"
		},
		{
			"bufferView":5,
			"componentType":5126,
			"count":750,
			"type":"VEC4"
		},
		{
			"bufferView":6,
			"componentType":5126,
			"count":750,
			"type":"VEC4"
		},
		{
			"bufferView":7,
			"componentType":5123,
			"count":1512,
			"type":"SCALAR"
		},
		{
			"bufferView":8,
			"componentType":5126,
			"count":750,
			"max":[
				2.734999656677246,
				2.0556323528289795,
				0.4780072271823883
			],
			"min":[
				-2.734999656677246,
				-2.324862241744995,
				-0.5219928622245789
			],
			"type":"VEC3"
		},
		{
			"bufferView":9,
			"componentType":5126,
			"count":750,
			"type":"VEC3"
		},
		{
			"bufferView":10,
			"componentType":5126,
			"count":750,
			"type":"VEC2"
		},
		{
			"bufferView":11,
			"componentType":5121,
			"count":750,
			"type":"VEC4"
		},
		{
			"bufferView":12,
			"componentType":5121,
			"count":750,
			"type":"VEC4"
		},
		{
			"bufferView":13,
			"componentType":5126,
			"count":750,
			"type":"VEC4"
		},
		{
			"bufferView":14,
			"componentType":5126,
			"count":750,
			"type":"VEC4"
		},
		{
			"bufferView":15,
			"componentType":5123,
			"count":1512,
			"type":"SCALAR"
		},
		{
			"bufferView":16,
			"componentType":5126,
			"count":16,
			"type":"MAT4"
		},
		{
			"bufferView":17,
			"componentType":5126,
			"count":160,
			"max":[
				0.29266616702079773,
				2.72202467918396,
				0.34084537625312805
			],
			"min":[
				-0.29266616702079773,
				1.8429402112960815,
				-0.3934943675994873
			],
			"type":"VEC3"
		},
		{
			"bufferView":18,
			"componentType":5126,
			"count":160,
			"type":"VEC3"
		},
		{
			"bufferView":19,
			"componentType":5126,
			"count":160,
			"type":"VEC2"
		},
		{
			"bufferView":20,
			"componentType":5126,
			"count":160,
			"type":"VEC2"
		},
		{
			"bufferView":21,
			"componentType":5126,
			"count":160,
			"type":"VEC4"
		},
		{
			"bufferView":22,
			"componentType":5121,
			"count":160,
			"type":"VEC4"
		},
		{
			"bufferView":23,
			"componentType":5126,
			"count":160,
			"type":"VEC4"
		},
		{
			"bufferView":24,
			"componentType":5123,
			"count":240,
			"type":"SCALAR"
		},
		{
			"bufferView":25,
			"componentType":5126,
			"count":152,
			"max":[
				0.2970874011516571,
				2.7289199829101562,
				0.34809738397598267
			],
			"min":[
				-0.2970874011516571,
				1.8371951580047607,
				-0.39963746070861816
			],
			"type":"VEC3"
		},
		{
			"bufferView":26,
			"componentType":5126,
			"count":152,
			"type":"VEC3"
		},
		{
			"bufferView":27,
			"componentType":5126,
			"count":152,
			"type":"VEC2"
		},
		{
			"bufferView":28,
			"componentType":5126,
			"count":152,
			"type":"VEC2"
		},
		{
			"bufferView":29,
			"componentType":5126,
			"count":152,
			"type":"VEC4"
		},
		{
			"bufferView":30,
			"componentType":5121,
			"count":152,
			"type":"VEC4"
		},
		{
			"bufferView":31,
			"componentType":5126,
			"count":152,
			"type":"VEC4"
		},
		{
			"bufferView":32,
			"componentType":5123,
			"count":240,
			"type":"SCALAR"
		},
		{
			"bufferView":33,
			"componentType":5126,
			"count":2,
			"max":[
				3.3333333333333335
			],
			"min":[
				0
			],
			"type":"SCALAR"
		},
		{
			"bufferView":34,
			"componentType":5126,
			"count":2,
			"type":"VEC3"
		},
		{
			"bufferView":35,
			"componentType":5126,
			"count":2,
			"type":"VEC4"
		},
		{
			"bufferView":36,
			"componentType":5126,
			"count":2,
			"type":"VEC3"
		},
		{
			"bufferView":37,
			"componentType":5126,
			"count":2,
			"type":"VEC3"
		},
		{
			"bufferView":38,
			"componentType":5126,
			"count":2,
			"type":"VEC4"
		},
		{
			"bufferView":39,
			"componentType":5126,
			"count":2,
			"type":"VEC3"
		},
		{
			"bufferView":40,
			"componentType":5126,
			"count":2,
			"type":"VEC3"
		},
		{
			"bufferView":41,
			"componentType":5126,
			"count":81,
			"max":[
				3.3333333333333335
			],
			"min":[
				0
			],
			"type":"SCALAR"
		},
		{
			"bufferView":42,
			"componentType":5126,
			"count":81,
			"type":"VEC4"
		},
		{
			"bufferView":43,
			"componentType":5126,
			"count":2,
			"type":"VEC3"
		},
		{
			"bufferView":44,
			"componentType":5126,
			"count":2,
			"type":"VEC3"
		},
		{
			"bufferView":45,
			"componentType":5126,
			"count":2,
			"type":"VEC4"
		},
		{
			"bufferView":46,
			"componentType":5126,
			"count":2,
			"type":"VEC3"
		},
		{
			"bufferView":47,
			"componentType":5126,
			"count":2,
			"type":"VEC3"
		},
		{
			"bufferView":48,
			"componentType":5126,
			"count":2,
			"type":"VEC4"
		},
		{
			"bufferView":49,
			"componentType":5126,
			"count":2,
			"type":"VEC3"
		},
		{
			"bufferView":50,
			"componentType":5126,
			"count":2,
			"type":"VEC3"
		},
		{
			"bufferView":51,
			"componentType":5126,
			"count":81,
			"type":"VEC4"
		},
		{
			"bufferView":52,
			"componentType":5126,
			"count":2,
			"type":"VEC3"
		},
		{
			"bufferView":53,
			"componentType":5126,
			"count":2,
			"type":"VEC3"
		},
		{
			"bufferView":54,
			"componentType":5126,
			"count":2,
			"type":"VEC4"
		},
		{
			"bufferView":55,
			"componentType":5126,
			"count":2,
			"type":"VEC3"
		},
		{
			"bufferView":56,
			"componentType":5126,
			"count":2,
			"type":"VEC3"
		},
		{
			"bufferView":57,
			"componentType":5126,
			"count":2,
			"type":"VEC4"
		},
		{
			"bufferView":58,
			"componentType":5126,
			"count":2,
			"type":"VEC3"
		},
		{
			"bufferView":59,
			"componentType":5126,
			"count":2,
			"type":"VEC3"
		},
		{
			"bufferView":60,
			"componentType":5126,
			"count":81,
			"type":"VEC4"
		},
		{
			"bufferView":61,
			"componentType":5126,
			"count":2,
			"type":"VEC3"
		},
		{
			"bufferView":62,
			"componentType":5126,
			"count":2,
			"type":"VEC3"
		},
		{
			"bufferView":63,
			"componentType":5126,
			"count":2,
			"type":"VEC4"
		},
		{
			"bufferView":64,
			"componentType":5126,
			"count":2,
			"type":"VEC3"
		},
		{
			"bufferView":65,
			"componentType":5126,
			"count":2,
			"type":"VEC3"
		},
		{
			"bufferView":66,
			"componentType":5126,
			"count":2,
			"type":"VEC4"
		},
		{
			"bufferView":67,
			"componentType":5126,
			"count":2,
			"type":"VEC3"
		},
		{
			"bufferView":68,
			"componentType":5126,
			"count":2,
			"type":"VEC3"
		},
		{
			"bufferView":69,
			"componentType":5126,
			"count":2,
			"type":"VEC4"
		},
		{
			"bufferView":70,
			"componentType":5126,
			"count":2,
			"type":"VEC3"
		},
		{
			"bufferView":71,
			"componentType":5126,
			"count":2,
			"type":"VEC3"
		},
		{
			"bufferView":72,
			"componentType":5126,
			"count":2,
			"type":"VEC4"
		},
		{
			"bufferView":73,
			"componentType":5126,
			"count":2,
			"type":"VEC3"
		},
		{
			"bufferView":74,
			"componentType":5126,
			"count":2,
			"type":"VEC3"
		},
		{
			"bufferView":75,
			"componentType":5126,
			"count":2,
			"type":"VEC4"
		},
		{
			"bufferView":76,
			"componentType":5126,
			"count":2,
			"type":"VEC3"
		},
		{
			"bufferView":77,
			"componentType":5126,
			"count":2,
			"type":"VEC3"
		},
		{
			"bufferView":78,
			"componentType":5126,
			"count":2,
			"type":"VEC4"
		},
		{
			"bufferView":79,
			"componentType":5126,
			"count":2,
			"type":"VEC3"
		},
		{
			"bufferView":80,
			"componentType":5126,
			"count":2,
			"max":[
				0.375
			],
			"min":[
				0
			],
			"type":"SCALAR"
		},
		{
			"bufferView":81,
			"componentType":5126,
			"count":2,
			"type":"VEC3"
		},
		{
			"bufferView":82,
			"componentType":5126,
			"count":2,
			"type":"VEC4"
		},
		{
			"bufferView":83,
			"componentType":5126,
			"count":2,
			"type":"VEC3"
		},
		{
			"bufferView":84,
			"componentType":5126,
			"count":2,
			"type":"VEC3"
		},
		{
			"bufferView":85,
			"componentType":5126,
			"count":2,
			"type":"VEC4"
		},
		{
			"bufferView":86,
			"componentType":5126,
			"count":2,
			"type":"VEC3"
		},
		{
			"bufferView":87,
			"componentType":5126,
			"count":2,
			"type":"VEC3"
		},
		{
			"bufferView":88,
			"componentType":5126,
			"count":10,
			"max":[
				0.375
			],
			"min":[
				0
			],
			"type":"SCALAR"
		},
		{
			"bufferView":89,
			"componentType":5126,
			"count":10,
			"type":"VEC4"
		},
		{
			"bufferView":90,
			"componentType":5126,
			"count":2,
			"type":"VEC3"
		},
		{
			"bufferView":91,
			"componentType":5126,
			"count":2,
			"type":"VEC3"
		},
		{
			"bufferView":92,
			"componentType":5126,
			"count":10,
			"type":"VEC4"
		},
		{
			"bufferView":93,
			"componentType":5126,
			"count":2,
			"type":"VEC3"
		},
		{
			"bufferView":94,
			"componentType":5126,
			"count":2,
			"type":"VEC3"
		},
		{
			"bufferView":95,
			"componentType":5126,
			"count":2,
			"type":"VEC4"
		},
		{
			"bufferView":96,
			"componentType":5126,
			"count":2,
			"type":"VEC3"
		},
		{
			"bufferView":97,
			"componentType":5126,
			"count":2,
			"type":"VEC3"
		},
		{
			"bufferView":98,
			"componentType":5126,
			"count":10,
			"type":"VEC4"
		},
		{
			"bufferView":99,
			"componentType":5126,
			"count":2,
			"type":"VEC3"
		},
		{
			"bufferView":100,
			"componentType":5126,
			"count":2,
			"type":"VEC3"
		},
		{
			"bufferView":101,
			"componentType":5126,
			"count":10,
			"type":"VEC4"
		},
		{
			"bufferView":102,
			"componentType":5126,
			"count":2,
			"type":"VEC3"
		},
		{
			"bufferView":103,
			"componentType":5126,
			"count":2,
			"type":"VEC3"
		},
		{
			"bufferView":104,
			"componentType":5126,
			"count":2,
			"type":"VEC4"
		},
		{
			"bufferView":105,
			"componentType":5126,
			"count":2,
			"type":"VEC3"
		},
		{
			"bufferView":106,
			"componentType":5126,
			"count":2,
			"type":"VEC3"
		},
		{
			"bufferView":107,
			"componentType":5126,
			"count":2,
			"type":"VEC4"
		},
		{
			"bufferView":108,
			"componentType":5126,
			"count":2,
			"type":"VEC3"
		},
		{
			"bufferView":109,
			"componentType":5126,
			"count":2,
			"type":"VEC3"
		},
		{
			"bufferView":110,
			"componentType":5126,
			"count":2,
			"type":"VEC4"
		},
		{
			"bufferView":111,
			"componentType":5126,
			"count":2,
			"type":"VEC3"
		},
		{
			"bufferView":112,
			"componentType":5126,
			"count":2,
			"type":"VEC3"
		},
		{
			"bufferView":113,
			"componentType":5126,
			"count":2,
			"type":"VEC4"
		},
		{
			"bufferView":114,
			"componentType":5126,
			"count":2,
			"type":"VEC3"
		},
		{
			"bufferView":115,
			"componentType":5126,
			"count":2,
			"type":"VEC3"
		},
		{
			"bufferView":116,
			"componentType":5126,
			"count":2,
			"type":"VEC4"
		},
		{
			"bufferView":117,
			"componentType":5126,
			"count":2,
			"type":"VEC3"
		},
		{
			"bufferView":118,
			"componentType":5126,
			"count":2,
			"type":"VEC3"
		},
		{
			"bufferView":119,
			"componentType":5126,
			"count":2,
			"type":"VEC4"
		},
		{
			"bufferView":120,
			"componentType":5126,
			"count":2,
			"type":"VEC3"
		},
		{
			"bufferView":121,
			"componentType":5126,
			"count":2,
			"type":"VEC3"
		},
		{
			"bufferView":122,
			"componentType":5126,
			"count":2,
			"type":"VEC4"
		},
		{
			"bufferView":123,
			"componentType":5126,
			"count":2,
			"type":"VEC3"
		},
		{
			"bufferView":124,
			"componentType":5126,
			"count":2,
			"type":"VEC3"
		},
		{
			"bufferView":125,
			"componentType":5126,
			"count":2,
			"type":"VEC4"
		},
		{
			"bufferView":126,
			"componentType":5126,
			"count":2,
			"type":"VEC3"
		},
		{
			"bufferView":127,
			"componentType":5126,
			"count":2,
			"max":[
				1.6666666666666667
			],
			"min":[
				0
			],
			"type":"SCALAR"
		},
		{
			"bufferView":128,
			"componentType":5126,
			"count":2,
			"type":"VEC3"
		},
		{
			"bufferView":129,
			"componentType":5126,
			"count":2,
			"type":"VEC4"
		},
		{
			"bufferView":130,
			"componentType":5126,
			"count":2,
			"type":"VEC3"
		},
		{
			"bufferView":131,
			"componentType":5126,
			"count":2,
			"type":"VEC3"
		},
		{
			"bufferView":132,
			"componentType":5126,
			"count":2,
			"type":"VEC4"
		},
		{
			"bufferView":133,
			"componentType":5126,
			"count":2,
			"type":"VEC3"
		},
		{
			"bufferView":134,
			"componentType":5126,
			"count":2,
			"type":"VEC3"
		},
		{
			"bufferView":135,
			"componentType":5126,
			"count":41,
			"max":[
				1.6666666666666667
			],
			"min":[
				0
			],
			"type":"SCALAR"
		},
		{
			"bufferView":136,
			"componentType":5126,
			"count":41,
			"type":"VEC4"
		},
		{
			"bufferView":137,
			"componentType":5126,
			"count":2,
			"type":"VEC3"
		},
		{
			"bufferView":138,
			"componentType":5126,
			"count":2,
			"type":"VEC3"
		},
		{
			"bufferView":139,
			"componentType":5126,
			"count":2,
			"type":"VEC4"
		},
		{
			"bufferView":140,
			"componentType":5126,
			"count":2,
			"type":"VEC3"
		},
		{
			"bufferView":141,
			"componentType":5126,
			"count":2,
			"type":"VEC3"
		},
		{
			"bufferView":142,
			"componentType":5126,
			"count":2,
			"type":"VEC4"
		},
		{
			"bufferView":143,
			"componentType":5126,
			"count":2,
			"type":"VEC3"
		},
		{
			"bufferView":144,
			"componentType":5126,
			"count":2,
			"type":"VEC3"
		},
		{
			"bufferView":145,
			"componentType":5126,
			"count":2,
			"type":"VEC4"
		},
		{
			"bufferView":146,
			"componentType":5126,
			"count":2,
			"type":"VEC3"
		},
		{
			"bufferView":147,
			"componentType":5126,
			"count":2,
			"type":"VEC3"
		},
		{
			"bufferView":148,
			"componentType":5126,
			"count":41,
			"type":"VEC4"
		},
		{
			"bufferView":149,
			"componentType":5126,
			"count":2,
			"type":"VEC3"
		},
		{
			"bufferView":150,
			"componentType":5126,
			"count":2,
			"type":"VEC3"
		},
		{
			"bufferView":151,
			"componentType":5126,
			"count":2,
			"type":"VEC4"
		},
		{
			"bufferView":152,
			"componentType":5126,
			"count":2,
			"type":"VEC3"
		},
		{
			"bufferView":153,
			"componentType":5126,
			"count":2,
			"type":"VEC3"
		},
		{
			"bufferView":154,
			"componentType":5126,
			"count":2,
			"type":"VEC4"
		},
		{
			"bufferView":155,
			"componentType":5126,
			"count":2,
			"type":"VEC3"
		},
		{
			"bufferView":156,
			"componentType":5126,
			"count":2,
			"type":"VEC3"
		},
		{
			"bufferView":157,
			"componentType":5126,
			"count":2,
			"type":"VEC4"
		},
		{
			"bufferView":158,
			"componentType":5126,
			"count":2,
			"type":"VEC3"
		},
		{
			"bufferView":159,
			"componentType":5126,
			"count":2,
			"type":"VEC3"
		},
		{
			"bufferView":160,
			"componentType":5126,
			"count":41,
			"type":"VEC4"
		},
		{
			"bufferView":161,
			"componentType":5126,
			"count":2,
			"type":"VEC3"
		},
		{
			"bufferView":162,
			"componentType":5126,
			"count":2,
			"type":"VEC3"
		},
		{
			"bufferView":163,
			"componentType":5126,
			"count":41,
			"type":"VEC4"
		},
		{
			"bufferView":164,
			"componentType":5126,
			"count":2,
			"type":"VEC3"
		},
		{
			"bufferView":165,
			"componentType":5126,
			"count":2,
			"type":"VEC3"
		},
		{
			"bufferView":166,
			"componentType":5126,
			"count":2,
			"type":"VEC4"
		},
		{
			"bufferView":167,
			"componentType":5126,
			"count":2,
			"type":"VEC3"
		},
		{
			"bufferView":168,
			"componentType":5126,
			"count":2,
			"type":"VEC3"
		},
		{
			"bufferView":169,
			"componentType":5126,
			"count":41,
			"type":"VEC4"
		},
		{
			"bufferView":170,
			"componentType":5126,
			"count":2,
			"type":"VEC3"
		},
		{
			"bufferView":171,
			"componentType":5126,
			"count":2,
			"type":"VEC3"
		},
		{
			"bufferView":172,
			"componentType":5126,
			"count":41,
			"type":"VEC4"
		},
		{
			"bufferView":173,
			"componentType":5126,
			"count":2,
			"type":"VEC3"
		}
	],
	"bufferViews":[
		{
			"buffer":0,
			"byteLength":9000,
			"byteOffset":0,
			"target":34962
		},
		{
			"buffer":0,
			"byteLength":9000,
			"byteOffset":9000,
			"target":34962
		},
		{
			"buffer":0,
			"byteLength":6000,
			"byteOffset":18000,
			"target":34962
		},
		{
			"buffer":0,
			"byteLength":3000,
			"byteOffset":24000,
			"target":34962
		},
		{
			"buffer":0,
			"byteLength":3000,
			"byteOffset":27000,
			"target":34962
		},
		{
			"buffer":0,
			"byteLength":12000,
			"byteOffset":30000,
			"target":34962
		},
		{
			"buffer":0,
			"byteLength":12000,
			"byteOffset":42000,
			"target":34962
		},
		{
			"buffer":0,
			"byteLength":3024,
			"byteOffset":54000,
			"target":34963
		},
		{
			"buffer":0,
			"byteLength":9000,
			"byteOffset":57024,
			"target":34962
		},
		{
			"buffer":0,
			"byteLength":9000,
			"byteOffset":66024,
			"target":34962
		},
		{
			"buffer":0,
			"byteLength":6000,
			"byteOffset":75024,
			"target":34962
		},
		{
			"buffer":0,
			"byteLength":3000,
			"byteOffset":81024,
			"target":34962
		},
		{
			"buffer":0,
			"byteLength":3000,
			"byteOffset":84024,
			"target":34962
		},
		{
			"buffer":0,
			"byteLength":12000,
			"byteOffset":87024,
			"target":34962
		},
		{
			"buffer":0,
			"byteLength":12000,
			"byteOffset":99024,
			"target":34962
		},
		{
			"buffer":0,
			"byteLength":3024,
			"byteOffset":111024,
			"target":34963
		},
		{
			"buffer":0,
			"byteLength":1024,
			"byteOffset":114048
		},
		{
			"buffer":0,
			"byteLength":1920,
			"byteOffset":115072,
			"target":34962
		},
		{
			"buffer":0,
			"byteLength":1920,
			"byteOffset":116992,
			"target":34962
		},
		{
			"buffer":0,
			"byteLength":1280,
			"byteOffset":118912,
			"target":34962
		},
		{
			"buffer":0,
			"byteLength":1280,
			"byteOffset":120192,
			"target":34962
		},
		{
			"buffer":0,
			"byteLength":2560,
			"byteOffset":121472,
			"target":34962
		},
		{
			"buffer":0,
			"byteLength":640,
			"byteOffset":124032,
			"target":34962
		},
		{
			"buffer":0,
			"byteLength":2560,
			"byteOffset":124672,
			"target":34962
		},
		{
			"buffer":0,
			"byteLength":480,
			"byteOffset":127232,
			"target":34963
		},
		{
			"buffer":0,
			"byteLength":1824,
			"byteOffset":127712,
			"target":34962
		},
		{
			"buffer":0,
			"byteLength":1824,
			"byteOffset":129536,
			"target":34962
		},
		{
			"buffer":0,
			"byteLength":1216,
			"byteOffset":131360,
			"target":34962
		},
		{
			"buffer":0,
			"byteLength":1216,
			"byteOffset":132576,
			"target":34962
		},
		{
			"buffer":0,
			"byteLength":2432,
			"byteOffset":133792,
			"target":34962
		},
		{
			"buffer":0,
			"byteLength":608,
			"byteOffset":136224,
			"target":34962
		},
		{
			"buffer":0,
			"byteLength":2432,
			"byteOffset":136832,
			"target":34962
		},
		{
			"buffer":0,
			"byteLength":480,
			"byteOffset":139264,
			"target":34963
		},
		{
			"buffer":0,
			"byteLength":8,
			"byteOffset":139744
		},
		{
			"buffer":0,
			"byteLength":24,
			"byteOffset":139752
		},
		{
			"buffer":0,
			"byteLength":32,
			"byteOffset":139776
		},
		{
			"buffer":0,
			"byteLength":24,
			"byteOffset":139808
		},
		{
			"buffer":0,
			"byteLength":24,
			"byteOffset":139832
		},
		{
			"buffer":0,
			"byteLength":32,
			"byteOffset":139856
		},
		{
			"buffer":0,
			"byteLength":24,
			"byteOffset":139888
		},
		{
			"buffer":0,
			"byteLength":24,
			"byteOffset":139912
		},
		{
			"buffer":0,
			"byteLength":324,
			"byteOffset":139936
		},
		{
			"buffer":0,
			"byteLength":1296,
			"byteOffset":140260
		},
		{
			"buffer":0,
			"byteLength":24,
			"byteOffset":141556
		},
		{
			"buffer":0,
			"byteLength":24,
			"byteOffset":141580
		},
		{
			"buffer":0,
			"byteLength":32,
			"byteOffset":141604
		},
		{
			"buffer":0,
			"byteLength":24,
			"byteOffset":141636
		},
		{
			"buffer":0,
			"byteLength":24,
			"byteOffset":141660
		},
		{
			"buffer":0,
			"byteLength":32,
			"byteOffset":141684
		},
		{
			"buffer":0,
			"byteLength":24,
			"byteOffset":141716
		},
		{
			"buffer":0,
			"byteLength":24,
			"byteOffset":141740
		},
		{
			"buffer":0,
			"byteLength":1296,
			"byteOffset":141764
		},
		{
			"buffer":0,
			"byteLength":24,
			"byteOffset":143060
		},
		{
			"buffer":0,
			"byteLength":24,
			"byteOffset":143084
		},
		{
			"buffer":0,
			"byteLength":32,
			"byteOffset":143108
		},
		{
			"buffer":0,
			"byteLength":24,
			"byteOffset":143140
		},
		{
			"buffer":0,
			"byteLength":24,
			"byteOffset":143164
		},
		{
			"buffer":0,
			"byteLength":32,
			"byteOffset":143188
		},
		{
			"buffer":0,
			"byteLength":24,
			"byteOffset":143220
		},
		{
			"buffer":0,
			"byteLength":24,
			"byteOffset":143244
		},
		{
			"buffer":0,
			"byteLength":1296,
			"byteOffset":143268
		},
		{
			"buffer":0,
			"byteLength":24,
			"byteOffset":144564
		},
		{
			"buffer":0,
			"byteLength":24,
			"byteOffset":144588
		},
		{
			"buffer":0,
			"byteLength":32,
			"byteOffset":144612
		},
		{
			"buffer":0,
			"byteLength":24,
			"byteOffset":144644
		},
		{
			"buffer":0,
			"byteLength":24,
			"byteOffset":144668
		},
		{
			"buffer":0,
			"byteLength":32,
			"byteOffset":144692
		},
		{
			"buffer":0,
			"byteLength":24,
			"byteOffset":144724
		},
		{
			"buffer":0,
			"byteLength":24,
			"byteOffset":144748
		},
		{
			"buffer":0,
			"byteLength":32,
			"byteOffset":144772
		},
		{
			"buffer":0,
			"byteLength":24,
			"byteOffset":144804
		},
		{
			"buffer":0,
			"byteLength":24,
			"byteOffset":144828
		},
		{
			"buffer":0,
			"byteLength":32,
			"byteOffset":144852
		},
		{
			"buffer":0,
			"byteLength":24,
			"byteOffset":144884
		},
		{
			"buffer":0,
			"byteLength":24,
			"byteOffset":144908
		},
		{
			"buffer":0,
			"byteLength":32,
			"byteOffset":144932
		},
		{
			"buffer":0,
			"byteLength":24,
			"byteOffset":144964
		},
		{
			"buffer":0,
			"byteLength":24,
			"byteOffset":144988
		},
		{
			"buffer":0,
			"byteLength":32,
			"byteOffset":145012
		},
		{
			"buffer":0,
			"byteLength":24,
			"byteOffset":145044
		},
		{
			"buffer":0,
			"byteLength":8,
			"byteOffset":145068
		},
		{
			"buffer":0,
			"byteLength":24,
			"byteOffset":145076
		},
		{
			"buffer":0,
			"byteLength":32,
			"byteOffset":145100
		},
		{
			"buffer":0,
			"byteLength":24,
			"byteOffset":145132
		},
		{
			"buffer":0,
			"byteLength":24,
			"byteOffset":145156
		},
		{
			"buffer":0,
			"byteLength":32,
			"byteOffset":145180
		},
		{
			"buffer":0,
			"byteLength":24,
			"byteOffset":145212
		},
		{
			"buffer":0,
			"byteLength":24,
			"byteOffset":145236
		},
		{
			"buffer":0,
			"byteLength":40,
			"byteOffset":145260
		},
		{
			"buffer":0,
			"byteLength":160,
			"byteOffset":145300
		},
		{
			"buffer":0,
			"byteLength":24,
			"byteOffset":145460
		},
		{
			"buffer":0,
			"byteLength":24,
			"byteOffset":145484
		},
		{
			"buffer":0,
			"byteLength":160,
			"byteOffset":145508
		},
		{
			"buffer":0,
			"byteLength":24,
			"byteOffset":145668
		},
		{
			"buffer":0,
			"byteLength":24,
			"byteOffset":145692
		},
		{
			"buffer":0,
			"byteLength":32,
			"byteOffset":145716
		},
		{
			"buffer":0,
			"byteLength":24,
			"byteOffset":145748
		},
		{
			"buffer":0,
			"byteLength":24,
			"byteOffset":145772
		},
		{
			"buffer":0,
			"byteLength":160,
			"byteOffset":145796
		},
		{
			"buffer":0,
			"byteLength":24,
			"byteOffset":145956
		},
		{
			"buffer":0,
			"byteLength":24,
			"byteOffset":145980
		},
		{
			"buffer":0,
			"byteLength":160,
			"byteOffset":146004
		},
		{
			"buffer":0,
			"byteLength":24,
			"byteOffset":146164
		},
		{
			"buffer":0,
			"byteLength":24,
			"byteOffset":146188
		},
		{
			"buffer":0,
			"byteLength":32,
			"byteOffset":146212
		},
		{
			"buffer":0,
			"byteLength":24,
			"byteOffset":146244
		},
		{
			"buffer":0,
			"byteLength":24,
			"byteOffset":146268
		},
		{
			"buffer":0,
			"byteLength":32,
			"byteOffset":146292
		},
		{
			"buffer":0,
			"byteLength":24,
			"byteOffset":146324
		},
		{
			"buffer":0,
			"byteLength":24,
			"byteOffset":146348
		},
		{
			"buffer":0,
			"byteLength":32,
			"byteOffset":146372
		},
		{
			"buffer":0,
			"byteLength":24,
			"byteOffset":146404
		},
		{
			"buffer":0,
			"byteLength":24,
			"byteOffset":146428
		},
		{
			"buffer":0,
			"byteLength":32,
			"byteOffset":146452
		},
		{
			"buffer":0,
			"byteLength":24,
			"byteOffset":146484
		},
		{
			"buffer":0,
			"byteLength":24,
			"byteOffset":146508
		},
		{
			"buffer":0,
			"byteLength":32,
			"byteOffset":146532
		},
		{
			"buffer":0,
			"byteLength":24,
			"byteOffset":146564
		},
		{
			"buffer":0,
			"byteLength":24,
			"byteOffset":146588
		},
		{
			"buffer":0,
			"byteLength":32,
			"byteOffset":146612
		},
		{
			"buffer":0,
			"byteLength":24,
			"byteOffset":146644
		},
		{
			"buffer":0,
			"byteLength":24,
			"byteOffset":146668
		},
		{
			"buffer":0,
			"byteLength":32,
			"byteOffset":146692
		},
		{
			"buffer":0,
			"byteLength":24,
			"byteOffset":146724
		},
		{
			"buffer":0,
			"byteLength":24,
			"byteOffset":146748
		},
		{
			"buffer":0,
			"byteLength":32,
			"byteOffset":146772
		},
		{
			"buffer":0,
			"byteLength":24,
			"byteOffset":146804
		},
		{
			"buffer":0,
			"byteLength":8,
			"byteOffset":146828
		},
		{
			"buffer":0,
			"byteLength":24,
			"byteOffset":146836
		},
		{
			"buffer":0,
			"byteLength":32,
			"byteOffset":146860
		},
		{
			"buffer":0,
			"byteLength":24,
			"byteOffset":146892
		},
		{
			"buffer":0,
			"byteLength":24,
			"byteOffset":146916
		},
		{
			"buffer":0,
			"byteLength":32,
			"byteOffset":146940
		},
		{
			"buffer":0,
			"byteLength":24,
			"byteOffset":146972
		},
		{
			"buffer":0,
			"byteLength":24,
			"byteOffset":146996
		},
		{
			"buffer":0,
			"byteLength":164,
			"byteOffset":147020
		},
		{
			"buffer":0,
			"byteLength":656,
			"byteOffset":147184
		},
		{
			"buffer":0,
			"byteLength":24,
			"byteOffset":147840
		},
		{
			"buffer":0,
			"byteLength":24,
			"byteOffset":147864
		},
		{
			"buffer":0,
			"byteLength":32,
			"byteOffset":147888
		},
		{
			"buffer":0,
			"byteLength":24,
			"byteOffset":147920
		},
		{
			"buffer":0,
			"byteLength":24,
			"byteOffset":147944
		},
		{
			"buffer":0,
			"byteLength":32,
			"byteOffset":147968
		},
		{
			"buffer":0,
			"byteLength":24,
			"byteOffset":148000
		},
		{
			"buffer":0,
			"byteLength":24,
			"byteOffset":148024
		},
		{
			"buffer":0,
			"byteLength":32,
			"byteOffset":148048
		},
		{
			"buffer":0,
			"byteLength":24,
			"byteOffset":148080
		},
		{
			"buffer":0,
			"byteLength":24,
			"byteOffset":148104
		},
		{
			"buffer":0,
			"byteLength":656,
			"byteOffset":148128
		},
		{
			"buffer":0,
			"byteLength":24,
			"byteOffset":148784
		},
		{
			"buffer":0,
			"byteLength":24,
			"byteOffset":148808
		},
		{
			"buffer":0,
			"byteLength":32,
			"byteOffset":148832
		},
		{
			"buffer":0,
			"byteLength":24,
			"byteOffset":148864
		},
		{
			"buffer":0,
			"byteLength":24,
			"byteOffset":148888
		},
		{
			"buffer":0,
			"byteLength":32,
			"byteOffset":148912
		},
		{
			"buffer":0,
			"byteLength":24,
			"byteOffset":148944
		},
		{
			"buffer":0,
			"byteLength":24,
			"byteOffset":148968
		},
		{
			"buffer":0,
			"byteLength":32,
			"byteOffset":148992
		},
		{
			"buffer":0,
			"byteLength":24,
			"byteOffset":149024
		},
		{
			"buffer":0,
			"byteLength":24,
			"byteOffset":149048
		},
		{
			"buffer":0,
			"byteLength":656,
			"byteOffset":149072
		},
		{
			"buffer":0,
			"byteLength":24,
			"byteOffset":149728
		},
		{
			"buffer":0,
			"byteLength":24,
			"byteOffset":149752
		},
		{
			"buffer":0,
			"byteLength":656,
			"byteOffset":149776
		},
		{
			"buffer":0,
			"byteLength":24,
			"byteOffset":150432
		},
		{
			"buffer":0,
			"byteLength":24,
			"byteOffset":150456
		},
		{
			"buffer":0,
			"byteLength":32,
			"byteOffset":150480
		},
		{
			"buffer":0,
			"byteLength":24,
			"byteOffset":150512
		},
		{
			"buffer":0,
			"byteLength":24,
			"byteOffset":150536
		},
		{
			"buffer":0,
			"byteLength":656,
			"byteOffset":150560
		},
		{
			"buffer":0,
			"byteLength":24,
			"byteOffset":151216
		},
		{
			"buffer":0,
			"byteLength":24,
			"byteOffset":151240
		},
		{
			"buffer":0,
			"byteLength":656,
			"byteOffset":151264
		},
		{
			"buffer":0,
			"byteLength":24,
			"byteOffset":151920
		}
	],
	"samplers":[
		{
			"magFilter":9728,
			"minFilter":9984
		}
	],
	"buffers":[
		{
			"byteLength":151944,
			"uri":"soldado-3e6a9036d84278827efaa36e6f2269d6.bin"
		}
	]
}
