{
	"asset":{
		"generator":"Khronos glTF Blender I/O v4.4.56",
		"version":"2.0"
	},
	"scene":0,
	"scenes":[
		{
			"extras":{
				"blosm":{
					"defaultLevels":[
						{
							"levels":4,
							"weight":10
						},
						{
							"levels":5,
							"weight":40
						},
						{
							"levels":6,
							"weight":10
						}
					]
				},
				"sb_state":{
					"action_preview":null,
					"action_preview_enabled":0
				}
			},
			"name":"Scene",
			"nodes":[
				0,
				1,
				2,
				3,
				4,
				5,
				6,
				7
			]
		}
	],
	"nodes":[
		{
			"mesh":0,
			"name":"Cube",
			"scale":[
				1.3329540491104126,
				1,
				1
			],
			"translation":[
				0.01648450270295143,
				0,
				0
			]
		},
		{
			"mesh":1,
			"name":"Cubo",
			"scale":[
				0.42389655113220215,
				0.42389655113220215,
				0.42389655113220215
			],
			"translation":[
				0.004256861750036478,
				-0.365238755941391,
				0
			]
		},
		{
			"mesh":2,
			"name":"Cubo.001",
			"rotation":[
				1,
				0,
				0,
				0
			],
			"scale":[
				-0.3797667622566223,
				-0.037148233503103256,
				-0.0425807349383831
			],
			"translation":[
				0.019999999552965164,
				-0.12901805341243744,
				0.8913381099700928
			]
		},
		{
			"mesh":3,
			"name":"Cilindro",
			"rotation":[
				0.7071068286895752,
				0,
				0,
				0.7071068286895752
			],
			"scale":[
				0.15906000137329102,
				0.057084500789642334,
				0.15906000137329102
			],
			"translation":[
				0.012317311950027943,
				0.05489576980471611,
				-0.8251565098762512
			]
		},
		{
			"mesh":4,
			"name":"Cilindro.001",
			"rotation":[
				0.5,
				-0.5,
				0.49999991059303284,
				0.5000000596046448
			],
			"scale":[
				0.15906000137329102,
				0.057084500789642334,
				0.15906000137329102
			],
			"translation":[
				-0.30266380310058594,
				-0.18632656335830688,
				-0.4938795864582062
			]
		},
		{
			"mesh":5,
			"name":"Cilindro.002",
			"rotation":[
				0.5,
				-0.5,
				0.49999991059303284,
				0.5000000596046448
			],
			"scale":[
				0.15906000137329102,
				0.057084500789642334,
				0.15906000137329102
			],
			"translation":[
				0.3350053131580353,
				-0.18632656335830688,
				-0.4938795864582062
			]
		},
		{
			"mesh":6,
			"name":"Cilindro.003",
			"rotation":[
				0.5,
				-0.5,
				0.49999991059303284,
				0.5000000596046448
			],
			"scale":[
				0.15906000137329102,
				0.057084500789642334,
				0.15906000137329102
			],
			"translation":[
				0.3350053131580353,
				-0.18632656335830688,
				0.6629893183708191
			]
		},
		{
			"mesh":7,
			"name":"Cilindro.004",
			"rotation":[
				0.5,
				-0.5,
				0.49999991059303284,
				0.5000000596046448
			],
			"scale":[
				0.15906000137329102,
				0.057084500789642334,
				0.15906000137329102
			],
			"translation":[
				-0.30266380310058594,
				-0.18632656335830688,
				0.6629893183708191
			]
		}
	],
	"materials":[
		{
			"doubleSided":true,
			"name":"Material",
			"pbrMetallicRoughness":{
				"baseColorTexture":{
					"index":0
				}
			}
		},
		{
			"doubleSided":true,
			"name":"Material.006",
			"pbrMetallicRoughness":{
				"baseColorTexture":{
					"index":1
				},
				"metallicFactor":0
			}
		},
		{
			"doubleSided":true,
			"name":"Material.007",
			"pbrMetallicRoughness":{
				"baseColorTexture":{
					"index":2
				},
				"metallicFactor":0
			}
		},
		{
			"doubleSided":true,
			"name":"Material.001",
			"pbrMetallicRoughness":{
				"baseColorTexture":{
					"index":3
				},
				"metallicFactor":0
			}
		},
		{
			"doubleSided":true,
			"name":"Material.002",
			"pbrMetallicRoughness":{
				"baseColorTexture":{
					"index":4
				},
				"metallicFactor":0
			}
		},
		{
			"doubleSided":true,
			"name":"Material.003",
			"pbrMetallicRoughness":{
				"baseColorTexture":{
					"index":5
				},
				"metallicFactor":0
			}
		},
		{
			"doubleSided":true,
			"name":"Material.004",
			"pbrMetallicRoughness":{
				"baseColorTexture":{
					"index":6
				},
				"metallicFactor":0
			}
		},
		{
			"doubleSided":true,
			"name":"Material.005",
			"pbrMetallicRoughness":{
				"baseColorTexture":{
					"index":7
				},
				"metallicFactor":0
			}
		}
	],
	"meshes":[
		{
			"name":"Cube",
			"primitives":[
				{
					"attributes":{
						"POSITION":0,
						"NORMAL":1,
						"TEXCOORD_0":2,
						"TANGENT":3
					},
					"indices":4,
					"material":0
				}
			]
		},
		{
			"name":"Cubo",
			"primitives":[
				{
					"attributes":{
						"POSITION":5,
						"NORMAL":6,
						"TEXCOORD_0":7,
						"TANGENT":8
					},
					"indices":9,
					"material":1
				}
			]
		},
		{
			"name":"Cubo.001",
			"primitives":[
				{
					"attributes":{
						"POSITION":10,
						"NORMAL":11,
						"TEXCOORD_0":12,
						"TANGENT":13
					},
					"indices":14,
					"material":2
				}
			]
		},
		{
			"name":"Cilindro",
			"primitives":[
				{
					"attributes":{
						"POSITION":15,
						"NORMAL":16,
						"TEXCOORD_0":17
					},
					"indices":18,
					"material":3
				}
			]
		},
		{
			"name":"Cilindro.001",
			"primitives":[
				{
					"attributes":{
						"POSITION":19,
						"NORMAL":20,
						"TEXCOORD_0":21
					},
					"indices":18,
					"material":4
				}
			]
		},
		{
			"name":"Cilindro.002",
			"primitives":[
				{
					"attributes":{
						"POSITION":22,
						"NORMAL":23,
						"TEXCOORD_0":24
					},
					"indices":18,
					"material":5
				}
			]
		},
		{
			"name":"Cilindro.003",
			"primitives":[
				{
					"attributes":{
						"POSITION":25,
						"NORMAL":26,
						"TEXCOORD_0":27
					},
					"indices":18,
					"material":6
				}
			]
		},
		{
			"name":"Cilindro.004",
			"primitives":[
				{
					"attributes":{
						"POSITION":28,
						"NORMAL":29,
						"TEXCOORD_0":30
					},
					"indices":18,
					"material":7
				}
			]
		}
	],
	"textures":[
		{
			"sampler":0,
			"source":0
		},
		{
			"sampler":0,
			"source":1
		},
		{
			"sampler":0,
			"source":2
		},
		{
			"sampler":0,
			"source":3
		},
		{
			"sampler":0,
			"source":3
		},
		{
			"sampler":0,
			"source":3
		},
		{
			"sampler":0,
			"source":3
		},
		{
			"sampler":0,
			"source":3
		}
	],
	"images":[
		{
			"mimeType":"image/png",
			"name":"carro.png",
			"uri":"../../texturas/carro.png"
		},
		{
			"mimeType":"image/png",
			"name":"base.png",
			"uri":"../../texturas/base.png"
		},
		{
			"mimeType":"image/png",
			"name":"parachoques_frontal.png",
			"uri":"../../texturas/parachoques_frontal.png"
		},
		{
			"mimeType":"image/png",
			"name":"puedas.png",
			"uri":"../../texturas/puedas.png"
		}
	],
	"accessors":[
		{
			"bufferView":0,
			"componentType":5126,
			"count":1428,
			"max":[
				0.28475266695022583,
				0.34509164094924927,
				0.8802275657653809
			],
			"min":[
				-0.28475266695022583,
				-0.2739277780056,
				-0.8461968302726746
			],
			"type":"VEC3"
		},
		{
			"bufferView":1,
			"componentType":5126,
			"count":1428,
			"type":"VEC3"
		},
		{
			"bufferView":2,
			"componentType":5126,
			"count":1428,
			"type":"VEC2"
		},
		{
			"bufferView":3,
			"componentType":5126,
			"count":1428,
			"type":"VEC4"
		},
		{
			"bufferView":4,
			"componentType":5123,
			"count":2988,
			"type":"SCALAR"
		},
		{
			"bufferView":5,
			"componentType":5126,
			"count":50,
			"max":[
				0.8595767617225647,
				1.105028748512268,
				1.9035727977752686
			],
			"min":[
				-0.7898390889167786,
				0.2442331314086914,
				-1.7531664371490479
			],
			"type":"VEC3"
		},
		{
			"bufferView":6,
			"componentType":5126,
			"count":50,
			"type":"VEC3"
		},
		{
			"bufferView":7,
			"componentType":5126,
			"count":50,
			"type":"VEC2"
		},
		{
			"bufferView":8,
			"componentType":5126,
			"count":50,
			"type":"VEC4"
		},
		{
			"bufferView":9,
			"componentType":5123,
			"count":84,
			"type":"SCALAR"
		},
		{
			"bufferView":10,
			"componentType":5126,
			"count":92,
			"max":[
				1,
				1,
				1
			],
			"min":[
				-1,
				-1,
				-1.7633503675460815
			],
			"type":"VEC3"
		},
		{
			"bufferView":11,
			"componentType":5126,
			"count":92,
			"type":"VEC3"
		},
		{
			"bufferView":12,
			"componentType":5126,
			"count":92,
			"type":"VEC2"
		},
		{
			"bufferView":13,
			"componentType":5126,
			"count":92,
			"type":"VEC4"
		},
		{
			"bufferView":14,
			"componentType":5123,
			"count":204,
			"type":"SCALAR"
		},
		{
			"bufferView":15,
			"componentType":5126,
			"count":192,
			"max":[
				1,
				1,
				1
			],
			"min":[
				-1,
				-1,
				-1
			],
			"type":"VEC3"
		},
		{
			"bufferView":16,
			"componentType":5126,
			"count":192,
			"type":"VEC3"
		},
		{
			"bufferView":17,
			"componentType":5126,
			"count":192,
			"type":"VEC2"
		},
		{
			"bufferView":18,
			"componentType":5123,
			"count":372,
			"type":"SCALAR"
		},
		{
			"bufferView":19,
			"componentType":5126,
			"count":192,
			"max":[
				1,
				1,
				1
			],
			"min":[
				-1,
				-1,
				-1
			],
			"type":"VEC3"
		},
		{
			"bufferView":20,
			"componentType":5126,
			"count":192,
			"type":"VEC3"
		},
		{
			"bufferView":21,
			"componentType":5126,
			"count":192,
			"type":"VEC2"
		},
		{
			"bufferView":22,
			"componentType":5126,
			"count":192,
			"max":[
				1,
				1,
				1
			],
			"min":[
				-1,
				-1,
				-1
			],
			"type":"VEC3"
		},
		{
			"bufferView":23,
			"componentType":5126,
			"count":192,
			"type":"VEC3"
		},
		{
			"bufferView":24,
			"componentType":5126,
			"count":192,
			"type":"VEC2"
		},
		{
			"bufferView":25,
			"componentType":5126,
			"count":192,
			"max":[
				1,
				1,
				1
			],
			"min":[
				-1,
				-1,
				-1
			],
			"type":"VEC3"
		},
		{
			"bufferView":26,
			"componentType":5126,
			"count":192,
			"type":"VEC3"
		},
		{
			"bufferView":27,
			"componentType":5126,
			"count":192,
			"type":"VEC2"
		},
		{
			"bufferView":28,
			"componentType":5126,
			"count":192,
			"max":[
				1,
				1,
				1
			],
			"min":[
				-1,
				-1,
				-1
			],
			"type":"VEC3"
		},
		{
			"bufferView":29,
			"componentType":5126,
			"count":192,
			"type":"VEC3"
		},
		{
			"bufferView":30,
			"componentType":5126,
			"count":192,
			"type":"VEC2"
		}
	],
	"bufferViews":[
		{
			"buffer":0,
			"byteLength":17136,
			"byteOffset":0,
			"target":34962
		},
		{
			"buffer":0,
			"byteLength":17136,
			"byteOffset":17136,
			"target":34962
		},
		{
			"buffer":0,
			"byteLength":11424,
			"byteOffset":34272,
			"target":34962
		},
		{
			"buffer":0,
			"byteLength":22848,
			"byteOffset":45696,
			"target":34962
		},
		{
			"buffer":0,
			"byteLength":5976,
			"byteOffset":68544,
			"target":34963
		},
		{
			"buffer":0,
			"byteLength":600,
			"byteOffset":74520,
			"target":34962
		},
		{
			"buffer":0,
			"byteLength":600,
			"byteOffset":75120,
			"target":34962
		},
		{
			"buffer":0,
			"byteLength":400,
			"byteOffset":75720,
			"target":34962
		},
		{
			"buffer":0,
			"byteLength":800,
			"byteOffset":76120,
			"target":34962
		},
		{
			"buffer":0,
			"byteLength":168,
			"byteOffset":76920,
			"target":34963
		},
		{
			"buffer":0,
			"byteLength":1104,
			"byteOffset":77088,
			"target":34962
		},
		{
			"buffer":0,
			"byteLength":1104,
			"byteOffset":78192,
			"target":34962
		},
		{
			"buffer":0,
			"byteLength":736,
			"byteOffset":79296,
			"target":34962
		},
		{
			"buffer":0,
			"byteLength":1472,
			"byteOffset":80032,
			"target":34962
		},
		{
			"buffer":0,
			"byteLength":408,
			"byteOffset":81504,
			"target":34963
		},
		{
			"buffer":0,
			"byteLength":2304,
			"byteOffset":81912,
			"target":34962
		},
		{
			"buffer":0,
			"byteLength":2304,
			"byteOffset":84216,
			"target":34962
		},
		{
			"buffer":0,
			"byteLength":1536,
			"byteOffset":86520,
			"target":34962
		},
		{
			"buffer":0,
			"byteLength":744,
			"byteOffset":88056,
			"target":34963
		},
		{
			"buffer":0,
			"byteLength":2304,
			"byteOffset":88800,
			"target":34962
		},
		{
			"buffer":0,
			"byteLength":2304,
			"byteOffset":91104,
			"target":34962
		},
		{
			"buffer":0,
			"byteLength":1536,
			"byteOffset":93408,
			"target":34962
		},
		{
			"buffer":0,
			"byteLength":2304,
			"byteOffset":94944,
			"target":34962
		},
		{
			"buffer":0,
			"byteLength":2304,
			"byteOffset":97248,
			"target":34962
		},
		{
			"buffer":0,
			"byteLength":1536,
			"byteOffset":99552,
			"target":34962
		},
		{
			"buffer":0,
			"byteLength":2304,
			"byteOffset":101088,
			"target":34962
		},
		{
			"buffer":0,
			"byteLength":2304,
			"byteOffset":103392,
			"target":34962
		},
		{
			"buffer":0,
			"byteLength":1536,
			"byteOffset":105696,
			"target":34962
		},
		{
			"buffer":0,
			"byteLength":2304,
			"byteOffset":107232,
			"target":34962
		},
		{
			"buffer":0,
			"byteLength":2304,
			"byteOffset":109536,
			"target":34962
		},
		{
			"buffer":0,
			"byteLength":1536,
			"byteOffset":111840,
			"target":34962
		}
	],
	"samplers":[
		{
			"magFilter":9728,
			"minFilter":9984
		}
	],
	"buffers":[
		{
			"byteLength":113376,
			"uri":"vahiculo-001-690a7875705aac86d11575be39c0057b.bin"
		}
	]
}
